<svg xmlns="http://www.w3.org/2000/svg" width="55" height="31" fill="none"><path fill="#2979FF" fill-rule="evenodd" d="M47.773.762l6.72 6.759a1.066 1.066 0 010 1.502l-6.72 6.758a1.052 1.052 0 01-1.494 0 1.066 1.066 0 010-1.502l4.936-4.964c-.842-.012-1.684-.027-2.523-.042-6.512-.119-12.925-.235-19.19 1.443-9.474 2.536-18.823 9.48-26.826 19.345a1.052 1.052 0 01-1.486.151 1.066 1.066 0 01-.15-1.494C9.218 18.638 18.917 11.35 28.958 8.663c6.58-1.762 13.373-1.636 19.916-1.514.77.014 1.538.029 2.302.04l-4.897-4.925a1.066 1.066 0 010-1.502 1.052 1.052 0 011.493 0z" clip-rule="evenodd"/></svg>