<svg xmlns="http://www.w3.org/2000/svg" width="105" height="21" fill="none"><path fill="#2979FF" fill-rule="evenodd" d="M104.47 7.67a1.027 1.027 0 01-.132 1.437l-6.996 5.87c-.429.36-1.066.3-1.423-.132a1.027 1.027 0 01.13-1.437l5.126-4.3c-2.394-.232-4.791-.477-7.19-.722-12.582-1.284-25.222-2.574-37.69-2.083-18.91.744-37.774 5.806-54.139 13.836a1.007 1.007 0 01-1.35-.471 1.024 1.024 0 01.466-1.364c16.603-8.147 35.74-13.285 54.945-14.04 12.624-.496 25.445.813 38.04 2.099 2.373.242 4.739.484 7.093.712l-4.252-5.16A1.027 1.027 0 0197.23.477a1.005 1.005 0 011.424.132l5.817 7.06z" clip-rule="evenodd"/></svg>