<svg xmlns="http://www.w3.org/2000/svg" width="41" height="51" fill="none"><g clip-path="url(#clip0)"><g filter="url(#filter0_ddd)"><mask id="a" width="40.004" height="52" x=".646" y="-1.259" fill="#000" maskUnits="userSpaceOnUse"><path fill="#fff" d="M.646-1.259H40.65v52H.646z"/><path d="M16.558 13.29l6.321-6.931 2.163-.77.665.77v1.694l-1.913 7.316-1.581 5.699 10.48.385.997.847-.998 1.925-8.9 10.32-6.488 7.546-2.662 1.233-.582-1.618L17.305 28 6.66 27.305v-1.694l9.899-12.321z"/><path d="M19.58 10.335a.868.868 0 00.513.165c.246 0 .49-.1.653-.293l.014-.016a.731.731 0 00-.139-1.08.876.876 0 00-1.165.129l-.014.016a.73.73 0 00.139 1.08zm-1.348 30.646a.875.875 0 00-1.166.127l-1.007 1.182a.77.77 0 01-.506.261.796.796 0 01-.558-.146.676.676 0 01-.268-.71.658.658 0 00.014-.077l3.482-13.756a.725.725 0 00-.158-.652.857.857 0 00-.65-.292H8.071c-.421 0-.764-.317-.764-.708a.68.68 0 01.21-.488.768.768 0 00.052-.054L19.268 11.94a.731.731 0 00-.137-1.08.876.876 0 00-1.166.128L6.288 24.69c-.413.415-.64.954-.64 1.52 0 1.238 1.087 2.245 2.424 2.245h8.295l-3.262 12.89a.735.735 0 00-.017.098c-.164.812.174 1.654.878 2.168a2.522 2.522 0 001.78.467 2.456 2.456 0 001.616-.836l1.007-1.181a.731.731 0 00-.137-1.08zm13.622-20.602H23.56l3.262-12.89a.665.665 0 00.018-.098c.163-.812-.175-1.654-.878-2.168-1.046-.766-2.57-.6-3.396.369L21.51 6.828a.731.731 0 00.138 1.079.875.875 0 001.166-.127l1.052-1.236a.8.8 0 011.065-.115.677.677 0 01.268.71.755.755 0 00-.015.077l-3.481 13.756a.725.725 0 00.158.653.857.857 0 00.65.29h9.342c.422 0 .765.319.765.709a.678.678 0 01-.212.488.762.762 0 00-.05.055l-11.745 13.78a.731.731 0 00.138 1.08.87.87 0 00.513.165.85.85 0 00.652-.293l11.723-13.755c.414-.415.641-.954.641-1.52 0-1.238-1.088-2.245-2.425-2.245zM20.302 38.554a.876.876 0 00-1.166.126l-.014.016a.73.73 0 00.135 1.08.868.868 0 00.515.166c.245 0 .488-.1.651-.292l.014-.016a.731.731 0 00-.135-1.08z"/></mask><path fill="#fff" d="M16.558 13.29l6.321-6.931 2.163-.77.665.77v1.694l-1.913 7.316-1.581 5.699 10.48.385.997.847-.998 1.925-8.9 10.32-6.488 7.546-2.662 1.233-.582-1.618L17.305 28 6.66 27.305v-1.694l9.899-12.321z"/><path fill="#fff" d="M19.58 10.335a.868.868 0 00.513.165c.246 0 .49-.1.653-.293l.014-.016a.731.731 0 00-.139-1.08.876.876 0 00-1.165.129l-.014.016a.73.73 0 00.139 1.08zm-1.348 30.646a.875.875 0 00-1.166.127l-1.007 1.182a.77.77 0 01-.506.261.796.796 0 01-.558-.146.676.676 0 01-.268-.71.658.658 0 00.014-.077l3.482-13.756a.725.725 0 00-.158-.652.857.857 0 00-.65-.292H8.071c-.421 0-.764-.317-.764-.708a.68.68 0 01.21-.488.768.768 0 00.052-.054L19.268 11.94a.731.731 0 00-.137-1.08.876.876 0 00-1.166.128L6.288 24.69c-.413.415-.64.954-.64 1.52 0 1.238 1.087 2.245 2.424 2.245h8.295l-3.262 12.89a.735.735 0 00-.017.098c-.164.812.174 1.654.878 2.168a2.522 2.522 0 001.78.467 2.456 2.456 0 001.616-.836l1.007-1.181a.731.731 0 00-.137-1.08zm13.622-20.602H23.56l3.262-12.89a.665.665 0 00.018-.098c.163-.812-.175-1.654-.878-2.168-1.046-.766-2.57-.6-3.396.369L21.51 6.828a.731.731 0 00.138 1.079.875.875 0 001.166-.127l1.052-1.236a.8.8 0 011.065-.115.677.677 0 01.268.71.755.755 0 00-.015.077l-3.481 13.756a.725.725 0 00.158.653.857.857 0 00.65.29h9.342c.422 0 .765.319.765.709a.678.678 0 01-.212.488.762.762 0 00-.05.055l-11.745 13.78a.731.731 0 00.138 1.08.87.87 0 00.513.165.85.85 0 00.652-.293l11.723-13.755c.414-.415.641-.954.641-1.52 0-1.238-1.088-2.245-2.425-2.245zM20.302 38.554a.876.876 0 00-1.166.126l-.014.016a.73.73 0 00.135 1.08.868.868 0 00.515.166c.245 0 .488-.1.651-.292l.014-.016a.731.731 0 00-.135-1.08z"/><path fill="#fff" d="M22.88 6.359l-1.678-4.71-1.176.418-.84.923 3.693 3.369zm-6.322 6.93L12.864 9.92l-.106.116-.098.123 3.898 3.13zM6.659 25.612l-3.897-3.13-1.102 1.37v1.76h5zm0 1.694h-5v4.686l4.675.304.325-4.99zM17.305 28l4.866 1.151 1.362-5.756-5.903-.385-.325 4.99zM14.06 41.706l-4.865-1.151-.343 1.447.504 1.398 4.704-1.694zm.582 1.618l-4.704 1.693 1.849 5.138 4.956-2.294-2.1-4.537zm2.662-1.233l2.1 4.538.984-.456.707-.822-3.791-3.26zm6.488-7.547l-3.786-3.265-.006.006 3.792 3.26zm8.9-10.319l3.786 3.265.383-.443.27-.52-4.439-2.302zm.998-1.925l4.44 2.3 1.833-3.536-3.036-2.577L33.69 22.3zm-.998-.847l3.236-3.812-1.32-1.121-1.732-.064-.184 4.997zm-10.48-.385l-4.817-1.336-1.692 6.1 6.326.232.184-4.996zm1.582-5.699l4.817 1.336.01-.035.01-.036-4.837-1.265zm1.913-7.316l4.837 1.265.163-.622v-.643h-5zm0-1.694h5V4.498L29.491 3.09l-3.784 3.269zm-.665-.77l3.784-3.27L26.589-.27 23.365.878l1.677 4.71zm-5.462 4.746l2.95-4.037-.003-.003-2.947 4.04zm1.166-.128l-3.79-3.26-.01.01-.008.01 3.808 3.24zm.014-.016l3.79 3.26.01-.011.01-.012-3.81-3.237zm-1.304-.951l-3.807-3.242-.01.013-.011.013 3.828 3.216zm-.014.016l3.808 3.24.01-.012.01-.012-3.828-3.216zm-1.21 31.725l-2.95 4.037 2.95-4.037zm-1.166.127l3.805 3.243.002-.002-3.807-3.24zm-1.007 1.182l3.804 3.245.001-.002-3.805-3.243zm-1.064.115l2.952-4.036h-.002l-2.95 4.036zm-.268-.71l4.848 1.223.001-.005-4.85-1.218zm.014-.077L9.894 40.39l-.075.299-.039.305 4.961.623zm3.482-13.756l4.847 1.227v-.002l-4.847-1.225zm-.158-.652l3.799-3.252-.003-.003-3.796 3.255zM7.52 25.722l-3.462-3.608-.01.01-.01.009 3.482 3.589zm.05-.054l3.797 3.254.005-.006.004-.005-3.805-3.243zm11.7-13.727l-3.806-3.243 3.805 3.243zm-.138-1.08l2.952-4.035-.006-.004-2.946 4.04zm-1.166.128L14.16 7.745l3.805 3.244zM6.288 24.69l3.544 3.527.136-.137.126-.147-3.806-3.243zm10.08 3.765l4.846 1.227 1.576-6.226h-6.422v5zm-3.263 12.89l-4.847-1.227-.003.014 4.85 1.213zm-.017.098l4.902.986.044-.223.025-.226-4.971-.537zm.878 2.168l2.952-4.035-2.952 4.035zm1.78.467l.529 4.972.01-.001-.539-4.97zm1.616-.836l3.803 3.246.002-.003-3.805-3.243zm1.007-1.181l-3.805-3.244 3.805 3.244zm5.19-21.682l-4.847-1.227-1.576 6.227h6.423v-5zm3.262-12.89L21.98 6.242l-.003.01-.003.01 4.847 1.227zm.018-.098l-4.902-.985-.05.244-.024.248 4.976.493zm-.878-2.168l2.953-4.036-2.953 4.036zm-3.396.369L18.76 2.347l-.002.002 3.806 3.243zM21.51 6.828l-3.805-3.244-.002.002 3.807 3.242zm.138 1.079l2.95-4.037-2.95 4.037zm1.166-.127l-3.806-3.243 3.806 3.243zm1.052-1.236l-3.802-3.246-.003.004 3.805 3.242zm1.065-.115l-2.953 4.035.002.002 2.95-4.037zm.268.71l4.85 1.218v-.001L25.2 7.139zm-.015.077l4.847 1.227.068-.268.038-.274-4.953-.685zm-3.481 13.756l-4.847-1.227v.002l4.847 1.225zm.158.653l3.799-3.252-.004-.004-3.795 3.256zm10.546 1.487l-3.482-3.589-.005.006-.006.006 3.492 3.577zm-.051.055l3.805 3.243.012-.014.011-.013-3.828-3.216zm-11.745 13.78l3.805 3.243-3.805-3.243zm.138 1.08l-2.95 4.037.004.003 2.946-4.04zm1.165-.128l3.806 3.243-3.806-3.243zm11.723-13.755l-3.544-3.526-.136.136-.125.147 3.805 3.243zm-13.336 14.41l-2.957 4.033 2.957-4.033zm-1.166.126l3.79 3.26.005-.006.005-.005-3.8-3.25zm-.014.016l-3.791-3.26-.008.009 3.799 3.25zm.135 1.08l2.961-4.03-.004-.003-2.957 4.032zm1.166-.126l-3.79-3.26-.005.005-.005.006 3.8 3.249zm.014-.016l3.79 3.26.006-.006.006-.007-3.802-3.247zM19.185 2.99l-6.321 6.93 7.388 6.739 6.321-6.931-7.388-6.738zm-6.525 7.168L2.762 22.48l7.795 6.262 9.899-12.321-7.796-6.262zm-11 15.453v1.694h10v-1.694h-10zm4.674 6.684l10.646.693.65-9.979-10.645-.693-.651 9.979zm6.106-5.448L9.195 40.555l9.73 2.303 3.246-13.708-9.731-2.303zM9.356 43.4l.582 1.617 9.409-3.387-.582-1.617-9.41 3.387zm7.387 4.46l2.661-1.231-4.2-9.075-2.662 1.232 4.2 9.075zm4.352-2.51l6.488-7.546L20 31.285l-6.488 7.547 7.583 6.519zm6.483-7.54l8.9-10.32-7.572-6.53-8.9 10.32 7.572 6.53zm9.553-11.284l.998-1.925-8.878-4.602-.998 1.925 8.878 4.602zm-.205-8.038l-.998-.847-6.472 7.624.998.847 6.472-7.624zm-4.05-2.032l-10.48-.385-.367 9.993 10.48.385.367-9.993zm-5.845 5.948l1.58-5.699-9.636-2.672-1.58 5.699 9.636 2.672zm1.6-5.77l1.913-7.316-9.674-2.53-1.914 7.316 9.675 2.53zm2.076-8.581V6.359h-10v1.694h10zM29.491 3.09l-.665-.77-7.568 6.538.665.77 7.568-6.538zM23.365.878l-2.163.77 3.354 9.421 2.163-.77-3.354-9.42zM16.63 14.373a5.869 5.869 0 003.462 1.127v-10c.807 0 1.675.24 2.437.798l-5.9 8.075zm3.462 1.127c1.568 0 3.258-.64 4.461-2.053l-7.616-6.48A4.145 4.145 0 0120.094 5.5l-.001 10zm4.444-2.033l.014-.016-7.582-6.52-.014.016 7.582 6.52zm.033-.039c2.227-2.62 1.631-6.436-1.002-8.356l-5.893 8.08c-1.913-1.396-2.385-4.246-.725-6.199l7.62 6.475zm-1.002-8.356c-2.415-1.761-5.893-1.454-7.92.926l7.615 6.483a4.125 4.125 0 01-5.588.67l5.893-8.08zm-7.94.952l-.014.016 7.656 6.432.014-.016-7.656-6.432zm.006-.008c-2.23 2.62-1.634 6.438 1 8.36l5.893-8.08c1.913 1.395 2.385 4.246.723 6.2l-7.616-6.48zm5.548 30.928c-2.411-1.762-5.893-1.462-7.923.923l7.614 6.483a4.125 4.125 0 01-5.592.668l5.9-8.074zm-7.921.921l-1.007 1.182 7.61 6.486 1.007-1.182-7.61-6.486zm-1.006 1.18a4.23 4.23 0 012.756-1.464l1.083 9.941a5.77 5.77 0 003.769-1.987l-7.608-6.49zm2.756-1.464a4.204 4.204 0 012.936.788l-5.904 8.072a5.795 5.795 0 004.051 1.081l-1.083-9.941zm2.934.787a4.324 4.324 0 011.63 4.55l-9.696-2.445c-.594 2.354.388 4.67 2.165 5.97l5.901-8.075zm1.631 4.545c.055-.217.097-.441.126-.672L9.78 40.995a4.57 4.57 0 01.097-.518l9.699 2.436zm.012-.069L23.07 29.09l-9.694-2.453L9.893 40.39l9.694 2.453zm3.482-13.757a5.725 5.725 0 00-1.206-5.129l-7.598 6.503a4.274 4.274 0 01-.891-3.823l9.695 2.449zm-1.21-5.133a5.857 5.857 0 00-4.445-2.036l-.001 10a4.142 4.142 0 01-3.145-1.453l7.592-6.51zm-4.445-2.036H8.073l-.001 10h9.342v-10zm-9.342 0c1.969 0 4.235 1.565 4.235 4.292h-10c0 3.51 2.952 5.708 5.764 5.708v-10zm4.235 4.292A4.323 4.323 0 0111 29.31l-6.962-7.177a5.678 5.678 0 00-1.73 4.077h10zm-1.328 3.12c.166-.159.295-.303.386-.408l-7.592-6.508c.058-.068.154-.176.283-.3l6.923 7.216zm.395-.42l11.698-13.726-7.61-6.486L3.764 22.424l7.611 6.487zm11.698-13.726c2.232-2.618 1.639-6.435-.99-8.358l-5.904 8.071c-1.91-1.397-2.38-4.247-.716-6.2l7.61 6.488zm-.996-8.362c-2.407-1.756-5.885-1.46-7.917.923l7.61 6.487a4.124 4.124 0 01-5.585.67l5.892-8.08zm-7.917.924L2.483 21.447l7.61 6.486L21.77 14.232l-7.61-6.486zM2.744 21.163A7.146 7.146 0 00.648 26.21h10c0 .808-.334 1.523-.816 2.007l-7.088-7.054zM.648 26.21c0 4.355 3.695 7.245 7.424 7.245v-10c1.056 0 2.576.876 2.576 2.755h-10zm7.424 7.245h8.295v-10H8.074l-.001 10zm3.448-6.226L8.258 40.12l9.694 2.452 3.262-12.89-9.694-2.452zM8.255 40.132c-.065.259-.11.518-.138.775l9.942 1.073a4.414 4.414 0 01-.103.578l-9.701-2.426zm-.07.326c-.567 2.825.639 5.588 2.829 7.19l5.903-8.073a2.837 2.837 0 011.072 2.853l-9.803-1.97zm2.828 7.189a7.522 7.522 0 004.446 1.447l.001-10c.49 0 1.01.154 1.458.482l-5.905 8.07zm4.446 1.447c.285 0 .557-.016.816-.044l-1.057-9.944a2.32 2.32 0 01.242-.012v10zm.827-.045a7.456 7.456 0 004.879-2.561l-7.606-6.492a2.547 2.547 0 011.648-.889l1.079 9.942zm4.881-2.564l1.007-1.181-7.61-6.486-1.007 1.18 7.61 6.487zm1.007-1.181c2.233-2.62 1.639-6.438-.992-8.36l-5.9 8.074c-1.912-1.396-2.383-4.248-.718-6.2l7.61 6.486zm9.68-29.925H23.56l-.001 10h8.295v-10zm-3.448 6.226l3.262-12.89-9.694-2.452-3.262 12.89 9.694 2.452zm3.257-12.868a5.58 5.58 0 00.151-.853l-9.95-.986c.021-.224.06-.443.116-.656l9.683 2.495zm.078-.361c.568-2.826-.639-5.587-2.827-7.189l-5.906 8.07a2.836 2.836 0 01-1.071-2.851l9.804 1.97zm-2.828-7.189c-3.097-2.266-7.58-1.856-10.152 1.16l7.607 6.49a2.537 2.537 0 01-1.647.89 2.45 2.45 0 01-1.713-.47l5.905-8.07zM18.76 2.35l-1.053 1.235 7.61 6.487 1.054-1.236-7.61-6.486zm-1.055 1.237c-2.228 2.618-1.637 6.435.995 8.358l5.9-8.074c1.913 1.397 2.38 4.248.72 6.199l-7.614-6.483zm.994 8.358c2.41 1.761 5.892 1.463 7.923-.923l-7.613-6.483A4.125 4.125 0 0124.6 3.87l-5.9 8.074zm7.922-.921l1.053-1.236-7.611-6.485-1.053 1.235 7.611 6.486zm1.05-1.232a4.2 4.2 0 01-5.691.673l5.906-8.07c-2.38-1.742-5.815-1.444-7.82.904L27.67 9.79zm-5.689.675a4.323 4.323 0 01-1.63-4.544l9.699 2.434c.59-2.35-.39-4.665-2.168-5.964l-5.9 8.074zm-1.63-4.545a5.719 5.719 0 00-.119.611l9.906 1.369a4.26 4.26 0 01-.089.456L20.351 5.92zm-.013.069l-3.481 13.755 9.694 2.453 3.481-13.755-9.694-2.453zm-3.482 13.757a5.725 5.725 0 001.21 5.133l7.591-6.51a4.275 4.275 0 01.894 3.826l-9.695-2.449zm1.207 5.129a5.855 5.855 0 004.449 2.04v-10c1.131 0 2.307.474 3.148 1.457l-7.597 6.503zm4.449 2.04h9.342v-10h-9.341l-.001 10zm9.342 0c-1.972 0-4.236-1.567-4.235-4.292h10c0-3.506-2.95-5.708-5.764-5.708l-.001 10zm-4.235-4.292c0-1.223.512-2.33 1.308-3.1l6.962 7.177a5.678 5.678 0 001.73-4.077h-10zm1.296-3.09a5.55 5.55 0 00-.386.417l7.656 6.432c-.1.118-.196.22-.285.307l-6.985-7.155zm-.363.39l-11.745 13.78 7.61 6.486 11.745-13.78-7.61-6.486zm-11.745 13.78c-2.232 2.619-1.638 6.437.992 8.36l5.9-8.075c1.91 1.396 2.382 4.248.717 6.2l-7.61-6.486zm.997 8.363a5.87 5.87 0 003.459 1.125v-10c.812 0 1.677.243 2.432.794l-5.89 8.081zm3.459 1.125a5.855 5.855 0 004.458-2.05l-7.61-6.486a4.146 4.146 0 013.153-1.464l-.001 10zm4.458-2.05l11.723-13.755-7.611-6.486L18.11 34.656l7.61 6.486zm11.461-13.471a7.146 7.146 0 002.097-5.047h-10c0-.81.335-1.524.815-2.006l7.088 7.053zm2.097-5.047c0-4.356-3.696-7.245-7.424-7.245l-.001 10c-1.054 0-2.575-.876-2.575-2.755h10zM23.26 34.522c-2.41-1.767-5.891-1.469-7.924.909l7.601 6.498a4.125 4.125 0 01-5.59.658l5.912-8.065zm-7.914.898l-.014.016 7.582 6.52.014-.016-7.582-6.52zm-.022.025c-2.238 2.615-1.651 6.436.978 8.363l5.913-8.065c1.91 1.4 2.375 4.254.706 6.204l-7.597-6.502zm.973 8.36a5.868 5.868 0 003.476 1.137v-10c.808 0 1.68.242 2.446.804l-5.922 8.059zm3.476 1.137c1.565 0 3.25-.637 4.452-2.043l-7.6-6.498a4.146 4.146 0 013.148-1.46v10zm4.442-2.032l.014-.016-7.581-6.52-.014.016 7.581 6.52zm.025-.029c2.23-2.612 1.651-6.43-.981-8.36l-5.912 8.066c-1.914-1.403-2.373-4.255-.71-6.2l7.603 6.494z" mask="url(#a)"/></g><path fill="#BBDEFB" fill-rule="evenodd" d="M22.53 27.687l-.106.416-2.866 11.322 13.45-15.782c.274-.265.441-.624.441-1.02 0-.815-.713-1.476-1.594-1.476h-9.342l.105-.416L25.483 9.41l-13.45 15.782c-.273.265-.44.624-.44 1.02 0 .815.713 1.476 1.594 1.476h9.342z" clip-rule="evenodd"/><path fill="#263238" d="M19.581 10.335a.868.868 0 00.513.165c.245 0 .489-.1.653-.293l.014-.016a.731.731 0 00-.139-1.08.876.876 0 00-1.166.129l-.013.016a.73.73 0 00.138 1.08zm-1.349 30.646a.875.875 0 00-1.166.127L16.06 42.29a.77.77 0 01-.507.261.795.795 0 01-.558-.146.676.676 0 01-.268-.71.66.66 0 00.015-.077l3.481-13.756a.725.725 0 00-.157-.652.857.857 0 00-.651-.292H8.073c-.422 0-.765-.317-.765-.708 0-.182.075-.356.211-.488a.768.768 0 00.051-.054l11.7-13.728a.731.731 0 00-.137-1.08.876.876 0 00-1.167.128L6.29 24.69c-.414.416-.64.954-.64 1.52-.001 1.238 1.087 2.246 2.424 2.246h8.295l-3.262 12.889a.734.734 0 00-.018.098c-.163.812.175 1.654.878 2.168a2.522 2.522 0 001.78.467 2.456 2.456 0 001.617-.836l1.006-1.181a.731.731 0 00-.137-1.08zm13.622-20.602H23.56l3.262-12.89a.652.652 0 00.018-.098c.163-.812-.175-1.654-.878-2.168-1.046-.766-2.57-.6-3.396.369L21.51 6.828a.731.731 0 00.138 1.079.875.875 0 001.166-.127l1.052-1.236a.8.8 0 011.065-.115.677.677 0 01.268.71.705.705 0 00-.015.077l-3.481 13.756a.725.725 0 00.158.653.856.856 0 00.65.29h9.342c.422 0 .765.319.765.709a.678.678 0 01-.212.488.762.762 0 00-.05.055l-11.745 13.78a.731.731 0 00.138 1.08.87.87 0 00.513.165.85.85 0 00.652-.293l11.723-13.755c.414-.415.641-.954.641-1.52 0-1.238-1.088-2.245-2.425-2.245zM20.302 38.554a.876.876 0 00-1.166.126l-.014.016a.73.73 0 00.135 1.08.868.868 0 00.515.166c.245 0 .488-.1.651-.292l.014-.016a.731.731 0 00-.135-1.08z"/></g><defs><clipPath id="clip0"><path fill="#fff" d="M0 0h40v50H0z" transform="matrix(1 0 -.00008 1 .247 .344)"/></clipPath><filter id="filter0_ddd" width="45.315" height="56.425" x="-2.353" y="-2.27" color-interpolation-filters="sRGB" filterUnits="userSpaceOnUse"><feFlood flood-opacity="0" result="BackgroundImageFix"/><feColorMatrix in="SourceAlpha" result="hardAlpha" values="0 0 0 0 0 0 0 0 0 0 0 0 0 0 0 0 0 0 127 0"/><feOffset dy="1"/><feGaussianBlur stdDeviation="1.5"/><feColorMatrix values="0 0 0 0 0.14902 0 0 0 0 0.196078 0 0 0 0 0.219608 0 0 0 0.08 0"/><feBlend in2="BackgroundImageFix" result="effect1_dropShadow"/><feColorMatrix in="SourceAlpha" result="hardAlpha" values="0 0 0 0 0 0 0 0 0 0 0 0 0 0 0 0 0 0 127 0"/><feOffset dy="2"/><feGaussianBlur stdDeviation=".5"/><feColorMatrix values="0 0 0 0 0.14902 0 0 0 0 0.196078 0 0 0 0 0.219608 0 0 0 0.04 0"/><feBlend in2="effect1_dropShadow" result="effect2_dropShadow"/><feColorMatrix in="SourceAlpha" result="hardAlpha" values="0 0 0 0 0 0 0 0 0 0 0 0 0 0 0 0 0 0 127 0"/><feOffset dy="1"/><feGaussianBlur stdDeviation=".5"/><feColorMatrix values="0 0 0 0 0.14902 0 0 0 0 0.196078 0 0 0 0 0.219608 0 0 0 0.04 0"/><feBlend in2="effect2_dropShadow" result="effect3_dropShadow"/><feBlend in="SourceGraphic" in2="effect3_dropShadow" result="shape"/></filter></defs></svg>