<svg xmlns="http://www.w3.org/2000/svg" width="30" height="30" fill="none"><path fill="#2979FF" d="M11.25 17.188c-2.925 0-8.75 1.462-8.75 4.375v2.187H20v-2.188c0-2.912-5.825-4.375-8.75-4.375zM5.425 21.25c1.05-.725 3.587-1.563 5.825-1.563s4.775.838 5.825 1.563H5.425zM11.25 15a4.38 4.38 0 004.375-4.375A4.38 4.38 0 0011.25 6.25a4.38 4.38 0 00-4.375 4.375A4.38 4.38 0 0011.25 15zm0-6.25c1.037 0 1.875.838 1.875 1.875A1.872 1.872 0 0111.25 12.5a1.872 1.872 0 01-1.875-1.875c0-1.037.838-1.875 1.875-1.875zm8.8 8.512c1.45 1.05 2.45 2.45 2.45 4.3v2.188h5v-2.188c0-2.524-4.375-3.962-7.45-4.3zM18.75 15a4.38 4.38 0 004.375-4.375A4.38 4.38 0 0018.75 6.25c-.675 0-1.3.162-1.875.438a6.8 6.8 0 011.25 3.937 6.8 6.8 0 01-1.25 3.938A4.32 4.32 0 0018.75 15z"/></svg>