<svg xmlns="http://www.w3.org/2000/svg" width="71" height="77" fill="none"><g filter="url(#filter0_ddd)"><path fill="#fff" d="M49.013 12.505A20.3 20.3 0 0041.8 8.387a20.69 20.69 0 00-8.697-.878c-4.34.474-8.51 2.408-11.742 5.447-3.237 3.043-5.39 7.06-6.06 11.313-.593 3.764-.131 7.567 1.336 10.999a20.214 20.214 0 006.578 8.288 3.508 3.508 0 011.421 2.806v10.817c0 1.628 1.087 3.01 2.581 3.478a8.178 8.178 0 002.393 4.841 8.398 8.398 0 005.934 2.424c4.31 0 7.87-3.224 8.337-7.356 1.365-.543 2.33-1.873 2.33-3.387V46.362c0-1.1.528-2.145 1.411-2.798a20.376 20.376 0 005.948-6.943 19.617 19.617 0 002.23-9.138c0-5.708-2.474-11.168-6.788-14.978zM31.829 32.143a8.084 8.084 0 007.192 0v16.15h-7.192v-16.15zm.29-2.588l3.306-6.523 3.306 6.523a5.657 5.657 0 01-6.612 0z"/><path stroke="#fff" stroke-width="5" d="M49.108 45.575a22.876 22.876 0 006.68-7.8h.001a22.117 22.117 0 002.512-10.292c0-6.432-2.787-12.571-7.633-16.852l-1.56 34.944zm0 0a.99.99 0 00-.396.787v10.817c0 2.05-1.027 3.867-2.579 4.982-1.151 4.753-5.477 8.26-10.588 8.26a10.898 10.898 0 01-7.689-3.142l-.001-.002a10.701 10.701 0 01-2.85-4.915c-1.712-1.086-2.868-2.99-2.868-5.183V46.362c0-.299-.15-.605-.409-.797a22.714 22.714 0 01-7.388-9.314h0c-1.657-3.874-2.172-8.154-1.507-12.372l36.275 21.696zm-7.69-.511V29.849c0-.043-.003-.086-.008-.128 0-.01-.002-.018-.004-.027l-.001-.01a1.21 1.21 0 00-.016-.09l-.01-.04a.955.955 0 00-.027-.087c-.003-.012-.008-.024-.012-.035a1.14 1.14 0 00-.041-.095l-.005-.01a.07.07 0 00-.003-.008l-.009-.018-.002-.004-4.783-9.437a1.201 1.201 0 00-1.072-.654 1.2 1.2 0 00-1.072.654l-4.783 9.437-.003.004-.009.018-.008.018a1.338 1.338 0 00-.04.095l-.007.016-.006.019a.955.955 0 00-.026.087l-.01.04a1.21 1.21 0 00-.016.09l-.002.01-.003.027a1.162 1.162 0 00-.008.128v2.294M33.368 9.86c5.198-.568 10.187.998 14.046 4.407l.024.022m4.023 21.236c-1.23 2.377-3.015 4.478-5.274 6.147m4.48-31.04a22.8 22.8 0 00-8.093-4.622l8.094 4.622zM42.574 6.01a23.19 23.19 0 00-9.741-.985h0c-4.89.534-9.563 2.706-13.183 6.11L42.573 6.01zM36.52 45.794h-2.192V35.429a10.619 10.619 0 002.192 0v10.365zm-16.872-34.66c-3.627 3.41-6.056 7.926-6.816 12.745l6.816-12.745z"/></g><path fill="#BBDEFB" d="M46.905 42.618c4.669-3.448 7.698-8.938 7.698-15.135 0-8.646-5.881-15.936-13.912-18.194-7.005 1.99-12.516 7.927-13.656 15.161-1.169 7.41 2.035 14.158 7.448 18.16a4.664 4.664 0 011.9 3.752v3.114h8.63v-3.114c0-1.474.697-2.862 1.892-3.744z"/><path fill="#CFD8DC" d="M34.807 59.645h.019a7.03 7.03 0 002.106 5.017 7.21 7.21 0 001.85 1.318c2.345-1.169 3.954-3.566 3.954-6.336v-.01c1.276-.109 2.278-1.167 2.278-2.455v-7.703H32.309v7.703c0 1.361 1.12 2.465 2.498 2.465z"/><path fill="#fff" d="M40.22 34.577v14.9h-9.59v-19.63c2.649 2.612 6.942 2.612 9.59 0v4.73z"/><path fill="#2979FF" d="M40.22 29.848a6.82 6.82 0 01-5.394 1.932v17.696h5.394V29.848z"/><path fill="#fff" d="M35.425 20.389l4.795 9.46c-2.648 2.611-6.941 2.611-9.59 0l4.795-9.46z"/><path fill="#263238" d="M49.013 12.505A20.3 20.3 0 0041.8 8.387a20.69 20.69 0 00-8.697-.878c-4.34.474-8.51 2.408-11.742 5.447-3.237 3.043-5.39 7.06-6.06 11.313-.593 3.764-.131 7.567 1.336 10.999a20.215 20.215 0 006.578 8.288 3.508 3.508 0 011.421 2.806v10.817c0 1.628 1.087 3.01 2.581 3.478a8.178 8.178 0 002.393 4.841 8.398 8.398 0 005.934 2.423c4.31 0 7.87-3.223 8.337-7.356 1.365-.542 2.33-1.872 2.33-3.386V46.361c0-1.099.528-2.144 1.411-2.797a20.376 20.376 0 005.948-6.943 19.617 19.617 0 002.23-9.138c0-5.708-2.474-11.168-6.788-14.978zM31.829 32.143a8.085 8.085 0 007.192 0v16.15h-7.192v-16.15zm.29-2.588l3.306-6.523 3.306 6.523a5.657 5.657 0 01-6.612 0zM30.63 50.658h13.185v2.72h-16.78v-2.72h3.595zm-3.596 5.085h16.78v1.436c0 .66-.519 1.22-1.182 1.277l-.014.002c-.035.003-.068.004 2.053.004H30.492c-2.874 0-3.458-.575-3.458-1.283v-1.436zm8.51 9.814a6 6 0 01-4.237-1.731 5.853 5.853 0 01-1.636-3h11.746c-.557 2.697-2.978 4.73-5.872 4.73zM46.188 41.67a5.855 5.855 0 00-2.372 4.69v1.933h-2.398V29.849c0-.043-.002-.086-.007-.128l-.005-.036a1.445 1.445 0 00-.016-.091l-.01-.04a.955.955 0 00-.027-.087c-.003-.012-.008-.024-.012-.035a1.126 1.126 0 00-.041-.095l-.008-.018-.009-.018-.002-.004-4.783-9.437a1.201 1.201 0 00-1.072-.654 1.2 1.2 0 00-1.072.654l-4.783 9.437-.003.004-.009.018-.008.018a1.318 1.318 0 00-.04.095.955.955 0 00-.065.253c-.002.012-.005.024-.005.036a1.159 1.159 0 00-.008.128v18.445h-2.397v-1.932c0-1.84-.89-3.595-2.381-4.698a17.687 17.687 0 01-6.982-17.032c1.213-7.699 7.815-13.912 15.696-14.773 5.198-.568 10.187.998 14.046 4.407 3.807 3.363 5.99 8.18 5.99 13.217 0 5.63-2.63 10.801-7.217 14.188z"/><path fill="#263238" d="M45.815 16.027a1.21 1.21 0 00-1.693.092c-.441.486-.4 1.234.093 1.67a12.95 12.95 0 014.394 9.694 1.19 1.19 0 001.2 1.183 1.19 1.19 0 001.198-1.183c0-4.365-1.893-8.54-5.192-11.456zM11.692 27.483a1.19 1.19 0 00-1.198-1.182H4.98a1.19 1.19 0 00-1.199 1.182 1.19 1.19 0 001.199 1.183h5.514a1.19 1.19 0 001.198-1.183zM65.87 26.3h-5.514a1.19 1.19 0 00-1.199 1.183 1.19 1.19 0 001.199 1.183h5.513a1.19 1.19 0 001.199-1.183 1.19 1.19 0 00-1.199-1.182zM15.101 41.025l-3.928 2.713a1.172 1.172 0 00-.294 1.646 1.208 1.208 0 001.669.291l3.928-2.712a1.173 1.173 0 00.294-1.648 1.21 1.21 0 00-1.669-.29zm39.962-26.87c.237 0 .477-.07.686-.214l3.928-2.712a1.173 1.173 0 00.295-1.647 1.21 1.21 0 00-1.67-.29l-3.927 2.712a1.172 1.172 0 00-.295 1.647 1.2 1.2 0 00.983.504zm-43.89-2.926l3.928 2.712c.21.145.45.214.687.214.378 0 .75-.175.982-.504a1.172 1.172 0 00-.294-1.647l-3.928-2.713a1.209 1.209 0 00-1.67.291 1.172 1.172 0 00.295 1.647zM7.246 46.45a1.173 1.173 0 00-.294 1.647 1.208 1.208 0 001.67.29 1.17 1.17 0 00.294-1.646 1.208 1.208 0 00-1.67-.29zm52.431-2.712l-3.928-2.713a1.21 1.21 0 00-1.67.29 1.172 1.172 0 00.296 1.648l3.927 2.712a1.213 1.213 0 001.67-.291 1.172 1.172 0 00-.295-1.646zM7.246 8.635a1.21 1.21 0 001.67-.291 1.17 1.17 0 00-.295-1.647 1.208 1.208 0 00-1.669.29 1.173 1.173 0 00.294 1.648zm56.358 0a1.173 1.173 0 00.294-1.648 1.208 1.208 0 00-1.668-.29 1.17 1.17 0 00-.295 1.647 1.21 1.21 0 001.67.29zm0 37.815a1.208 1.208 0 00-1.67.291 1.17 1.17 0 00.296 1.646c.541.375 1.29.245 1.668-.29a1.172 1.172 0 00-.294-1.647z"/><defs><filter id="filter0_ddd" width="56.75" height="76.541" x="7.051" y=".381" color-interpolation-filters="sRGB" filterUnits="userSpaceOnUse"><feFlood flood-opacity="0" result="BackgroundImageFix"/><feColorMatrix in="SourceAlpha" result="hardAlpha" values="0 0 0 0 0 0 0 0 0 0 0 0 0 0 0 0 0 0 127 0"/><feOffset dy="1"/><feGaussianBlur stdDeviation="1.5"/><feColorMatrix values="0 0 0 0 0.14902 0 0 0 0 0.196078 0 0 0 0 0.219608 0 0 0 0.08 0"/><feBlend in2="BackgroundImageFix" result="effect1_dropShadow"/><feColorMatrix in="SourceAlpha" result="hardAlpha" values="0 0 0 0 0 0 0 0 0 0 0 0 0 0 0 0 0 0 127 0"/><feOffset dy="2"/><feGaussianBlur stdDeviation=".5"/><feColorMatrix values="0 0 0 0 0.14902 0 0 0 0 0.196078 0 0 0 0 0.219608 0 0 0 0.04 0"/><feBlend in2="effect1_dropShadow" result="effect2_dropShadow"/><feColorMatrix in="SourceAlpha" result="hardAlpha" values="0 0 0 0 0 0 0 0 0 0 0 0 0 0 0 0 0 0 127 0"/><feOffset dy="1"/><feGaussianBlur stdDeviation=".5"/><feColorMatrix values="0 0 0 0 0.14902 0 0 0 0 0.196078 0 0 0 0 0.219608 0 0 0 0.04 0"/><feBlend in2="effect2_dropShadow" result="effect3_dropShadow"/><feBlend in="SourceGraphic" in2="effect3_dropShadow" result="shape"/></filter></defs></svg>