<svg xmlns="http://www.w3.org/2000/svg" width="320" height="301" fill="none"><path fill="#448AFF" fill-rule="evenodd" d="M278.332 118.719c-12.198-23.848-7.172-58.03-30.308-72.183-23.155-14.165-52.687 1.558-79.801 4.824-27.576 3.321-57.571-1.64-79.961 14.42-23.673 16.979-35.626 45.191-42.145 73.159-6.76 29.007-11.158 61.61 4.827 86.943 15.555 24.653 46.727 36.018 75.93 41.043 23.958 4.122 44.952-15.15 69.259-16.062 28.85-1.082 58.287 23.441 83.835 10.318 25.902-13.304 40.355-45.36 40.027-73.939-.313-27.224-29.203-44.163-41.663-68.523z" clip-rule="evenodd"/><path fill="#263238" d="M134.071 216.756a.441.441 0 01.501-.367c.243.033.412.25.378.486a5.92 5.92 0 00.237 2.691.427.427 0 01-.288.54.445.445 0 01-.557-.278 6.756 6.756 0 01-.271-3.072zm164.643-6.696a.441.441 0 00-.501-.366.433.433 0 00-.378.485c.13.899.048 1.827-.237 2.691a.429.429 0 00.288.541.446.446 0 00.557-.279 6.754 6.754 0 00.271-3.072zM126.19 157.452a.44.44 0 01.5-.366c.243.033.412.25.378.485a5.924 5.924 0 00.237 2.692.427.427 0 01-.287.54.447.447 0 01-.558-.279 6.753 6.753 0 01-.27-3.072zm180.411-6.695a.442.442 0 00-.501-.366.432.432 0 00-.378.485c.13.899.048 1.827-.237 2.691a.428.428 0 00.288.541.447.447 0 00.557-.279 6.768 6.768 0 00.271-3.072zM135.237 279.388a.426.426 0 01.248-.558.447.447 0 01.576.24 9.559 9.559 0 001.792 2.818.422.422 0 01-.037.608.453.453 0 01-.626-.036 10.407 10.407 0 01-1.953-3.072zm162.311-6.695a.427.427 0 00-.248-.559.448.448 0 00-.576.24 9.563 9.563 0 01-1.792 2.819.42.42 0 00.037.607.453.453 0 00.626-.035 10.42 10.42 0 001.953-3.072zm-68.972-5.703a.426.426 0 00-.248-.559.448.448 0 00-.576.24 9.543 9.543 0 01-1.792 2.819.42.42 0 00.037.607.452.452 0 00.626-.036 10.402 10.402 0 001.953-3.071zm34.502-23.912a.426.426 0 00-.248-.559.448.448 0 00-.576.24 9.556 9.556 0 01-1.792 2.819.42.42 0 00.037.607.452.452 0 00.626-.036 10.415 10.415 0 001.953-3.071z"/><path fill="#2979FF" fill-rule="evenodd" d="M266.958 151.634c1.474 1.43 3.863 1.43 5.337 0a3.586 3.586 0 000-5.179c-1.474-1.43-3.863-1.43-5.337 0a3.587 3.587 0 000 5.179z" clip-rule="evenodd"/><path fill="#21DA4B" fill-rule="evenodd" d="M270.747 299.397c1.634 1.756 4.284 1.756 5.919 0 1.634-1.755 1.634-4.601 0-6.357-1.635-1.755-4.285-1.755-5.919 0-1.635 1.756-1.635 4.602 0 6.357z" clip-rule="evenodd"/><path fill="#fff" fill-rule="evenodd" d="M4.649 29.276c42.874 3.427 35.6-8.604 35.95 35.666l-36.507.556c-.178-12.207.062-24.256.557-36.222z" clip-rule="evenodd"/><path fill="#000" fill-rule="evenodd" d="M39.827 64.178l-34.968.533c-.143-10.822.035-22.158.537-34.6 8.778.672 15.479.7 20.409.72 6.986.027 10.836.043 12.571 1.827 1.925 1.98 1.822 6.653 1.618 15.964-.092 4.155-.205 9.286-.167 15.556zm-35.73 2.094h.012l36.508-.556a.774.774 0 00.762-.781c-.052-6.598.066-11.966.161-16.28.22-10.047.322-14.633-2.056-17.078-2.188-2.25-6.027-2.266-13.676-2.297-5.053-.02-11.975-.048-21.092-.777a.772.772 0 00-.831.74c-.542 13.087-.727 24.95-.561 36.266a.782.782 0 00.236.544.77.77 0 00.537.22z" clip-rule="evenodd"/><path fill="#fff" fill-rule="evenodd" d="M31.933 32.614c.222-5.68.504-11.36.827-17.04.46-7.13 9.502-6.564 9.113.533a846.397 846.397 0 00-.952 20.66" clip-rule="evenodd"/><path fill="#000" fill-rule="evenodd" d="M40.914 37.543c.416 0 .759-.33.773-.749.219-6.571.538-13.516.95-20.642.22-4.007-2.331-6.262-4.966-6.42-3.475-.208-5.494 2.757-5.69 5.793a955.138 955.138 0 00-.829 17.059.774.774 0 101.546.06c.211-5.389.482-10.958.827-17.024.203-3.135 2.243-4.45 4.054-4.34 1.813.108 3.686 1.652 3.514 4.785a852.737 852.737 0 00-.952 20.677.774.774 0 00.747.8l.026.001z" clip-rule="evenodd"/><path fill="#fff" fill-rule="evenodd" d="M31.925 32.614c.223-5.68.505-11.36.828-17.04.184-3.013-1.704-5.588-4.22-5.751-2.514-.163-4.706 2.174-4.892 5.22a944.336 944.336 0 00-.835 17.22" clip-rule="evenodd"/><path fill="#000" fill-rule="evenodd" d="M31.932 33.389a.774.774 0 00.772-.745c.211-5.39.482-10.958.827-17.025.21-3.43-2.008-6.378-4.942-6.569-1.269-.082-2.521.369-3.542 1.269-1.268 1.12-2.061 2.825-2.173 4.677a962.913 962.913 0 00-.835 17.236.77.77 0 00.742.805.777.777 0 00.804-.744 924.69 924.69 0 01.835-17.205c.085-1.442.689-2.757 1.651-3.606.716-.635 1.555-.941 2.417-.885 2.087.135 3.656 2.347 3.5 4.931a957.008 957.008 0 00-.83 17.056.775.775 0 00.774.805z" clip-rule="evenodd"/><path fill="#fff" fill-rule="evenodd" d="M22.814 32.263c.225-5.746.507-11.485.835-17.22.186-3.04-1.7-5.638-4.218-5.801-2.513-.164-4.706 2.196-4.895 5.27a996.086 996.086 0 00-.843 17.4" clip-rule="evenodd"/><path fill="#000" fill-rule="evenodd" d="M22.811 33.037a.777.777 0 00.774-.744 958.7 958.7 0 01.835-17.205c.209-3.458-2.007-6.43-4.942-6.62-1.256-.082-2.509.368-3.526 1.266-1.276 1.13-2.076 2.854-2.188 4.73a952.65 952.65 0 00-.847 17.417.774.774 0 101.547.06c.212-5.514.49-11.201.842-17.385.09-1.466.696-2.801 1.67-3.66.716-.632 1.547-.938 2.402-.881 2.088.135 3.654 2.37 3.495 4.981a963.847 963.847 0 00-.835 17.236.774.774 0 00.742.805h.031z" clip-rule="evenodd"/><path fill="#fff" fill-rule="evenodd" d="M36.635 64.241c11.518.597 14.6-4.197 13.81-15.1.69-7.578-.091-15.355-9.492-16.18-1.382 2.683-2.776 5.382-4.13 8.092" clip-rule="evenodd"/><path fill="#fff" fill-rule="evenodd" d="M40.616 64.942c4.037-.062 9.216-.201 9.216-.201-.156-4.27-.164-11.175-.084-15.608.643-7.141.041-15.459-8.692-16.167-.094 2.733-.2 5.467-.265 8.196" clip-rule="evenodd"/><path fill="#000" fill-rule="evenodd" d="M40.61 65.716h.012c3.996-.06 9.173-.2 9.225-.2a.773.773 0 00.752-.803c-.158-4.333-.161-11.231-.084-15.538.373-4.16.507-10.1-2.572-13.761-1.596-1.9-3.895-2.982-6.83-3.22a.774.774 0 00-.836.745l-.064 1.841c-.074 2.086-.15 4.243-.2 6.363a.774.774 0 101.546.037c.05-2.11.126-4.263.2-6.345l.035-1.006c2.142.314 3.772 1.163 4.966 2.583 2.066 2.456 2.768 6.476 2.212 12.651a.695.695 0 00-.003.056c-.073 4.075-.075 10.486.059 14.868-1.6.04-5.364.133-8.43.18a.775.775 0 00.012 1.55z" clip-rule="evenodd"/><path fill="#fff" fill-rule="evenodd" d="M40.749 42.252c.074-3.069.182-6.143.291-9.217.316-7.049 9.367-6.65 9.121.35a663.673 663.673 0 00-.477 20.306" clip-rule="evenodd"/><path fill="#000" fill-rule="evenodd" d="M49.69 54.467c.425 0 .77-.343.774-.77.047-6.47.203-13.105.476-20.282.14-3.962-2.458-6.141-5.096-6.247-3.474-.143-5.436 2.828-5.57 5.832a808.082 808.082 0 00-.292 9.234.774.774 0 00.754.794.784.784 0 00.792-.756c.073-3.001.175-5.946.29-9.21.14-3.087 2.15-4.419 3.964-4.346 1.816.073 3.721 1.557 3.612 4.643-.273 7.19-.43 13.84-.477 20.327a.774.774 0 00.768.78h.006z" clip-rule="evenodd"/><path fill="#fff" fill-rule="evenodd" d="M13.695 31.912c-.626-5.28 3.67-18.308-3.61-19.314-7.483.216-4.486 13.724-5.51 18.962" clip-rule="evenodd"/><path fill="#000" fill-rule="evenodd" d="M13.69 32.687a.771.771 0 00.766-.866c-.167-1.42.053-3.534.285-5.774.619-5.967 1.388-13.394-4.559-14.215a.812.812 0 00-.127-.007c-6.18.178-6.094 7.831-6.025 13.98.024 2.181.047 4.241-.22 5.607a.772.772 0 101.516.298c.298-1.522.274-3.66.251-5.922-.077-6.923.205-12.236 4.458-12.412 4.072.615 3.863 5.801 3.167 12.511-.24 2.328-.468 4.526-.282 6.117a.776.776 0 00.77.683zM54.497 64c.427 17.818.959 35.363 5.931 52.082 12.008-9.678 21.503-22.39 30.527-35.062 6.697-9.937 22.202-16.473 33.566-16.343 9.718.112 13.452 16.992 15.302 26.798 1.532 6.857.262 14.436-4.197 20.826-7.459 10.652-15.221 20.791-24.195 30.525-15.517 16.827-36.78 34.066-61.11 30.923C2.66 165.76 1.186 102.732 0 64.741l54.497-.74z" clip-rule="evenodd"/><g fill-rule="evenodd" clip-rule="evenodd"><path fill="#2979FF" d="M96.802 190.422c-.394 4.232 2.929 7.886 7.171 7.886h114.351a7.46 7.46 0 007.39-6.482l-5.919-103.721c1.654-12.428-7.997-23.471-20.511-23.471h-74.79c-16.214.12-28.993 14.657-27.656 30.82l-.036 94.968z"/><path fill="#2979FF" d="M130.463 64.634c9.363-39.504 78.977-11.577 33.77 21.397-.811.66-1.99.596-2.729-.145l-5.362-5.371-5.343-5.354c-2.559 2.491-7.821 7.61-10.397 10.119-3.942 4.072-10.257-15.62-9.939-20.646z"/><path fill="#2979FF" d="M152.753 88.715l5.491-5.501-7.639-7.653-7.639 7.653 5.506 5.516-5.363 16.297-12.644-40.393h48.76l-24.345 40.672c-.007-.028-2.115-16.566-2.127-16.591z"/><path fill="#000" d="M142.054 154.41l6.425-65.68-5.507-5.517 7.639-7.653 7.639 7.653-5.491 5.501c.008-.007 8.795 65.97 8.799 65.976-11.442 13.967-9.106 16.326-19.504-.28z"/><path fill="#000" d="M162.564 86.849c.682 0 1.494-.249 2.432-.744 5.849-3.088 15.737-15.372 14.803-21.557a.581.581 0 10-1.147.174c.373 2.472-1.381 6.64-4.694 11.149-3.007 4.093-6.826 7.792-9.503 9.206-.708.373-1.98.92-2.552.386l-5.96-5.971-4.731-4.74a.579.579 0 00-.814-.007l-10.397 10.12c-.387.398-.737.479-1.182.281-3.353-1.486-8.056-16.01-7.774-20.474a.581.581 0 00-.542-.617.582.582 0 00-.616.543c-.286 4.53 4.432 19.824 8.462 21.611.887.394 1.765.207 2.472-.523l9.975-9.708 4.327 4.335 5.974 5.986c.392.367.882.55 1.467.55zm-25.353 15.478c-.134 3.619-.035 6.855.054 9.729.195 6.316.335 10.88-2.301 13.424-2.55 2.462-7.718 3.233-17.276 2.58l-.03-.001c-2.499-.043-4.377-.774-5.741-2.234-3.284-3.514-2.941-10.554-2.638-16.766.121-2.479.236-4.834.093-6.732h27.839zm-13.813 27.112c6.343 0 10.164-.992 12.371-3.122 3.006-2.902 2.859-7.682 2.655-14.297-.093-3.013-.198-6.427-.03-10.248l.027-.607h-30.339l.076.648c.22 1.9.095 4.469-.038 7.189-.314 6.442-.669 13.744 2.95 17.617 1.565 1.676 3.771 2.551 6.553 2.601 2.125.145 4.044.219 5.775.219z"/></g><g fill-rule="evenodd" clip-rule="evenodd"><path fill="#000" d="M149.347 194.562h-1.16v-31.807h1.16v31.807z"/><path fill="#fff" d="M106.957 209.939h43.555c4.54 0 8.22-3.687 8.22-8.236V148.9c0-4.548-3.68-8.235-8.22-8.235h-43.555c-4.54 0-8.22 3.687-8.22 8.235v52.803c0 4.549 3.68 8.236 8.22 8.236z"/><path fill="#000" d="M150.519 141.439c4.106 0 7.447 3.347 7.447 7.461v52.803c0 4.114-3.341 7.461-7.447 7.461h-43.555c-4.107 0-7.447-3.347-7.447-7.461V148.9c0-4.114 3.34-7.461 7.447-7.461h43.555zm-43.555 69.275h43.555c4.959 0 8.994-4.042 8.994-9.011V148.9c0-4.968-4.035-9.01-8.994-9.01h-43.555c-4.96 0-8.994 4.042-8.994 9.01v52.803c0 4.969 4.034 9.011 8.994 9.011z"/><path fill="#fff" d="M145.078 146.939a2.983 2.983 0 002.981-2.986c-.258-2.514 1.254-8.861-2.981-8.76a2.982 2.982 0 00-2.98 2.986c.258 2.513-1.254 8.86 2.98 8.76z"/><path fill="#000" d="M147.292 143.988a2.212 2.212 0 01-2.207 2.177h-.019c-.633.016-1.093-.142-1.423-.479-.959-.98-.858-3.369-.776-5.289.035-.839.069-1.633.01-2.253.009-.578.238-1.12.647-1.529a2.193 2.193 0 011.56-.648h.001c.645-.015 1.111.142 1.441.479.959.98.858 3.369.777 5.289-.036.839-.07 1.633-.011 2.253zm-2.305 3.727l.107-.001a3.761 3.761 0 003.745-3.761l-.004-.079c-.053-.515-.021-1.272.013-2.073.094-2.219.211-4.981-1.218-6.44-.638-.651-1.495-.966-2.564-.943h-.001c-.984 0-1.926.391-2.635 1.101a3.741 3.741 0 00-1.099 2.66l.003.079c.053.515.021 1.272-.013 2.073-.094 2.219-.211 4.981 1.218 6.44.614.627 1.437.944 2.448.944z"/><path fill="#fff" d="M134.184 146.939a2.984 2.984 0 002.981-2.986c-.259-2.514 1.254-8.861-2.981-8.76a2.982 2.982 0 00-2.981 2.986c.258 2.513-1.254 8.86 2.981 8.76z"/><path fill="#000" d="M136.383 143.988a2.213 2.213 0 01-2.208 2.177h-.018c-.629.016-1.093-.142-1.423-.479-.96-.98-.858-3.369-.777-5.289.036-.839.07-1.633.011-2.253a2.2 2.2 0 01.646-1.529 2.194 2.194 0 011.561-.648c.648-.015 1.112.142 1.442.479.959.98.858 3.369.776 5.289-.035.839-.069 1.633-.01 2.253zm-2.306 3.727l.107-.001a3.761 3.761 0 003.745-3.761l-.003-.079c-.053-.515-.021-1.272.013-2.073.094-2.219.211-4.981-1.218-6.44-.638-.651-1.496-.965-2.564-.943h-.001c-.985 0-1.927.391-2.636 1.101a3.741 3.741 0 00-1.099 2.66l.004.079c.053.515.021 1.272-.013 2.073-.094 2.219-.211 4.981 1.218 6.44.614.627 1.437.944 2.447.944z"/><path fill="#fff" d="M123.295 146.939a2.983 2.983 0 002.981-2.986c-.258-2.514 1.254-8.861-2.981-8.76a2.983 2.983 0 00-2.981 2.986c.259 2.513-1.254 8.86 2.981 8.76z"/><path fill="#000" d="M125.504 143.988a2.212 2.212 0 01-2.207 2.177h-.019c-.633.016-1.093-.142-1.423-.479-.959-.98-.858-3.369-.777-5.289.036-.839.069-1.633.011-2.253.009-.578.237-1.12.646-1.529a2.196 2.196 0 011.561-.648c.645-.015 1.111.142 1.442.479.959.98.858 3.369.776 5.289-.035.839-.069 1.633-.01 2.253zm-2.305 3.727l.106-.001a3.761 3.761 0 003.746-3.761l-.004-.079c-.053-.515-.021-1.272.013-2.073.094-2.219.211-4.981-1.218-6.44-.638-.651-1.496-.965-2.564-.943h-.001c-.984 0-1.927.391-2.635 1.101a3.742 3.742 0 00-1.1 2.66l.004.079c.053.515.021 1.272-.013 2.073-.094 2.219-.211 4.981 1.218 6.44.614.627 1.437.944 2.448.944z"/><path fill="#fff" d="M112.403 146.939a2.983 2.983 0 002.98-2.986c-.258-2.514 1.254-8.861-2.98-8.76a2.982 2.982 0 00-2.981 2.986c.258 2.513-1.254 8.86 2.981 8.76z"/><path fill="#000" d="M114.609 143.988a2.213 2.213 0 01-2.208 2.177h-.018c-.632.016-1.093-.142-1.423-.479-.96-.98-.858-3.369-.777-5.289.035-.839.069-1.633.011-2.253.008-.578.237-1.12.646-1.529a2.194 2.194 0 011.561-.648c.646-.015 1.111.142 1.442.479.959.98.858 3.369.776 5.289-.035.839-.069 1.633-.01 2.253zm-2.306 3.727l.107-.001a3.761 3.761 0 003.745-3.761l-.004-.079c-.053-.515-.021-1.272.013-2.073.094-2.219.212-4.981-1.218-6.44-.637-.651-1.496-.966-2.563-.943h-.002c-.984 0-1.926.391-2.635 1.101a3.741 3.741 0 00-1.099 2.66l.004.079c.053.515.021 1.272-.013 2.073-.095 2.219-.211 4.981 1.218 6.44.614.627 1.437.944 2.447.944z"/><path fill="#fff" d="M138.506 200.59c1.192-42.864-10.476-34.963 33.375-38.128l3.232 36.436c-12.385 1.101-24.543 1.555-36.607 1.692z"/><path fill="#000" d="M174.28 198.195c-10.758.934-21.917 1.449-34.974 1.612.216-8.848-.114-15.549-.357-20.48-.34-6.914-.528-10.723 1.146-12.562 1.867-2.051 6.536-2.252 15.838-2.652 4.081-.176 9.122-.392 15.251-.824l3.096 34.906zm-35.768 3.171h.008c13.76-.156 25.411-.695 36.667-1.695a.779.779 0 00.703-.841l-3.232-36.436a.775.775 0 00-.826-.704c-6.451.466-11.727.692-15.966.875-10.034.431-14.614.628-16.914 3.156-2.107 2.316-1.92 6.114-1.548 13.682.249 5.055.59 11.978.335 21.166a.773.773 0 00.773.797z"/><path fill="#fff" d="M140.413 173.126c-5.662.081-11.33.094-17.001.023-7.118-.121-6.966-9.195.103-9.144 6.865.077 13.716.056 20.539-.091"/><path fill="#000" d="M130.925 173.97a663.5 663.5 0 009.505-.069.773.773 0 00.762-.786.77.77 0 00-.784-.764 638.37 638.37 0 01-16.98.023c-3.126-.053-4.527-2.03-4.505-3.845.022-1.811 1.452-3.75 4.538-3.75l.054.001c7.135.079 14.054.049 20.562-.092a.774.774 0 00-.034-1.549c-6.49.14-13.392.17-20.513.091-3.996-.04-6.122 2.634-6.154 5.28-.042 3.486 3.001 5.362 6.029 5.414 2.461.03 4.971.046 7.52.046z"/><path fill="#fff" d="M140.416 173.127c-5.662.081-11.329.093-17.001.023-3.007-.035-5.487 1.963-5.536 4.491-.05 2.522 2.383 4.617 5.434 4.653a647.47 647.47 0 0017.238-.023"/><path fill="#000" d="M130.918 183.116c3.166 0 6.386-.023 9.636-.07a.774.774 0 00.762-.786.765.765 0 00-.784-.763c-5.886.084-11.679.092-17.217.023-1.442-.017-2.781-.556-3.674-1.479-.669-.691-1.014-1.516-.997-2.385.041-2.087 2.16-3.75 4.754-3.731 5.471.068 11.197.06 17.021-.023a.773.773 0 00.762-.785.77.77 0 00-.784-.764 642.55 642.55 0 01-16.98.022c-3.435-.037-6.262 2.315-6.319 5.251-.025 1.272.484 2.513 1.432 3.494 1.178 1.217 2.915 1.928 4.766 1.949 2.494.031 5.04.047 7.622.047z"/><path fill="#fff" d="M140.546 182.27a647.47 647.47 0 01-17.238.023c-3.045-.036-5.552 1.962-5.602 4.49-.049 2.522 2.411 4.618 5.5 4.655 5.81.072 11.636.059 17.475-.025"/><path fill="#000" d="M130.925 192.259c3.21 0 6.477-.024 9.773-.071a.775.775 0 00.763-.786.766.766 0 00-.785-.763c-5.969.085-11.842.093-17.453.023-1.475-.017-2.84-.563-3.745-1.499-.666-.688-1.009-1.506-.992-2.365.041-2.088 2.214-3.748 4.82-3.731 5.552.069 11.358.062 17.257-.023a.774.774 0 00.763-.786.765.765 0 00-.784-.763 647.66 647.66 0 01-17.217.023c-3.463-.053-6.328 2.314-6.385 5.25-.025 1.263.482 2.497 1.428 3.473 1.19 1.231 2.953 1.949 4.836 1.971 2.525.031 5.105.047 7.721.047z"/><path fill="#fff" d="M171.493 166.484c.098-6.139-2.496-13.617-9.745-13.143-8.371.655-21.305-1.427-21.465 10.736a478.13 478.13 0 008.25 3.692"/><path fill="#fff" d="M171.885 162.462c-.358-4.029-.874-9.193-.874-9.193-7.197.757-14.222 1.106-21.354 1.346-5.218.176-9.442 4.315-9.381 9.367 2.713-.036 5.424-.095 8.132-.18"/><path fill="#000" d="M140.276 164.757h.01c2.736-.036 5.477-.097 8.146-.18a.775.775 0 00-.048-1.549c-2.396.075-4.85.131-7.306.168.363-4.221 4.065-7.653 8.605-7.807 6.026-.203 13.159-.513 20.635-1.27.157 1.594.524 5.351.796 8.412a.774.774 0 101.541-.137c-.354-3.988-.87-9.151-.875-9.203a.776.776 0 00-.851-.693c-7.708.811-15.092 1.134-21.298 1.342-5.65.191-10.193 4.746-10.129 10.152a.78.78 0 00.774.765z"/><path fill="#fff" d="M149.496 163.769c-3.041.099-6.09.17-9.145.212-6.995.068-7.067-9.005-.135-9.143 6.722-.101 13.408-.311 20.009-.697"/><path fill="#000" d="M140.281 164.757l.071-.001c3.063-.042 6.145-.114 9.163-.212a.774.774 0 00.747-.8.772.772 0 00-.797-.749c-3.009.098-6.081.17-9.131.212h-.072c-3.024 0-4.407-1.86-4.434-3.717-.028-1.825 1.337-3.817 4.396-3.878 7.339-.11 13.895-.338 20.039-.698a.774.774 0 00-.091-1.547c-6.121.359-12.655.586-19.974.696-3.937.079-5.956 2.801-5.917 5.45.051 3.452 3.045 5.244 6 5.244z"/><path fill="#fff" d="M140.685 191.415c-5.262.935-18.503-2.767-19.183 4.575.482 7.437 14.074 3.867 19.317 4.569"/><path fill="#000" d="M130.528 201.582c1.6 0 3.216-.097 4.696-.185 2.135-.129 4.151-.25 5.49-.07a.774.774 0 00.205-1.536c-1.487-.199-3.576-.074-5.787.059-7.081.425-12.53.41-12.857-3.849.429-4.091 5.598-4.143 12.307-3.785 2.38.127 4.628.247 6.235-.038a.774.774 0 00.626-.898.773.773 0 00-.896-.628c-1.432.254-3.593.139-5.883.017-5.962-.318-13.383-.715-13.935 5.25a.699.699 0 00-.002.121c.302 4.659 4.974 5.542 9.801 5.542zm39.409-52.933c13.986-1.417 28.283-2.857 41.123-8.583l-.007-.012.008.013-.008.004s-5.707-7.589-14.996-19.148c-9.289-11.558-21.79-22.447-14.618-42.916 3.054-8.718 9.384-12.326 17.115-12.857 4.551-.313 18.458-2.593 41.617 26.296s39.88 62.606 8.903 88.68c-20.822 16.689-48.806 20.339-74.441 22.924l-4.696-54.401z"/></g><path fill="#000" fill-rule="evenodd" d="M129.046 27.552h40.197v-7.839c0-10.493-8.49-19-18.963-19h-21.234v26.84z" clip-rule="evenodd"/><path fill="#fff" fill-rule="evenodd" d="M126.369 29.808a5.896 5.896 0 005.89 5.9 5.896 5.896 0 005.89-5.9 5.896 5.896 0 00-5.89-5.901 5.896 5.896 0 00-5.89 5.9z" clip-rule="evenodd"/><path fill="#000" fill-rule="evenodd" d="M132.245 24.681c2.821 0 5.117 2.3 5.117 5.127 0 2.826-2.296 5.126-5.117 5.126-2.822 0-5.117-2.3-5.117-5.126 0-2.827 2.295-5.127 5.117-5.127zm0 11.802c3.674 0 6.663-2.994 6.663-6.675 0-3.681-2.989-6.676-6.663-6.676-3.674 0-6.663 2.994-6.663 6.675 0 3.682 2.989 6.676 6.663 6.676z" clip-rule="evenodd"/><path fill="#fff" fill-rule="evenodd" d="M152.001 68.352c7.33 0 14.088-5.632 14.088-12.356l-6.229-23.113c0-6.724 1.791-12.175-5.539-12.175h-7.733c-7.33 0-5.539 5.451-5.539 12.175v23.294c0 6.724 3.622 12.175 10.952 12.175z" clip-rule="evenodd"/><path fill="#000" fill-rule="evenodd" d="M165.322 56.096c-.067 6.127-6.26 11.48-13.314 11.48-7.505 0-10.178-5.889-10.178-11.4V32.882c0-1.18-.054-2.303-.105-3.388-.142-2.985-.265-5.563.964-6.855.741-.779 2.019-1.157 3.906-1.157h7.733c1.887 0 3.165.378 3.906 1.157 1.229 1.292 1.107 3.87.965 6.855-.052 1.085-.106 2.208-.106 3.388v.103l6.229 23.11zm-13.314 13.03c7.917 0 14.861-6.137 14.861-13.131v-.103L160.64 32.78c.003-1.107.054-2.177.103-3.212.16-3.34.297-6.226-1.39-7.998-1.048-1.102-2.692-1.638-5.025-1.638h-7.733c-2.333 0-3.977.536-5.025 1.638-1.687 1.772-1.549 4.657-1.39 7.998.05 1.067.103 2.17.103 3.314v23.294c0 7.866 4.602 12.95 11.725 12.95z" clip-rule="evenodd"/><path fill="#fff" fill-rule="evenodd" d="M147.531 48.18a16.901 16.901 0 0015.527-10.224l.251-.583a16.854 16.854 0 00.196-12.962 16.813 16.813 0 00-9.009-9.304 16.774 16.774 0 00-6.698-1.393 16.901 16.901 0 00-15.527 10.224l-.251.583a16.854 16.854 0 00-.196 12.961 16.815 16.815 0 009.01 9.305 16.77 16.77 0 006.697 1.393z" clip-rule="evenodd"/><path fill="#000" fill-rule="evenodd" d="M147.789 12.94c2.414 0 4.771.49 7.004 1.456a17.581 17.581 0 019.422 9.73 17.626 17.626 0 01-.205 13.554l-.251.583a17.674 17.674 0 01-16.237 10.692 17.53 17.53 0 01-7.004-1.457c-8.948-3.873-13.083-14.319-9.217-23.284l.251-.583a17.674 17.674 0 0116.237-10.691zm0 1.549a16.135 16.135 0 00-14.817 9.756l-.251.583c-3.534 8.195.232 17.707 8.41 21.248a16.061 16.061 0 006.391 1.33 16.135 16.135 0 0014.817-9.757l.251-.583c3.534-8.195-.232-17.707-8.411-21.248a16.053 16.053 0 00-6.39-1.329z" clip-rule="evenodd"/><path fill="#fff" fill-rule="evenodd" d="M163.355 35.709a5.896 5.896 0 005.89-5.901 5.896 5.896 0 00-7.077-5.781" clip-rule="evenodd"/><path fill="#000" fill-rule="evenodd" d="M163.365 36.482c3.674 0 6.663-2.995 6.663-6.676s-2.989-6.676-6.663-6.676a6.7 6.7 0 00-1.342.136.776.776 0 00.31 1.518 5.154 5.154 0 011.032-.104c2.821 0 5.117 2.3 5.117 5.126 0 2.827-2.296 5.126-5.117 5.126a.774.774 0 000 1.55z" clip-rule="evenodd"/><path fill="#000" d="M159.584 25.506a5.418 5.418 0 01-5.413-5.423 5.418 5.418 0 015.413-5.423 5.419 5.419 0 015.413 5.423 5.419 5.419 0 01-5.413 5.424z"/><path fill="#000" d="M135.608 10.399h21.266v6.973h-21.266v-6.973z"/><path fill="#2979FF" fill-rule="evenodd" d="M145.223 36.351h-2.924c-.806 0-1.403-1.174-1.223-2.405l1.232-8.422c.285-1.954 2.035-2.064 2.419-.151l1.693 8.421c.254 1.267-.349 2.557-1.197 2.557z" clip-rule="evenodd"/><path fill="#000" fill-rule="evenodd" d="M131.721 22.795c-1.185 0-2.151.94-2.195 2.117l-.002.084v9.732c0 .17.019.337.055.496l.039.303c.501 3.615 3.363 18.28 16.87 18.28 14.175 0 16.626-15.549 16.928-18.036.024-.107.036-.219.036-.334v-10.44a2.199 2.199 0 00-2.196-2.202 2.199 2.199 0 00-2.197 2.201v8.733c0 2-1.372 4.81-3.525 7.314.304-2.358.263-4.907-.862-6.478-.735-1.028-1.849-1.57-3.22-1.57-2.384 0-3.813.562-4.93 1.093l-.801.39c-1.174.557-2.026.773-4.369-.304l-.143-.066c-2.689-1.262-4.321-1.453-5.458-.636-1.47 1.056-1.316 3.197-.992 6.154-.818-1.867-.904-3.51-.882-4.335.02-.1.033-.203.038-.308l.003-.106v-9.88a2.2 2.2 0 00-2.197-2.202zm8.375 13.358l.129.06c3.441 1.616 4.959 1.118 6.881.175l.189-.093c1.015-.495 2.116-.976 4.157-.976.802 0 1.135.32 1.335.6 1.023 1.429.569 5.022-.149 7.89-1.094.852-2.28 1.578-3.516 2.103l-2.574-2.58a2.014 2.014 0 00-2.851 0l-2.565 2.57c-1.522-.761-2.728-1.621-3.683-2.517a59.629 59.629 0 00-.255-2.853l-.166-1.512c-.154-1.485-.292-3.297.048-3.636l.032-.026c.06-.032.651-.284 2.988.795z" clip-rule="evenodd"/><path fill="#000" fill-rule="evenodd" d="M144.494 43.562c4.051 0 5.565-3.123 5.799-4.775a.773.773 0 00-.766-.884H139.46a.772.772 0 00-.765.884l.021.133c.294 1.68 1.833 4.642 5.778 4.642zm-6.367-15.625l2.643-2.12a1.7 1.7 0 00.635-1.325v-.18a1.515 1.515 0 00-2.925-.554l-.359.916-.36-.916a1.518 1.518 0 00-2.929.557v.175c0 .516.235 1.005.638 1.326l2.657 2.121zm-.006.491l.004.003v.004l.312-.25-.316.243zm.004.007l-.004.004-.004.002.003-.003.005-.003zm-.233-5.237c.092.128.17.269.229.418.058-.15.136-.29.228-.418h-.457zm.139 5.158l-.155-.218.007-.006h.001l.147.224zm0 0l.09.072-.09-.072zm13.243-.419l2.643-2.12c.402-.322.636-.81.636-1.325v-.18a1.516 1.516 0 00-2.925-.554l-.36.916-.36-.916a1.517 1.517 0 00-2.928.556v.176c0 .516.234 1.004.637 1.326l2.657 2.12zm-.005.491l.003.003v.003l.312-.25-.315.244zm.003.006v.001l-.004.003-.003.003.003-.003.004-.004zm-.233-5.237c.093.129.17.27.229.42a1.92 1.92 0 01.229-.42h-.458zm.139 5.159l-.155-.218.008-.006h.001l.146.224zm0 0l.091.072-.091-.072z" clip-rule="evenodd"/></svg>