<svg xmlns="http://www.w3.org/2000/svg" width="51" height="51" fill="none"><g clip-path="url(#clip0)"><g filter="url(#filter0_ddd)"><mask id="a" width="54.368" height="54.248" x="-1.767" y="-2.082" fill="#000" maskUnits="userSpaceOnUse"><path fill="#fff" d="M-1.767-2.082h54.368v54.248H-1.767z"/><path d="M38.361 32.622a.768.768 0 00-.036-.064c-.2-.355-.455-.626-.762-.802-2.233-1.282-3.586-4.767-4.022-10.358-.323-4.148-3.3-7.548-7.17-8.576.29-.448.458-.98.458-1.55A2.895 2.895 0 0023.93 8.39a2.885 2.885 0 00-2.892 2.877c0 .57.17 1.103.46 1.552-3.87 1.021-6.84 4.418-7.158 8.564-.427 5.59-1.775 9.074-4.006 10.353-.646.37-1.065 1.157-1.212 2.276-.096.727-.124 2.252.453 2.825a.83.83 0 00.584.242l8.824.006a5.047 5.047 0 004.972 4.192 5.028 5.028 0 004.967-4.184l8.823.006c.22 0 .43-.086.584-.24.577-.573.546-2.099.449-2.826-.074-.556-.216-1.03-.418-1.411zM23.933 10.035a1.24 1.24 0 011.242 1.235 1.241 1.241 0 01-2.483-.002c0-.68.556-1.234 1.24-1.233zm.022 29.597a3.393 3.393 0 01-3.284-2.546l6.564.005a3.38 3.38 0 01-3.28 2.541zM9.883 28.312c-.308-.335-1.559.741-1.895 1.048-.096.087-.195.175-.297.264a.819.819 0 00-.074 1.16.829.829 0 001.167.076c.11-.097.218-.192.322-.287.336-.306 1.086-1.926.777-2.261z"/><path d="M9.71 28.837a.826.826 0 001.15-.204c1.36-1.944 1.564-3.867 1.832-7.377a.825.825 0 00-.762-.883.823.823 0 00-.887.756c-.253 3.306-.424 4.967-1.54 6.564a.82.82 0 00.206 1.144zm30.477.797c-2.422-2.004-2.956-3.954-3.296-7.847a.827.827 0 00-1.647.14c.367 4.203 1.042 6.618 3.886 8.97a.827.827 0 001.165-.106.82.82 0 00-.108-1.157z"/></mask><path fill="#fff" d="M38.361 32.622a.768.768 0 00-.036-.064c-.2-.355-.455-.626-.762-.802-2.233-1.282-3.586-4.767-4.022-10.358-.323-4.148-3.3-7.548-7.17-8.576.29-.448.458-.98.458-1.55A2.895 2.895 0 0023.93 8.39a2.885 2.885 0 00-2.892 2.877c0 .57.17 1.103.46 1.552-3.87 1.021-6.84 4.418-7.158 8.564-.427 5.59-1.775 9.074-4.006 10.353-.646.37-1.065 1.157-1.212 2.276-.096.727-.124 2.252.453 2.825a.83.83 0 00.584.242l8.824.006a5.047 5.047 0 004.972 4.192 5.028 5.028 0 004.967-4.184l8.823.006c.22 0 .43-.086.584-.24.577-.573.546-2.099.449-2.826-.074-.556-.216-1.03-.418-1.411zM23.933 10.035a1.24 1.24 0 011.242 1.235 1.241 1.241 0 01-2.483-.002c0-.68.556-1.234 1.24-1.233zm.022 29.597a3.393 3.393 0 01-3.284-2.546l6.564.005a3.38 3.38 0 01-3.28 2.541zM9.883 28.312c-.308-.335-1.559.741-1.895 1.048-.096.087-.195.175-.297.264a.819.819 0 00-.074 1.16.829.829 0 001.167.076c.11-.097.218-.192.322-.287.336-.306 1.086-1.926.777-2.261z"/><path fill="#fff" d="M9.71 28.837a.826.826 0 001.15-.204c1.36-1.944 1.564-3.867 1.832-7.377a.825.825 0 00-.762-.883.823.823 0 00-.887.756c-.253 3.306-.424 4.967-1.54 6.564a.82.82 0 00.206 1.144zm30.477.797c-2.422-2.004-2.956-3.954-3.296-7.847a.827.827 0 00-1.647.14c.367 4.203 1.042 6.618 3.886 8.97a.827.827 0 001.165-.106.82.82 0 00-.108-1.157z"/><path fill="#fff" d="M37.148 35.454l-.006 2.499 2.211.001.277-2.191-2.482-.309zm-26.393-.02l-2.481.322.279 2.175 2.196.002.006-2.498zm-.006-1.096l-2.487-.262v.001l2.487.26zm21.143-12.816l-2.494.199 2.494-.199zm1.477 7.353l-.007 2.498 3.687.003-1.353-3.423-2.327.922zm-3.109-.003l-.006 2.498.006-2.498zm-.826.822l-2.502.006 2.502-.006zm.828.823l.006-2.499-.006 2.498zm3.9.002l2.158-1.268-.723-1.229h-1.428l-.006 2.497zm1.257 1.646l-.006 2.498 6.068.005-4.294-4.274-1.768 1.77zm-8.245-.007l.006-2.498-.006 2.498zm-.826.822l-2.502.006 2.502-.006zm.827.823L27.17 36.3l.006-2.498zm9.88.007l2.422-.632-.485-1.865-1.93-.001-.006 2.498zm.098.547l2.487-.273-2.487.273zm-2.179-14.564l-2.446.529 2.446-.529zm1.505-.818l2.424-.623-2.424.623zm-1.006-.595l.609 2.423-.609-2.423zm-.596 1l2.423-.624-2.423.623zm2.278 13.576l-26.393-.02-.013 4.997 26.393.02.013-4.997zm-23.918 2.157a2.353 2.353 0 010-.515l-4.975-.52a7.323 7.323 0 00.012 1.678l4.963-.643zm0-.514c.02-.186.047-.23.022-.168a1.27 1.27 0 01-.135.245 1.975 1.975 0 01-.212.258c-.092.096-.259.25-.505.392l-2.488-4.33a2.85 2.85 0 00-.928.87 3.71 3.71 0 00-.372.703 5.641 5.641 0 00-.357 1.507l4.975.523zM23.93 16.646c2.83.002 5.247 2.235 5.468 5.075l4.988-.397c-.423-5.425-4.995-9.67-10.444-9.675l-.012 4.997zm5.468 5.075c.246 3.148.767 5.858 1.644 8.075l4.654-1.843c-.629-1.59-1.086-3.762-1.31-6.63l-4.988.398zm3.977 4.655l-3.108-.002-.013 4.997 3.108.002.013-4.997zm-3.108-.002a3.329 3.329 0 00-3.335 3.326l5.004-.013c0 .94-.765 1.684-1.682 1.683l.013-4.996zM26.932 29.7a3.32 3.32 0 003.323 3.315l.013-4.997c.911 0 1.667.736 1.668 1.67l-5.004.012zm3.323 3.315l3.901.003.013-4.997-3.901-.003-.013 4.997zm1.75-1.227c.47.798 1.016 1.52 1.647 2.148l3.535-3.543a5.614 5.614 0 01-.867-1.142l-4.315 2.537zm3.42-2.122l-8.245-.006-.012 4.997 8.245.006.013-4.997zm-8.245-.006a3.328 3.328 0 00-3.334 3.326l5.003-.012a1.681 1.681 0 01-1.681 1.683l.012-4.997zm-3.334 3.326a3.32 3.32 0 003.323 3.315l.013-4.997a1.67 1.67 0 011.668 1.67l-5.004.012zm3.323 3.315l9.88.008.013-4.997-9.88-.008-.013 4.997zm7.465-1.858c.007.026.02.087.032.187l4.974-.546a6.29 6.29 0 00-.163-.906l-4.843 1.265zm.032.187c.024.226.013.42 0 .516l4.964.617a7.32 7.32 0 00.01-1.68l-4.974.547zm-2.138-14.308a3.323 3.323 0 003.248 2.62l.013-4.996c.765 0 1.46.527 1.63 1.318l-4.89 1.058zm6.51-1.398a15.192 15.192 0 00-.135-.572l-4.848 1.247c.033.125.063.254.09.38l4.892-1.055zm-.136-.573a3.326 3.326 0 00-4.037-2.393l1.217 4.844a1.668 1.668 0 01-2.026-1.203l4.846-1.248zm-4.037-2.393a3.323 3.323 0 00-2.412 4.045l4.847-1.248a1.682 1.682 0 01-1.218 2.048l-1.217-4.845zm-2.412 4.044c.027.106.052.213.075.32l4.892-1.058a13.23 13.23 0 00-.12-.508l-4.847 1.246zm5.908 12.62l-4.47 2.25.023.048.025.047 4.422-2.345zm-.036-.064l-4.36 2.46.06.105.066.104 4.234-2.67zm-.762-.802l-2.5 4.333 2.5-4.333zm-4.022-10.358l-4.988.396 4.988-.396zm-7.17-8.576l-4.202-2.704-3.73 5.77 6.64 1.763 1.293-4.829zm.458-1.55l-5.003.011 5.003-.012zM23.93 8.39l-.012 4.997.012-4.997zm-2.892 2.877l5.003-.013-5.003.013zm.46 1.552l1.27 4.83 6.674-1.762-3.74-5.785-4.205 2.717zm-7.158 8.564l-4.988-.372 4.988.372zm-4.006 10.353l2.485 4.332-2.485-4.332zm-1.212 2.276l-4.961-.642 4.96.642zm.453 2.825l3.532-3.545-3.532 3.545zm.584.242l-.012 4.996.012-4.996zm8.824.006l4.934-.833-.696-4.16-4.226-.004-.012 4.997zm4.972 4.192l-.012 4.996.012-4.996zm4.967-4.184l.012-4.997-4.252-.003-.696 4.19 4.936.81zm8.823.006l.013-4.997-.013 4.997zm.584-.24l3.526 3.539-3.526-3.54zm.449-2.826l4.96-.667v-.002l-4.96.67zM23.933 10.035l.012-4.997-.012 4.997zm1.242 1.235l5.003-.013-5.003.013zm-1.24 1.233l-.013 4.997.013-4.997zm-1.243-1.235l-5.003.012 5.003-.012zm-2.021 25.818l.012-4.996-6.447-.005 1.585 6.239 4.85-1.238zm6.564.005l4.851 1.215 1.569-6.207-6.407-.005-.013 4.997zm-17.352-8.78l3.684-3.387-3.684 3.388zM7.988 29.36l3.368 3.688-3.368-3.688zm-.297.264l-3.29-3.76v.001l3.29 3.759zm-.074 1.16l-3.754 3.31.001.002 3.753-3.312zm.622.28l.012-4.997-.012 4.997zm.545-.204l3.289 3.76v-.001l-3.29-3.76zm.322-.287l-3.368-3.69-.002.003 3.37 3.687zm.603-1.736l2.858-4.106-.003-.002-2.855 4.108zm.472.148l-.012 4.997.012-4.997zm.68-.352l4.098 2.858.001-.001-4.1-2.857zm1.831-7.377l-4.988-.372 4.988.372zm-.762-.883l.394-4.982-.394 4.982zm-.887.756l4.989.372-4.989-.372zm-1.54 6.564L13.6 30.55l.001-.002-4.1-2.856zm30.684 1.94l3.195-3.85-3.195 3.85zm-3.296-7.846l4.985-.443v-.001l-4.985.444zm-.895-.75l.415 4.98h.004l-.42-4.98zm-.752.89l4.984-.443v-.001l-4.984.444zm3.886 8.97l-3.195 3.85 3.195-3.85zm.528.19l-.012 4.997.012-4.997zm.637-.296l3.837 3.2.002-.002-3.84-3.198zm2.537-.42a5.723 5.723 0 00-.273-.482l-8.468 5.338a4.208 4.208 0 01-.2-.355l8.94-4.501zm-.147-.273c-.56-.99-1.406-1.977-2.623-2.675l-4.998 8.666a2.936 2.936 0 01-1.099-1.072l8.72-4.919zm-2.622-2.675c.231.133-.08.087-.52-1.044-.43-1.11-.816-2.85-1.014-5.379l-9.976.794c.239 3.063.747 5.86 1.66 8.212.905 2.33 2.386 4.668 4.85 6.083l5-8.666zm-1.534-6.422c-.493-6.324-5.008-11.453-10.864-13.008l-2.587 9.658c1.884.5 3.321 2.172 3.475 4.143l9.976-.793zm-7.955-5.474a7.844 7.844 0 001.258-4.269l-10.006.026c0-.428.128-.834.343-1.166l8.405 5.409zm1.258-4.268c-.003-4.362-3.556-7.862-7.888-7.865l-.025 9.993a2.094 2.094 0 01-2.093-2.104l10.006-.024zm-7.888-7.865c-4.345-.004-7.912 3.511-7.909 7.885l10.007-.025c0 1.2-.97 2.134-2.123 2.133l.025-9.993zm-7.909 7.885a7.837 7.837 0 001.259 4.256l8.409-5.433c.209.324.339.724.339 1.152l-10.007.025zm4.192-3.29c-5.87 1.55-10.39 6.69-10.874 13.022l9.977.744c.15-1.96 1.573-3.613 3.44-4.106l-2.543-9.66zM9.353 21.01c-.194 2.529-.578 4.266-1.005 5.371-.436 1.127-.742 1.161-.498 1.022l4.97 8.664c2.475-1.419 3.958-3.765 4.86-6.098.912-2.353 1.416-5.153 1.65-8.215l-9.977-.744zM7.85 27.403c-2.59 1.485-3.446 4.124-3.688 5.967l9.921 1.285c.017-.127.02.006-.125.279-.157.295-.503.77-1.138 1.134l-4.97-8.665zm-3.688 5.968a11.872 11.872 0 00-.045 2.605 8.63 8.63 0 00.375 1.842c.213.649.643 1.662 1.552 2.565l7.064-7.09c.62.615.837 1.223.896 1.402.071.219.077.336.073.294a1.582 1.582 0 01.002-.29l.004-.045-9.921-1.284zm1.881 7.011a5.828 5.828 0 004.105 1.693l.025-9.993c1.1 0 2.155.435 2.935 1.21l-7.065 7.09zm4.105 1.693l8.823.007.025-9.994-8.823-.006-.025 9.993zm3.901-4.157a10.037 10.037 0 009.895 8.355l.025-9.993-.013-.001-.003-.001a.08.08 0 01-.035-.03c-.002-.003 0 0 0 .004l-9.869 1.666zm9.895 8.355a10.04 10.04 0 009.915-8.371l-9.872-1.619a.06.06 0 01.005-.015l-.002.002a.04.04 0 01-.005.005l-.005.005h-.011l-.025 9.993zm4.966-4.184l8.823.007.026-9.994-8.824-.006-.025 9.993zm8.823.007a5.844 5.844 0 004.123-1.698l-7.052-7.078a4.187 4.187 0 012.955-1.218l-.026 9.994zm4.123-1.698c.915-.91 1.346-1.93 1.558-2.58a8.641 8.641 0 00.374-1.846 11.87 11.87 0 00-.05-2.606L33.82 34.7l.005.045a2.308 2.308 0 01.003.29c-.004.041.001-.077.073-.298.06-.18.278-.795.904-1.418l7.052 7.078zm1.882-7.034c-.131-.986-.41-2.06-.955-3.087l-8.844 4.69a1.55 1.55 0 01-.118-.278c-.013-.042-.009-.04-.002.013l9.92-1.337zM23.92 15.032a3.748 3.748 0 01-3.748-3.748l10.006-.026c-.002-3.454-2.812-6.217-6.233-6.22l-.025 9.994zm-3.748-3.748a3.774 3.774 0 013.775-3.776l-.025 9.993c3.433.003 6.259-2.775 6.256-6.243l-10.006.026zm3.775-3.776a3.748 3.748 0 013.749 3.748l-10.007.026c.003 3.454 2.812 6.216 6.233 6.219l.025-9.993zm3.749 3.749a3.774 3.774 0 01-3.776 3.775l.025-9.993c-3.433-.003-6.258 2.776-6.256 6.242l10.007-.024zm-3.729 23.38c.753 0 1.375.51 1.553 1.213l-9.699 2.475a8.384 8.384 0 008.121 6.305l.026-9.994zm-3.309 7.447l6.565.005.025-9.994-6.565-.005-.025 9.994zm1.726-6.206a1.633 1.633 0 011.584-1.242l-.026 9.994a8.394 8.394 0 008.144-6.323l-9.702-2.43zm-8.817-10.953a5.207 5.207 0 00-3.674-1.67 5.628 5.628 0 00-2.05.327 7.595 7.595 0 00-1.694.876c-.69.466-1.295 1-1.53 1.215l6.738 7.376a4.6 4.6 0 01.386-.315c.09-.06-.136.112-.578.269a4.405 4.405 0 01-1.604.24A4.787 4.787 0 016.2 31.7l7.366-6.776zm-8.948.747c-.065.06-.137.123-.217.194l6.579 7.518c.123-.108.25-.22.375-.335L4.62 25.671zm-.218.194a5.812 5.812 0 00-.538 8.229l7.508-6.62a4.175 4.175 0 01-.39 5.908l-6.58-7.517zm-.537 8.23a5.825 5.825 0 004.362 1.966l.025-9.994a4.17 4.17 0 013.118 1.405l-7.505 6.623zm4.362 1.966a5.841 5.841 0 003.847-1.441L5.495 27.1a4.19 4.19 0 012.756-1.033l-.025 9.994zm3.847-1.442c.134-.117.269-.237.403-.359l-6.74-7.374-.242.215 6.58 7.518zm.4-.356c.726-.661 1.164-1.442 1.299-1.68.229-.407.443-.858.62-1.31a8.394 8.394 0 00.49-1.74c.055-.347.118-.916.044-1.59a5.288 5.288 0 00-1.359-3.019L6.2 31.7a4.682 4.682 0 01-1.221-2.658 3.971 3.971 0 01.018-1.048c.047-.297.11-.431.084-.362a.388.388 0 01-.028.06c.003-.003.034-.06.1-.153.033-.048.23-.332.585-.656l6.735 7.38zm-5.621-1.319a5.827 5.827 0 003.316 1.038l.026-9.994a4.18 4.18 0 012.373.743l-5.715 8.213zm3.316 1.038a5.842 5.842 0 004.791-2.49l-8.198-5.717a4.189 4.189 0 013.433-1.787l-.026 9.994zm4.792-2.492c2.261-3.233 2.467-6.545 2.721-9.862l-9.977-.744c-.284 3.703-.485 4.236-.944 4.892l8.2 5.714zm2.721-9.861c.247-3.223-2.174-5.993-5.357-6.238l-.787 9.964a4.163 4.163 0 01-3.833-4.471l9.977.745zm-5.358-6.238c-3.197-.246-6.022 2.138-6.268 5.366l9.977.744a4.189 4.189 0 01-4.494 3.854l.785-9.964zm-6.268 5.366c-.133 1.727-.22 2.633-.357 3.286-.103.496-.196.65-.296.793l8.2 5.713c2.039-2.914 2.2-6.039 2.43-9.048l-9.977-.744zm-.651 4.077a5.808 5.808 0 001.45 8.112l5.71-8.217a4.17 4.17 0 011.037 5.822l-8.197-5.717zm37.978.95c-.665-.551-.84-.874-.962-1.189-.2-.51-.379-1.353-.544-3.251l-9.97.886c.175 1.995.433 4.073 1.19 6.012.835 2.135 2.138 3.789 3.895 5.242l6.391-7.7zm-1.506-4.441c-.282-3.208-3.111-5.557-6.3-5.284l.84 9.957a4.164 4.164 0 01-4.509-3.785l9.969-.888zM35.58 16.06c-3.197.272-5.603 3.084-5.32 6.312l9.968-.888a4.187 4.187 0 01-3.817 4.534l-.83-9.958zm-5.32 6.311c.192 2.201.497 4.465 1.353 6.6.916 2.288 2.34 4.138 4.322 5.778l6.39-7.702c-.86-.712-1.198-1.246-1.421-1.803-.285-.712-.5-1.757-.676-3.76l-9.969.887zm5.675 12.378a5.826 5.826 0 003.71 1.336l.026-9.993c.933 0 1.882.316 2.654.955l-6.39 7.702zm3.71 1.336a5.842 5.842 0 004.487-2.093l-7.675-6.4a4.19 4.19 0 013.214-1.5l-.025 9.993zm4.489-2.095a5.81 5.81 0 00-.752-8.206l-6.391 7.7a4.171 4.171 0 01-.535-5.89l7.678 6.396z" mask="url(#a)"/></g><path fill="#F50057" d="M37.15 32.468c-3.01-1.729-4.075-6.412-4.434-11.008-.271-3.476-2.574-6.343-5.63-7.537-3.055 1.19-5.353 4.054-5.62 7.528-.35 4.596-1.41 9.278-4.416 11.002-1.078.617-.964 3.436-.59 3.808l7.491.005 6.302.005 7.491.006c.374-.372.483-3.19-.595-3.81z"/><path fill="#F48FB1" d="M25.858 40.004a4.177 4.177 0 002.307-3.734h-.408l-3.804-.004h-.408a4.192 4.192 0 002.313 3.738zM24.829 9.417a2.056 2.056 0 00-1.171 1.852c0 .813.48 1.52 1.174 1.853a2.056 2.056 0 001.17-1.852c0-.814-.48-1.52-1.173-1.853z"/><path fill="#263238" d="M9.156 29.412a.83.83 0 00-1.168-.052 18.81 18.81 0 01-.296.264.819.819 0 00-.075 1.16.829.829 0 001.167.076c.111-.097.218-.192.322-.287a.819.819 0 00.05-1.162zm.554-.575a.826.826 0 001.15-.204c1.36-1.944 1.564-3.866 1.833-7.377a.825.825 0 00-.762-.883.823.823 0 00-.887.756c-.254 3.307-.425 4.967-1.542 6.564a.82.82 0 00.208 1.144zm25.264-9.044a.828.828 0 00.981.633.82.82 0 00.636-.975 12.43 12.43 0 00-.113-.476.829.829 0 00-1.005-.595.82.82 0 00-.597.999c.035.136.068.275.098.414zm5.213 9.841c-2.422-2.004-2.955-3.954-3.296-7.847a.827.827 0 00-1.647.14c.367 4.204 1.042 6.618 3.886 8.97a.827.827 0 001.165-.105.82.82 0 00-.108-1.158z"/><path fill="#263238" d="M38.36 32.621a.768.768 0 00-.035-.063 2.073 2.073 0 00-.762-.802c-2.233-1.282-3.586-4.768-4.022-10.359-.324-4.147-3.3-7.547-7.17-8.575.29-.448.458-.98.457-1.551a2.895 2.895 0 00-2.897-2.88 2.885 2.885 0 00-2.893 2.876c0 .57.17 1.103.46 1.552-3.869 1.021-6.84 4.418-7.157 8.564-.428 5.59-1.776 9.074-4.006 10.353-.646.37-1.066 1.157-1.213 2.276-.095.727-.124 2.252.453 2.825a.83.83 0 00.585.241l8.823.007a5.047 5.047 0 004.973 4.191 5.028 5.028 0 004.966-4.184l8.824.007c.219 0 .43-.086.584-.24.576-.573.545-2.099.449-2.826-.075-.556-.216-1.03-.418-1.412zM23.933 10.034a1.243 1.243 0 011.243 1.236 1.242 1.242 0 01-2.483-.002c0-.68.556-1.234 1.24-1.234zm.023 29.598a3.393 3.393 0 01-3.285-2.546l6.565.005a3.38 3.38 0 01-3.28 2.54zm13.193-4.178l-26.393-.02a4.836 4.836 0 01-.006-1.097c.079-.734.29-1.106.413-1.177 2.77-1.588 4.35-5.398 4.828-11.65.316-4.131 3.806-7.366 7.945-7.363 4.14.003 7.635 3.243 7.957 7.375.235 3.008.724 5.45 1.476 7.352l-3.108-.002a.823.823 0 00-.826.822c0 .454.37.822.827.822l3.901.003a8.096 8.096 0 001.257 1.645l-8.245-.006a.823.823 0 00-.827.822c0 .454.371.822.828.823l9.88.007c.04.153.074.334.097.547.048.439.03.828-.004 1.097z"/><path fill="#263238" d="M24.198 32.157h-.496a.823.823 0 00-.826.82c0 .455.37.823.827.824h.496a.823.823 0 00.826-.822.826.826 0 00-.827-.822z"/></g><defs><clipPath id="clip0"><path fill="#fff" d="M0 0h50v50H0z" transform="translate(.344 .318)"/></clipPath><filter id="filter0_ddd" width="49.082" height="48.88" x="-.593" y="1.394" color-interpolation-filters="sRGB" filterUnits="userSpaceOnUse"><feFlood flood-opacity="0" result="BackgroundImageFix"/><feColorMatrix in="SourceAlpha" result="hardAlpha" values="0 0 0 0 0 0 0 0 0 0 0 0 0 0 0 0 0 0 127 0"/><feOffset dy="1"/><feGaussianBlur stdDeviation="1.5"/><feColorMatrix values="0 0 0 0 0.14902 0 0 0 0 0.196078 0 0 0 0 0.219608 0 0 0 0.08 0"/><feBlend in2="BackgroundImageFix" result="effect1_dropShadow"/><feColorMatrix in="SourceAlpha" result="hardAlpha" values="0 0 0 0 0 0 0 0 0 0 0 0 0 0 0 0 0 0 127 0"/><feOffset dy="2"/><feGaussianBlur stdDeviation=".5"/><feColorMatrix values="0 0 0 0 0.14902 0 0 0 0 0.196078 0 0 0 0 0.219608 0 0 0 0.04 0"/><feBlend in2="effect1_dropShadow" result="effect2_dropShadow"/><feColorMatrix in="SourceAlpha" result="hardAlpha" values="0 0 0 0 0 0 0 0 0 0 0 0 0 0 0 0 0 0 127 0"/><feOffset dy="1"/><feGaussianBlur stdDeviation=".5"/><feColorMatrix values="0 0 0 0 0.14902 0 0 0 0 0.196078 0 0 0 0 0.219608 0 0 0 0.04 0"/><feBlend in2="effect2_dropShadow" result="effect3_dropShadow"/><feBlend in="SourceGraphic" in2="effect3_dropShadow" result="shape"/></filter></defs></svg>