<svg xmlns="http://www.w3.org/2000/svg" width="181" height="291" fill="none"><path fill="#fff" fill-rule="evenodd" d="M22.05 289.597c.076-.281-.104-2.169.2-2.339a.52.52 0 01.36-.137l6.416.166c.87-.036.376 2.027.51 2.465l7.238.15c.344-17.066.512-34.302.636-51.368l-22.25-.144a4602.821 4602.821 0 01-.421 39.312c.002.284-.272.518-.558.488-5.298-.306-12.906 3.594-12.743 10.981l20.612.426z" clip-rule="evenodd"/><path fill="#263238" fill-rule="evenodd" d="M14.659 237.915a4650.301 4650.301 0 01-.426 39.78C8.187 277.444.655 281.633.916 289.63l21.632.476.053-2.488 6.411.168.02 2.463 8.237.181c.343-17.099.538-35.287.652-52.367l-23.262-.148zm1.006.951l21.234.139c-.12 16.748-.29 33.636-.621 50.382l-6.239-.126c-.046-.798.274-2.472-.999-2.474l-6.41-.163c-1.304-.059-1.03 1.661-1.074 2.466l-19.575-.395c.051-6.816 7.408-10.305 12.193-10.009.558.04 1.075-.426 1.073-.976.2-12.794.327-26.016.418-38.844z" clip-rule="evenodd"/><path fill="#263238" fill-rule="evenodd" d="M36.834 287.862l.02-.994-34.84-.65-.021.994 34.841.65z" clip-rule="evenodd"/><path fill="#263238" fill-rule="evenodd" d="M30.107 287.239c.071-3.618 3.089-6.524 6.75-6.524l.107.001.016-.994c-4.276-.055-7.806 3.3-7.887 7.499l1.014.018zm-15.891.201l.02-.994c-3.71-.071-6.682-3.07-6.621-6.686l-1.014-.016c-.069 4.162 3.347 7.615 7.615 7.696z" clip-rule="evenodd"/><path fill="#fff" fill-rule="evenodd" d="M15.183 269.407s4.1-.214 4.012 3.423c-.038 1.507 1.37 1.305 4.336 1.346l13.253.185" clip-rule="evenodd"/><path fill="#263238" fill-rule="evenodd" d="M36.784 274.857a.502.502 0 00.507-.49.5.5 0 00-.5-.504l-13.252-.184c-.363-.005-.703-.006-1.017-.008-1.334-.005-2.387-.01-2.691-.315-.033-.035-.14-.142-.13-.514.029-1.154-.321-2.086-1.037-2.768-1.326-1.263-3.42-1.169-3.51-1.164a.502.502 0 00-.479.523.508.508 0 00.533.47c.035-.001 1.755-.067 2.751.887.505.482.749 1.164.728 2.028-.015.531.122.933.419 1.231.598.605 1.656.609 3.41.616.315.002.65.003 1.007.008l13.253.184h.008z" clip-rule="evenodd"/><path fill="#2979FF" fill-rule="evenodd" d="M7.501 267.111l34.834.424c.293-23.26.389-47.816.429-70.991-.918-21.539 25.001-25.583 42.323-26.029 20.126-1.879 21.966-34.177-.802-34.134-32.597.211-69.275 13.514-75.32 48.837-.713 3.856-1.038 7.93-1.055 11.841-.006 22.84-.13 47.145-.409 70.052z" clip-rule="evenodd"/><g fill-rule="evenodd" clip-rule="evenodd"><path fill="#fff" d="M96.267 230.942c-10.613-12.207-20.76-25.152-30.491-38.062-2.029-2.7-4.062-5.47-6.08-8.181-1.14-1.559-2.65-3.249-2.414-5.302 1.347-6.451 25.134-9.435 31.604-10.435l-2.865-21.614c-29.962 3.26-70.87 16.564-43.148 51.738 11.592 15.672 23.68 31.262 36.478 46.006l16.916-14.15z"/><path fill="#fff" d="M101.132 257.408c-.428-.631-2.004-1.26-1.482-2.115l4.567-4.417c.781-.521 1.442.883 2.035 1.18l4.952-5.176c-12.185-11.861-22.771-25.015-33.366-38.302l-17.615 13.321c8.121 11.166 18.903 21.755 26.805 32.573-5.035 4.425-6.227 12.251.003 17.676l14.101-14.74z"/><path fill="#263238" d="M59.502 221.797c8.684 11 17.652 21.93 27.201 32.261-5.666 4.894-6.345 13.499.684 19.098l14.454-15.78c-.6-.541-1.221-1.142-1.827-1.725l4.546-4.434c.446.401 1.159 1.053 1.615 1.429l5.505-6.01c-12.297-11.932-23.044-25.325-33.751-38.755l-18.427 13.916zm1.446.203l16.802-12.725c10.338 12.967 20.96 26.102 32.838 37.717l-4.312 4.419c-.61-.506-1.542-1.746-2.4-.879l-4.581 4.398c-.96.895.541 1.906 1.116 2.492L86.879 271.29c-4.31-3.788-4.73-10.658-.974-14.81 1.054-1.498 1.58-1.27 1.833-2.343-8.79-10.731-18.431-21.096-26.79-32.137z"/><path fill="#263238" d="M85.424 269.918l24.633-24.158-.718-.702-24.633 24.157.718.703z"/><path fill="#263238" d="M104.22 250.784l.715-.705c-1.186-1.156-1.816-2.735-1.772-4.448a6.463 6.463 0 012.175-4.669l-.679-.739a7.454 7.454 0 00-2.51 5.384c-.051 1.988.685 3.827 2.071 5.177zm-15.304 12.715c2 0 3.825-.728 5.153-2.06l-.725-.695c-1.17 1.173-2.805 1.798-4.584 1.759-2.011-.043-4-.931-5.319-2.375l-.755.663c1.502 1.646 3.765 2.657 6.052 2.706l.178.002z"/><path fill="#fff" d="M81.456 247.02c.985-1.019 3.747-2.147 5.4.016 1.038 1.176 1.934.088 4.152-1.841l9.913-8.624"/><path fill="#263238" d="M87.749 248.02c.829 0 1.598-.683 2.844-1.79.233-.207.483-.429.753-.663l9.912-8.625a.489.489 0 00.043-.701.513.513 0 00-.716-.042l-9.913 8.624c-.272.237-.525.462-.76.671-.98.87-1.762 1.558-2.192 1.531-.052-.003-.21-.012-.47-.302-.667-.865-1.575-1.354-2.626-1.414-1.44-.083-2.843.653-3.535 1.369a.49.49 0 00.02.703c.203.189.523.18.717-.019.54-.559 1.68-1.119 2.74-1.06.76.043 1.394.39 1.884 1.032l.022.027c.368.416.756.631 1.187.657.03.002.06.002.09.002z"/><g fill="#263238"><path d="M74.026 250.236l26.471-22.197c-13.273-15.252-25.701-31.445-37.665-47.685l-.003.002c-.002-.002.007.014 0 0 18.747-7.512 40.038-7.858 60.252-8.572 14.709.281 23.349-19.208 12.438-29.136-9.07-8.51-23.725-3.908-35.183-4.056-11.28.84-22.788 2.186-33.998 4.789-30.277 6.254-52.95 26.853-32.011 56.609 12.621 17.138 25.695 34.163 39.699 50.246z"/><path d="M153.545 143.398c-.116-36.799-67.35-36.795-67.46.002.116 36.797 67.35 36.793 67.46-.002z"/></g></g><path fill="#263238" d="M153.268 115.752h-33.729v55.175h18.766c8.264 0 14.963-6.565 14.963-14.663v-40.512z"/><g fill-rule="evenodd" clip-rule="evenodd"><path fill="#263238" d="M105.567 255.334h42.31c1.255 0 2.271-.996 2.271-2.226s-1.017-2.227-2.271-2.227h-42.31c-2.935-.042-2.956 4.496 0 4.453z"/><path fill="#263238" d="M142.106 290.163h-11.154V188.057h11.154v102.106zm-23.273 0h-11.155V188.057h11.155v102.106z"/><path fill="#fff" d="M103.479 195.156h42.868c7.119 0 12.89-5.656 12.89-12.632.993-7.819-4.496-15.397-12.89-15.324h-42.868c-7.119 0-12.89 5.656-12.89 12.632-.993 7.819 4.496 15.397 12.89 15.324z"/><path fill="#263238" d="M146.459 167.696c3.473 0 6.646 1.391 8.949 3.924 2.583 2.84 3.826 6.893 3.324 10.842l-.004.062c0 6.691-5.554 12.135-12.382 12.135h-42.987c-3.468 0-6.64-1.39-8.944-3.923-2.583-2.84-3.826-6.894-3.324-10.843l.004-.061c0-6.691 5.555-12.135 12.382-12.135h42.868l.114-.001zm-43.1 27.957h42.987c7.377 0 13.379-5.873 13.396-13.098.536-4.282-.767-8.507-3.577-11.597-2.525-2.777-6.023-4.289-9.824-4.255v.011c-.131-.011-.289-.011-.477-.011l-42.387-.001c-7.376 0-13.38 5.873-13.396 13.099-.535 4.282.768 8.507 3.577 11.597 2.498 2.747 5.94 4.255 9.701 4.255z"/></g><g fill-rule="evenodd" clip-rule="evenodd"><path fill="#fff" d="M14.757 34.182c28.119 2.199 23.348-5.52 23.578 22.882l-23.944.357c-.116-7.832.04-15.562.366-23.24z"/><path fill="#263238" d="M37.824 56.574l-22.934.342c-.094-6.942.023-14.214.353-22.199 5.756.432 10.151.45 13.385.462 4.582.018 7.107.028 8.245 1.173 1.262 1.27 1.195 4.268 1.06 10.242a332.51 332.51 0 00-.109 9.98zm-23.433 1.344h.007l23.945-.358a.502.502 0 00.5-.5c-.035-4.233.042-7.677.105-10.445.145-6.446.21-9.388-1.349-10.957-1.435-1.443-3.952-1.453-8.969-1.473-3.314-.013-7.854-.031-13.833-.499a.512.512 0 00-.376.123.487.487 0 00-.17.352c-.357 8.397-.476 16.008-.367 23.267a.497.497 0 00.154.35c.094.09.22.14.353.14z"/><path fill="#fff" d="M32.642 36.323c.146-3.644.33-7.288.543-10.932.302-4.574 6.231-4.212 5.976.342a530.97 530.97 0 00-.624 13.255"/><path fill="#263238" d="M38.535 39.486a.503.503 0 00.507-.48c.143-4.217.353-8.673.623-13.244.144-2.571-1.529-4.018-3.257-4.12-2.28-.13-3.603 1.77-3.732 3.718a603.135 603.135 0 00-.543 10.944.501.501 0 00.486.516.502.502 0 00.527-.477c.139-3.464.316-7.037.543-10.923.132-2.011 1.472-2.853 2.659-2.785 1.189.07 2.417 1.06 2.304 3.07-.27 4.579-.48 9.043-.624 13.267a.502.502 0 00.507.514z"/><path fill="#fff" d="M32.641 36.323c.147-3.644.331-7.288.543-10.932.12-1.933-1.118-3.585-2.768-3.69-1.648-.104-3.086 1.395-3.208 3.35-.215 3.679-.4 7.36-.548 11.047"/><path fill="#263238" d="M32.64 36.82c.271 0 .496-.21.507-.477.139-3.465.316-7.038.542-10.923.137-2.201-1.317-4.092-3.241-4.215-.83-.052-1.654.237-2.323.814-.832.719-1.352 1.813-1.426 3.001a605.352 605.352 0 00-.547 11.058.5.5 0 00.487.516.503.503 0 00.524-.477c.142-3.5.32-7.112.55-11.038.057-.925.452-1.77 1.084-2.314.469-.407 1.02-.604 1.585-.567 1.37.086 2.398 1.506 2.295 3.163a600.34 600.34 0 00-.544 10.943.502.502 0 00.487.516h.02z"/><path fill="#fff" d="M26.66 36.098c.147-3.686.332-7.368.548-11.047.121-1.952-1.116-3.618-2.767-3.723-1.649-.104-3.086 1.41-3.21 3.381a625.975 625.975 0 00-.554 11.164"/><path fill="#263238" d="M26.66 36.595a.5.5 0 00.504-.478c.142-3.5.32-7.111.55-11.038.138-2.219-1.316-4.124-3.24-4.247-.825-.052-1.646.236-2.313.812-.837.725-1.362 1.831-1.435 3.035-.234 3.977-.414 7.63-.556 11.174a.5.5 0 00.487.516.505.505 0 00.528-.477c.14-3.537.322-7.186.552-11.154.059-.94.457-1.797 1.096-2.348.47-.406 1.014-.6 1.575-.566 1.37.087 2.396 1.521 2.292 3.196a605.388 605.388 0 00-.547 11.059.5.5 0 00.486.516h.02z"/><path fill="#fff" d="M35.73 56.615c7.553.383 9.574-2.693 9.057-9.687.453-4.863-.06-9.852-6.226-10.382-.906 1.722-1.82 3.454-2.709 5.192"/><path fill="#fff" d="M38.336 57.064c2.648-.04 6.044-.13 6.044-.13-.104-2.742-.106-7.166-.055-10.013.421-4.584.027-9.917-5.701-10.372-.061 1.753-.13 3.507-.174 5.258"/><path fill="#263238" d="M38.334 57.56h.008a618.49 618.49 0 006.05-.128.512.512 0 00.356-.157.49.49 0 00.137-.358c-.103-2.723-.105-7.163-.054-9.97.244-2.669.331-6.479-1.687-8.827-1.047-1.218-2.554-1.914-4.48-2.067a.514.514 0 00-.379.125.494.494 0 00-.17.354l-.042 1.2c-.048 1.332-.098 2.71-.131 4.063a.502.502 0 00.495.509c.28.006.513-.21.52-.485.032-1.348.082-2.723.13-4.052l.023-.664c1.406.201 2.475.746 3.258 1.657 1.779 2.07 1.68 5.623 1.45 8.116a.613.613 0 00-.001.036c-.048 2.653-.05 6.774.038 9.54-1.05.025-3.518.085-5.528.115a.502.502 0 00-.5.504c.005.272.23.49.507.49z"/><path fill="#fff" d="M38.43 42.507c.049-1.97.12-3.942.19-5.914.208-4.522 6.145-4.267 5.983.225a416.34 416.34 0 00-.313 13.028"/><path fill="#263238" d="M44.291 50.343c.279 0 .505-.22.507-.494.031-4.1.136-8.479.313-13.012.091-2.543-1.613-3.94-3.343-4.009-2.281-.09-3.565 1.815-3.653 3.742a509.539 509.539 0 00-.192 5.925.502.502 0 00.495.509.504.504 0 00.52-.485c.047-1.917.114-3.81.19-5.909.091-1.98 1.412-2.836 2.6-2.788 1.19.047 2.44.998 2.37 2.978a415.194 415.194 0 00-.314 13.042.502.502 0 00.503.5h.004z"/><path fill="#fff" d="M20.677 35.873c-.41-3.387 2.407-11.746-2.368-12.391-4.907.138-2.942 8.804-3.614 12.165"/><path fill="#263238" d="M20.677 36.37a.499.499 0 00.502-.556c-.108-.91.036-2.267.188-3.704.406-3.828.91-8.594-2.99-9.12a.534.534 0 00-.083-.005c-4.053.114-3.997 5.024-3.951 8.97.015 1.399.03 2.72-.145 3.596a.496.496 0 00.398.584.507.507 0 00.596-.392c.195-.976.18-2.348.165-3.8-.05-4.441.134-7.85 2.924-7.963 2.67.395 2.534 3.722 2.077 8.028-.16 1.493-.31 2.903-.185 3.923.03.253.25.439.505.439z"/><path fill="#fff" d="M39.79 46.785H11.323V.927H39.79v45.858z"/><path fill="#263238" d="M39.282 46.288H11.83V1.424h27.453v44.864zm1.015.994H10.816V.43h29.48v46.852z"/><path fill="#263238" d="M34.756 9.343H16.353v-.994h18.403v.994zm0 4.227H16.353v-.994h18.403v.994zm0 4.227H16.353v-.994h18.403v.994zm0 4.227H16.353v-.994h18.403v.994zm0 4.228H16.353v-.995h18.403v.994zm0 4.227H16.353v-.995h18.403v.994zm0 4.227H16.353v-.995h18.403v.995zm0 4.227H16.353v-.995h18.403v.995zM47.447 56.46c.28 11.431.63 22.687 3.89 33.414 7.876-6.21 22.91-30.409 42.037-30.495 19.125-.086 10.207 23.97 7.283 28.069-4.892 6.834-9.984 13.339-15.869 19.584-10.177 10.796-24.123 21.856-40.08 19.839-31.258-5.125-32.224-45.562-33.003-69.936l35.742-.475z"/><path fill="#2979FF" d="M80.016 145.098h74.998c2.45 0 4.523-1.778 4.846-4.159l-3.881-66.545c1.084-7.973-2.709-15.058-10.917-15.058H93.474c-10.633.077-19.015 9.404-18.138 19.773l-.023 60.929c-.259 2.715 1.92 5.06 4.703 5.06z"/><path fill="#2979FF" d="M97.391 59.336c6.141-25.345 51.798-7.428 22.149 13.727a1.358 1.358 0 01-1.79-.092l-3.517-3.447-3.504-3.434c-1.678 1.598-5.13 4.882-6.819 6.492-2.586 2.612-6.727-10.022-6.519-13.246z"/><path fill="#2979FF" d="M112.008 74.785l3.602-3.529-5.01-4.91-5.01 4.91 3.611 3.54-3.517 10.455-8.293-25.915h31.979L113.403 85.43c-.004-.019-1.386-10.629-1.395-10.645z"/><path fill="#263238" d="M104.987 116.934l4.214-42.139-3.611-3.54 5.01-4.909 5.01 4.91-3.601 3.53c.005-.005 5.768 42.324 5.77 42.327-7.504 8.961-5.971 10.475-12.792-.179z"/><path fill="#263238" d="M118.442 73.587c.448 0 .98-.16 1.595-.477 3.836-1.981 10.322-9.862 9.709-13.83a.38.38 0 00-.433-.313.375.375 0 00-.32.424c.245 1.586-.905 4.26-3.078 7.153-1.972 2.626-4.477 5-6.233 5.907-.464.24-1.299.59-1.674.247l-3.923-3.845-3.088-3.027a.386.386 0 00-.534-.004l-6.819 6.492c-.254.256-.483.308-.775.181-2.199-.954-5.284-10.272-5.099-13.136a.375.375 0 00-.355-.396.378.378 0 00-.404.349c-.188 2.906 2.906 12.719 5.55 13.865.581.252 1.157.133 1.621-.336l6.542-6.228 2.823 2.767 3.933 3.854c.257.236.578.353.962.353zm-16.628 9.933c-.088 2.321-.022 4.398.036 6.241.127 4.052.22 6.98-1.509 8.612-1.673 1.58-5.062 2.075-11.331 1.656l-.02-.001c-1.638-.028-2.87-.496-3.765-1.433-2.154-2.254-1.928-6.771-1.73-10.757.08-1.59.154-3.101.06-4.319h18.259zm-9.059 17.394c4.16 0 6.666-.637 8.114-2.004 1.972-1.861 1.875-4.928 1.741-9.172-.061-1.933-.13-4.123-.02-6.575l.018-.39H82.71l.05.417c.144 1.219.062 2.867-.025 4.612-.206 4.133-.44 8.818 1.935 11.302 1.026 1.075 2.472 1.637 4.298 1.669a57.33 57.33 0 003.787.141zm18.502 44.184h-.761v-20.407h.761v20.407z"/><path fill="#fff" d="M78.096 125.92c12.421-24.821 3.343-23.31 30.379-13.081l-8.462 21.955c-7.475-2.771-14.752-5.756-21.917-8.874z"/><path fill="#263238" d="M107.821 113.125l-8.104 21.028c-6.623-2.466-13.482-5.244-20.936-8.479 2.525-5.089 4.156-9.087 5.357-12.03 1.702-4.17 2.64-6.468 4.143-7.084 1.67-.684 4.49.479 10.108 2.797 2.508 1.034 5.605 2.312 9.432 3.768zm-7.809 22.166a.503.503 0 00.474-.321l8.462-21.955a.495.495 0 00-.292-.64c-4.03-1.524-7.27-2.861-9.873-3.934-6.064-2.502-8.831-3.643-10.893-2.798-1.897.777-2.832 3.068-4.694 7.632-1.23 3.017-2.916 7.148-5.557 12.426a.485.485 0 00-.021.388.5.5 0 00.27.285c7.837 3.41 15.015 6.316 21.944 8.885a.526.526 0 00.18.032z"/><path fill="#fff" d="M86.7 110.406a639.386 639.386 0 01-10.173-4.512c-4.23-1.957-1.707-7.229 2.52-5.322a559.292 559.292 0 0012.35 5.44"/><path fill="#263238" d="M86.699 110.903c.195 0 .38-.11.464-.296a.494.494 0 00-.259-.656 623.134 623.134 0 01-10.166-4.509c-1.86-.86-2.167-2.39-1.665-3.447.503-1.058 1.895-1.813 3.76-.972a554.617 554.617 0 0012.36 5.445.511.511 0 00.667-.258.493.493 0 00-.263-.654 561.216 561.216 0 01-12.338-5.435c-2.386-1.076-4.374-.083-5.105 1.454-.965 2.03.353 3.935 2.155 4.768a632.01 632.01 0 0010.186 4.518.51.51 0 00.204.042z"/><path fill="#fff" d="M86.7 110.406a630.12 630.12 0 01-10.174-4.513c-1.79-.82-3.813-.298-4.519 1.167-.705 1.465.19 3.326 1.999 4.155a634.503 634.503 0 0010.282 4.56"/><path fill="#263238" d="M84.287 116.273c.195 0 .38-.111.464-.297a.493.493 0 00-.259-.655 638.417 638.417 0 01-10.273-4.556c-.857-.393-1.512-1.063-1.798-1.838-.213-.579-.198-1.151.044-1.655.586-1.215 2.31-1.632 3.846-.928a642.093 642.093 0 0010.184 4.517.511.511 0 00.669-.254.494.494 0 00-.26-.656 623.9 623.9 0 01-10.165-4.509c-2.038-.933-4.368-.303-5.19 1.406-.356.737-.385 1.595-.082 2.417.376 1.022 1.223 1.897 2.324 2.401a628.627 628.627 0 0010.292 4.564.51.51 0 00.204.043z"/><path fill="#fff" d="M84.287 115.776a641.785 641.785 0 01-10.281-4.561c-1.808-.827-3.844-.312-4.55 1.153-.705 1.465.203 3.333 2.03 4.169a636.648 636.648 0 0010.389 4.608"/><path fill="#263238" d="M81.874 121.643c.195 0 .38-.111.464-.297a.493.493 0 00-.26-.655 639.796 639.796 0 01-10.38-4.605c-.871-.399-1.537-1.077-1.826-1.861-.212-.577-.197-1.146.043-1.644.585-1.215 2.324-1.626 3.875-.915a630.91 630.91 0 0010.292 4.564.511.511 0 00.669-.254.493.493 0 00-.26-.655 638.433 638.433 0 01-10.273-4.557c-2.055-.941-4.397-.317-5.22 1.392-.353.733-.381 1.587-.08 2.407.38 1.03 1.237 1.914 2.352 2.425a639.858 639.858 0 0010.4 4.612.51.51 0 00.204.043z"/><path fill="#fff" d="M107.091 115.049c3.139-6.745.963-9.718-5.864-11.817-4.448-2.199-9.371-3.566-12.14 1.86 1.301 1.459 2.608 2.928 3.932 4.377"/><path fill="#fff" d="M108.473 112.839c.936-2.428 2.099-5.556 2.099-5.556-2.637-.914-6.843-2.537-9.523-3.631-4.192-2.068-9.401-3.67-11.938 1.384 1.642.701 3.281 1.409 4.926 2.091"/><path fill="#263238" d="M108.473 113.336a.507.507 0 00.475-.321c.926-2.403 2.09-5.531 2.101-5.562a.487.487 0 00-.017-.382.504.504 0 00-.29-.257c-2.683-.93-6.882-2.554-9.48-3.614-2.443-1.204-6.026-2.684-8.998-1.707-1.54.507-2.754 1.625-3.607 3.324a.486.486 0 00-.021.39.501.501 0 00.274.285l1.122.48c1.247.534 2.536 1.085 3.809 1.613a.51.51 0 00.664-.264.492.492 0 00-.27-.651c-1.267-.526-2.553-1.077-3.797-1.609l-.621-.266c.708-1.207 1.617-1.981 2.77-2.36 1.993-.655 4.61-.127 8.235 1.661l.033.015c2.459 1.003 6.36 2.516 9.066 3.471-.361.966-1.212 3.238-1.922 5.082a.494.494 0 00.295.64c.059.022.12.032.179.032z"/><path fill="#fff" d="M94.695 107.402a523.018 523.018 0 01-5.542-2.348c-4.215-1.851-1.79-7.167 2.413-5.37a440.556 440.556 0 0012.247 5.074"/><path fill="#263238" d="M94.694 107.899a.508.508 0 00.467-.303.494.494 0 00-.27-.652 524.76 524.76 0 01-5.536-2.345c-1.846-.811-2.172-2.328-1.69-3.394.481-1.068 1.844-1.858 3.696-1.065a438.527 438.527 0 0012.261 5.078.51.51 0 00.66-.274.493.493 0 00-.28-.647 439.537 439.537 0 01-12.233-5.068c-2.38-1.017-4.332.022-5.032 1.574-.924 2.046.411 3.916 2.208 4.705 1.968.843 3.741 1.6 5.551 2.352a.51.51 0 00.198.039z"/><path fill="#fff" d="M81.875 121.146c-3.365-.871-10.261-6.511-12.628-2.396-1.713 4.47 7.295 5.946 10.216 7.765"/><path fill="#263238" d="M79.463 127.012a.51.51 0 00.428-.23.491.491 0 00-.156-.686c-.839-.523-2.13-1.01-3.497-1.525-4.277-1.611-7.476-3.049-6.53-5.611 1.356-2.291 4.463-.943 8.383 1.056 1.358.693 2.642 1.348 3.655 1.61.27.07.548-.088.62-.354a.496.496 0 00-.361-.607c-.904-.234-2.14-.864-3.446-1.531-3.484-1.777-7.82-3.989-9.754-.628a.485.485 0 00-.033.069c-1.422 3.713 3.304 5.494 7.102 6.924 1.318.497 2.564.966 3.317 1.436a.516.516 0 00.272.077zm19.101 10.051l12.686-32.752c10.95 3.946 21.76 7.765 33.138 8.735-1.914-6.238-5.027-11.989-8.414-17.757a183.368 183.368 0 00-5.575-8.76c-5.031-7.6-2.338-17.692 4.939-23.33 7.86-6.115 19.314-4.276 24.873 4.002 4.687 6.971 8.989 14.002 12.753 21.662 5.002 10.304 9.329 22.243 7.53 33.817-1.635 12.637-12.409 22.629-25.1 24.619-19.36 3.147-39.078-3.987-56.83-10.236z"/></g><path fill="#263238" fill-rule="evenodd" d="M95.448 31.746c0 8.098 6.586 14.664 14.709 14.664s14.708-6.566 14.708-14.664c0-8.099-6.585-14.664-14.708-14.664-8.123 0-14.709 6.565-14.709 14.664z" clip-rule="evenodd"/><path fill="#263238" fill-rule="evenodd" d="M124.865 16.585h-20.53c-4.908 0-8.887 4.56-8.887 10.185v4.976h29.417V16.585z" clip-rule="evenodd"/><path fill="#fff" fill-rule="evenodd" d="M94.75 37.028c0 2.09 1.73 3.786 3.864 3.786 2.133 0 3.863-1.696 3.863-3.786 0-2.091-1.73-3.786-3.863-3.786-2.134 0-3.864 1.695-3.864 3.786z" clip-rule="evenodd"/><path fill="#263238" fill-rule="evenodd" d="M98.613 33.739c1.851 0 3.356 1.475 3.356 3.289 0 1.813-1.505 3.289-3.356 3.289-1.85 0-3.356-1.476-3.356-3.29 0-1.813 1.506-3.288 3.356-3.288zm0 7.572c2.41 0 4.37-1.922 4.37-4.283 0-2.362-1.96-4.283-4.37-4.283s-4.37 1.921-4.37 4.283c0 2.361 1.96 4.283 4.37 4.283z" clip-rule="evenodd"/><path fill="#fff" fill-rule="evenodd" d="M111.573 61.756c4.807 0 9.239-3.613 9.239-7.927L116.727 39c0-4.314 1.175-7.81-3.632-7.81h-5.072c-4.808 0-3.633 3.496-3.633 7.81v14.945c0 4.314 2.376 7.81 7.183 7.81z" clip-rule="evenodd"/><path fill="#263238" fill-rule="evenodd" d="M120.304 53.893c-.044 3.932-4.106 7.366-8.732 7.366-4.922 0-6.676-3.778-6.676-7.314V39c0-.757-.035-1.477-.069-2.173-.093-1.916-.174-3.57.633-4.399.486-.499 1.324-.742 2.561-.742h5.072c1.238 0 2.076.243 2.562.742.806.83.726 2.483.633 4.399a43.858 43.858 0 00-.069 2.173v.066l4.085 14.827zm-8.732 8.36c5.192 0 9.746-3.937 9.746-8.424v-.066l-4.085-14.828c.002-.71.035-1.397.068-2.061.104-2.143.194-3.995-.912-5.132-.688-.706-1.766-1.05-3.296-1.05h-5.072c-1.53 0-2.608.344-3.295 1.05-1.107 1.137-1.017 2.989-.912 5.132.033.685.068 1.393.068 2.126v14.945c0 5.047 3.018 8.308 7.69 8.308z" clip-rule="evenodd"/><path fill="#fff" fill-rule="evenodd" d="M108.631 48.815c4.43 0 8.427-2.575 10.184-6.56l.164-.373c2.425-5.5-.168-11.91-5.78-14.286a11.21 11.21 0 00-4.393-.893c-4.429 0-8.427 2.574-10.183 6.559l-.165.374a10.597 10.597 0 00-.129 8.316c1.092 2.698 3.191 4.818 5.91 5.97 1.401.592 2.878.893 4.392.893z" clip-rule="evenodd"/><path fill="#263238" fill-rule="evenodd" d="M108.805 26.205c1.584 0 3.129.315 4.594.935 2.843 1.204 5.038 3.42 6.179 6.242a11.078 11.078 0 01-.134 8.697l-.165.374c-1.837 4.167-6.017 6.86-10.649 6.86-1.583 0-3.129-.315-4.593-.936-2.843-1.203-5.038-3.42-6.18-6.242a11.082 11.082 0 01.135-8.696l.164-.374c1.837-4.167 6.017-6.86 10.649-6.86zm0 .995c-4.094 0-7.991 2.342-9.717 6.26l-.165.373c-2.318 5.257.152 11.36 5.516 13.632a10.73 10.73 0 004.191.853c4.094 0 7.991-2.342 9.718-6.26l.165-.374c2.318-5.257-.152-11.36-5.517-13.631a10.724 10.724 0 00-4.191-.853z" clip-rule="evenodd"/><path fill="#fff" fill-rule="evenodd" d="M119.016 40.814c2.133 0 3.863-1.695 3.863-3.786s-1.73-3.786-3.863-3.786a3.92 3.92 0 00-.779.077" clip-rule="evenodd"/><path fill="#263238" fill-rule="evenodd" d="M119.017 41.31c2.409 0 4.37-1.92 4.37-4.282s-1.961-4.283-4.37-4.283c-.296 0-.593.029-.881.087a.498.498 0 00-.395.586.507.507 0 00.599.388c.221-.045.449-.067.677-.067 1.85 0 3.355 1.475 3.355 3.289 0 1.813-1.505 3.289-3.355 3.289a.502.502 0 00-.508.497c0 .274.227.497.508.497z" clip-rule="evenodd"/><path fill="#263238" d="M117.511 33.983c-1.961 0-3.55-1.558-3.55-3.48s1.589-3.48 3.55-3.48c1.961 0 3.551 1.558 3.551 3.48s-1.59 3.48-3.551 3.48z"/><path fill="#263238" d="M100.773 24.538h13.948v4.474h-13.948v-4.474z"/><path fill="#2979FF" fill-rule="evenodd" d="M107.077 41.188h-1.917c-.529 0-.921-.753-.802-1.543l.807-5.403c.187-1.254 1.335-1.324 1.587-.097l1.11 5.403c.167.813-.229 1.64-.785 1.64z" clip-rule="evenodd"/><path fill="#263238" fill-rule="evenodd" d="M106.602 44.02a5.214 5.214 0 003.66-1.484.49.49 0 000-.703.515.515 0 00-.718 0c-1.622 1.59-4.263 1.59-5.885 0a.514.514 0 00-.717 0 .49.49 0 000 .703 5.213 5.213 0 003.66 1.483zm3.015-8.71a1.18 1.18 0 001.295-1.046 1.17 1.17 0 00-1.067-1.27 1.181 1.181 0 00-1.296 1.047 1.17 1.17 0 001.068 1.27zm-6.448 0a1.181 1.181 0 001.296-1.046 1.17 1.17 0 00-1.068-1.27 1.18 1.18 0 00-1.295 1.047 1.17 1.17 0 001.067 1.27z" clip-rule="evenodd"/></svg>