<svg xmlns="http://www.w3.org/2000/svg" width="286" height="321" fill="none"><path fill="#fff" fill-rule="evenodd" d="M285.09 290.862l-.973-.662-1.017-.71c-.676-.469-1.365-.968-2.054-1.465-1.375-.978-2.753-2.031-4.129-3.052-1.375-1.021-2.735-2.105-4.111-3.171l-4.073-3.261-13.712 17.14 4.012 3.208c1.338 1.068 2.711 2.102 4.066 3.153a.538.538 0 01.199.341.502.502 0 01-.094.371l-.025.035a14.974 14.974 0 00-2.579 6.213 10.893 10.893 0 00-.042 3.06c.064.492.165.979.303 1.455.145.479.325.946.54 1.397a10.67 10.67 0 001.741 2.636c.391.436.806.849 1.243 1.237.49.43 1.002.833 1.535 1.209l19.17-29.134z" clip-rule="evenodd"/><path fill="#263238" fill-rule="evenodd" d="M254.325 295.736c1.388 1.143 2.808 2.257 4.21 3.378.702.567 1.415 1.117 2.132 1.666l2.141 1.653-.025.035c-.465.64-.877 1.318-1.231 2.027a14.52 14.52 0 00-1.452 4.399 10.697 10.697 0 00.641 5.747 11.73 11.73 0 001.886 3.052c.463.54.961 1.048 1.492 1.52.281.251.614.502.947.768.167.128.341.251.518.384l.33.228.356.236 6.964-10.886 3.546-5.544 8.824-13.795-.905-.612c-.331-.223-.691-.477-1.044-.725l-1.062-.753-1.077-.777c-1.435-1.021-2.873-2.112-4.308-3.181a174.902 174.902 0 01-4.28-3.298 347.912 347.912 0 01-4.248-3.409l-14.355 17.887zm1.412-.136l13.052-16.364 3.89 3.11 3.93 3.028 1.977 1.475.995.735.995.712c.656.469 1.32.963 1.969 1.41.65.446 1.309.92 1.92 1.332l-8.508 12.792-3.643 5.481-6.599 9.91a14.307 14.307 0 01-2.402-2.258 10.413 10.413 0 01-1.522-2.435 9.528 9.528 0 01-.679-5.428 14.539 14.539 0 012.487-6.005l.017-.023a.987.987 0 00.184-.739 1.056 1.056 0 00-.397-.683c-1.286-1.003-2.585-1.981-3.86-2.99l-3.811-3.042.005-.018z" clip-rule="evenodd"/><path fill="#263238" d="M281.564 288.379l.812.58-19.405 27.67-.812-.579 19.405-27.671zm-17.947 14.658a4.927 4.927 0 00.986-3.618 4.913 4.913 0 00-1.839-3.262 4.853 4.853 0 00-3.588-.995 4.858 4.858 0 00-3.234 1.856l.778.627a3.838 3.838 0 015.329-.568 3.92 3.92 0 01.769 5.348l.799.612z"/><path fill="#2979FF" fill-rule="evenodd" d="M250.047 301.073l21.491-26.786-3.541-2.937c-1.179-.981-2.333-2.007-3.502-2.997l-1.741-1.505c-.58-.502-1.149-1.026-1.724-1.538l-3.442-3.083a360.756 360.756 0 01-23.958-24.039l-5.608-6.366-.701-.795-.679-.815-1.353-1.628-2.711-3.261-1.358-1.628c-.234-.273-.425-.532-.639-.797l-.627-.786c-.833-1.061-1.679-2.107-2.487-3.203-1.644-2.154-3.233-4.369-4.81-6.612a263.994 263.994 0 01-17.21-28.574 326.3 326.3 0 01-7.461-15.205 346.224 346.224 0 01-6.715-15.594c-1.632-4.101-9.655-23.041-13.545-24.722a18.26 18.26 0 00-12.95-.502 15.917 15.917 0 00-5.821 3.309 16.093 16.093 0 00-3.966 5.423c-1.84 4.058-3.394 9.551-1.574 14.096 2.325 5.792 10.956 26.814 13.564 32.475a370.89 370.89 0 008.245 16.806 297.509 297.509 0 0019.476 32.309 234.993 234.993 0 005.616 7.718c.945 1.282 1.947 2.531 2.937 3.788.498.624.995 1.269 1.492 1.871l1.493 1.793 2.984 3.584 1.492 1.794.746.895.769.876 6.163 6.99a397.602 397.602 0 0026.271 26.36l3.777 3.386c.632.562 1.259 1.131 1.896 1.688l1.924 1.658c1.286 1.101 2.557 2.218 3.858 3.304l3.929 3.25z" clip-rule="evenodd"/><path fill="#263238" fill-rule="evenodd" d="M167.414 152.763c.292-.079.543-.27.698-.533a1.186 1.186 0 00-.215-1.465 1.161 1.161 0 00-1.285-.196c-.21.1-.385.261-.503.462a1.184 1.184 0 00.074 1.309 1.162 1.162 0 001.231.423zm-14.943 5.802a1.193 1.193 0 00.875-.994 1.203 1.203 0 00-.578-1.194 1.178 1.178 0 00-1.716.651 1.207 1.207 0 00.526 1.417 1.175 1.175 0 00.893.12zm25.544 1.013a1.166 1.166 0 00.788-1.417 1.144 1.144 0 00-.567-.658 1.13 1.13 0 00-.863-.057c-.29.084-.536.28-.684.545a1.163 1.163 0 00-.107.872 1.125 1.125 0 001.433.715zm-14.765 6.263a1.165 1.165 0 00.804-1.009 1.172 1.172 0 00-.615-1.136 1.152 1.152 0 00-1.646.701c-.065.221-.063.457.004.677.093.295.298.542.57.685.272.144.589.174.883.082zm12.186 6.158c.29-.096.531-.303.671-.577.139-.273.166-.591.075-.885a1.142 1.142 0 00-1.46-.695c-.29.094-.532.3-.672.574-.14.274-.167.593-.074.886a1.152 1.152 0 00.586.657 1.124 1.124 0 00.874.04zm-14.567 6.7c.297-.102.541-.319.68-.603a1.196 1.196 0 00-.54-1.596 1.176 1.176 0 00-1.583.544 1.217 1.217 0 00-.058.911 1.185 1.185 0 001.501.744zm25.558-.529a1.155 1.155 0 00.704-1.46 1.12 1.12 0 00-1.47-.625 1.157 1.157 0 00-.703 1.46 1.116 1.116 0 001.469.625zm-14.363 7.146a1.163 1.163 0 00.741-1.054 1.166 1.166 0 00-.68-1.095 1.148 1.148 0 00-1.263.213 1.166 1.166 0 00.317 1.907c.28.127.598.137.885.029zm12.52 5.393c.283-.115.509-.337.63-.619s.127-.6.017-.886a1.131 1.131 0 00-1.058-.7 1.14 1.14 0 00-.434.095 1.16 1.16 0 00-.636.616 1.175 1.175 0 00-.021.889 1.149 1.149 0 00.622.614 1.126 1.126 0 00.87-.012m-14.124 7.59a1.194 1.194 0 00.553-1.758 1.174 1.174 0 00-1.818-.198 1.206 1.206 0 00.364 1.949 1.163 1.163 0 00.901.007zm25.468-2.167a1.163 1.163 0 00.611-1.505 1.12 1.12 0 00-1.492-.519 1.147 1.147 0 00-.612 1.505 1.1 1.1 0 001.08.638c.148-.01.293-.05.425-.116m-13.883 8.064a1.17 1.17 0 00-.08-2.152 1.158 1.158 0 00-.669-.043 1.16 1.16 0 00-.877.945 1.168 1.168 0 00.738 1.281c.289.108.608.097.888-.031zm12.84 4.52a1.181 1.181 0 00.55-1.543 1.139 1.139 0 00-1.104-.625 1.128 1.128 0 00-.428.123 1.161 1.161 0 00-.55 1.54 1.136 1.136 0 00.662.576 1.106 1.106 0 00.87-.074m-13.566 8.578a1.191 1.191 0 00.678-1.143 1.197 1.197 0 00-.791-1.068 1.177 1.177 0 00-1.28.334 1.201 1.201 0 00-.179 1.32 1.172 1.172 0 001.572.557zm25.221-4.081a1.163 1.163 0 00.498-1.53 1.122 1.122 0 00-.287-.33 1.082 1.082 0 00-.826-.216 1.098 1.098 0 00-.41.147 1.17 1.17 0 00-.497 1.538 1.11 1.11 0 00.684.523c.143.037.291.044.437.021.146-.022.286-.074.411-.153m-13.209 9.128a1.165 1.165 0 00.584-1.151 1.17 1.17 0 00-.828-.988 1.158 1.158 0 00-.67.009 1.166 1.166 0 00-.666 1.671 1.162 1.162 0 00.694.564 1.137 1.137 0 00.886-.105zm13.149 3.414a1.131 1.131 0 00.47-1.144 1.112 1.112 0 00-2.207.175c-.008.22.049.438.163.625a1.146 1.146 0 00.716.502 1.13 1.13 0 00.858-.158zm-12.779 9.73a1.177 1.177 0 00.522-.74 1.177 1.177 0 00-.154-.893 1.195 1.195 0 00-1.619-.422 1.158 1.158 0 00-.53.738 1.17 1.17 0 00.152.898 1.195 1.195 0 001.629.419zm24.787-6.359a1.122 1.122 0 00.395-1.158 1.108 1.108 0 00-.898-.824 1.101 1.101 0 00-1.106.507 1.123 1.123 0 00.025 1.224 1.137 1.137 0 001.584.251zm-12.331 10.301a1.147 1.147 0 00.489-.743 1.18 1.18 0 00-.001-.455 1.182 1.182 0 00-.175-.419 1.168 1.168 0 00-1.619-.301 1.16 1.16 0 00.012 1.935 1.151 1.151 0 001.294-.017zm13.426 2.343a1.14 1.14 0 00-.531-2.027 1.119 1.119 0 00-1.127.538 1.143 1.143 0 00.051 1.256 1.147 1.147 0 00.755.454 1.146 1.146 0 00.852-.221zm-12.029 10.661a1.174 1.174 0 00.249-1.643 1.18 1.18 0 00-1.641-.274 1.16 1.16 0 00-.467.768 1.177 1.177 0 00.218.873c.182.255.457.427.764.479.308.051.623-.022.877-.203zm24.326-7.937c.242-.18.404-.449.451-.75.046-.3-.026-.606-.202-.853a1.17 1.17 0 00-1.22-.477 1.17 1.17 0 00-.892.965 1.188 1.188 0 00.557 1.194 1.16 1.16 0 001.306-.079zm-11.721 11.004a1.169 1.169 0 00.043-1.794 1.15 1.15 0 00-1.268-.164 1.158 1.158 0 00-.639 1.116 1.162 1.162 0 001.005 1.08 1.135 1.135 0 00.859-.238zm13.537 1.558a1.148 1.148 0 00-.029-1.752 1.121 1.121 0 00-1.702.351 1.145 1.145 0 00.117 1.253 1.132 1.132 0 00.777.413 1.144 1.144 0 00.837-.265zm-11.406 11.34a1.182 1.182 0 00.165-1.658 1.171 1.171 0 00-1.649-.186 1.173 1.173 0 00-.381 1.253c.045.148.118.286.216.405a1.165 1.165 0 001.649.186zm23.834-9.306c.233-.194.38-.473.411-.776a1.165 1.165 0 00-.244-.844 1.109 1.109 0 00-1.214-.317c-.14.05-.268.128-.378.229a1.163 1.163 0 00-.169 1.62 1.1 1.1 0 00.779.382 1.103 1.103 0 00.815-.294zm-11.085 11.651a1.174 1.174 0 00-.042-1.802 1.155 1.155 0 00-1.745.391 1.178 1.178 0 00.153 1.286 1.148 1.148 0 001.634.125zm13.589.808a1.188 1.188 0 00.112-1.643 1.131 1.131 0 00-.792-.371 1.135 1.135 0 00-.817.308 1.173 1.173 0 00-.112 1.643 1.121 1.121 0 001.609.063zm-10.754 11.964a1.204 1.204 0 00.08-1.673 1.158 1.158 0 00-1.792.101 1.18 1.18 0 00.436 1.756 1.155 1.155 0 001.276-.184zm23.368-10.602a1.135 1.135 0 00-.188-1.721 1.11 1.11 0 00-1.644.499 1.136 1.136 0 00.223 1.222 1.122 1.122 0 00.805.338 1.132 1.132 0 00.804-.338zm-10.399 12.278a1.185 1.185 0 00-.14-1.817 1.168 1.168 0 00-1.299-.028 1.181 1.181 0 00-.522 1.199 1.183 1.183 0 00.681.875 1.141 1.141 0 00.895.019c.143-.056.274-.141.385-.248z" clip-rule="evenodd"/><g fill="#263238" fill-rule="evenodd" clip-rule="evenodd"><path d="M186.823 127.705c0-15.699-14.81-28.424-33.078-28.424-18.267 0-33.077 12.725-33.077 28.424 0 15.7 14.81 28.422 33.077 28.422 18.268 0 33.078-12.725 33.078-28.422z"/><path d="M71.445 303.205a3518.178 3518.178 0 019.523-17.018 3350.485 3350.485 0 0118.024-31.605l4.566-7.848 4.576-7.816 4.626-7.776 4.658-7.745c12.503-20.634 38.102-61.574 51.249-81.941a17.445 17.445 0 002.432-12.958 17.33 17.33 0 00-7.319-10.929c-7.852-5.267-18.524-3.01-23.737 5.07-13.301 20.605-39.047 61.754-51.795 82.801l-4.76 7.916-4.726 7.944-4.665 7.953-4.611 7.964a3005.96 3005.96 0 00-18.22 31.966 4438.905 4438.905 0 00-9.608 17.164l29.787 16.858z"/></g><path fill="#fff" fill-rule="evenodd" d="M56.241 320.289a3290.23 3290.23 0 0110.568-19.13L47.78 290.393l-4.904 8.844a.512.512 0 01-.304.251.49.49 0 01-.373-.048l-.037-.02a15.58 15.58 0 00-6.427-1.806c-4.178-.163-7.483 1.756-9.838 5.797l30.344 16.878z" clip-rule="evenodd"/><path fill="#263238" fill-rule="evenodd" d="M47.589 289.708l-5.15 9.281-.038-.023a15.985 15.985 0 00-6.645-1.868 10.378 10.378 0 00-8.14 3.185 14.827 14.827 0 00-2.413 3.319l11.254 6.253 5.72 3.183 14.253 7.918 5.51-9.975 5.545-10.001-19.896-11.272zm.38 1.367l18.156 10.284a4384.112 4384.112 0 00-10.09 18.266l-13.373-7.45-5.72-3.191-10.349-5.769c2.239-3.546 5.295-5.249 9.118-5.099 2.171.122 4.293.716 6.217 1.741h.025a1 1 0 001.104-.09c.102-.082.187-.184.252-.299l4.66-8.405v.012z" clip-rule="evenodd"/><path fill="#263238" d="M29.15 299.676l29.386 16.437-.482.877-29.387-16.436.482-.878zm15.118.8a4.728 4.728 0 002.915-.996 4.811 4.811 0 001.703-2.586 4.847 4.847 0 00-.22-3.097 4.791 4.791 0 00-2.055-2.313l-.497.875a3.822 3.822 0 011.38 5.134 3.77 3.77 0 01-2.226 1.793 3.741 3.741 0 01-2.833-.29l-.497.876a4.687 4.687 0 002.33.604z"/><g fill-rule="evenodd" clip-rule="evenodd"><path fill="#fff" d="M30.316 58.614c.922.273 1.746.803 2.076 1.7a60.327 60.327 0 003.1 7.048c3.782 7.727 9.032 11.793 15.044 13.354 16.55 4.298 38.882-10.39 52.307-19.926l17.296 23.922c-42.252 32.256-96.593 43.671-116.72-18.31 2.422-.434 24.944-9.166 26.897-7.788z"/><path fill="#263238" d="M119.449 84.61c-13.24 10.048-27.089 17.581-40.078 21.798-14.604 4.74-27.795 5.318-39.206 1.718-16.636-5.248-28.78-19.163-36.107-41.366 1.132-.317 3.375-1.096 6.29-2.108 3.746-1.3 8.406-2.917 12.296-4.093 6.128-1.854 7.205-1.641 7.392-1.532.042.031.09.053.141.069.634.187 1.453.581 1.751 1.393a60.801 60.801 0 003.124 7.106c3.589 7.33 8.78 11.917 15.42 13.622 7.354 1.889 16.65.262 27.631-4.836 9.165-4.255 17.934-10.155 24.627-14.896l16.719 23.124zm-63.563 26.847c7.431 0 15.382-1.365 23.79-4.094 13.222-4.292 27.318-11.986 40.763-22.25a.504.504 0 00.102-.696l-17.296-23.922a.494.494 0 00-.688-.115c-6.707 4.764-15.594 10.784-24.87 15.09-10.768 4.999-19.841 6.605-26.97 4.775-6.346-1.63-11.32-6.039-14.777-13.105a59.417 59.417 0 01-3.08-7c-.345-.936-1.153-1.623-2.344-1.989-1.5-.794-8.13 1.263-20.491 5.553-3.211 1.114-5.987 2.077-6.693 2.204a.5.5 0 00-.385.65c7.411 22.827 19.834 37.135 36.92 42.526 5.016 1.582 10.368 2.373 16.019 2.373z"/><path fill="#fff" d="M20.613 62.242c-.805-3.438-3.86-9.787-2.604-12.995 1.32-2.528 4.875-1.496 5.407 1.25.943 4.123 2.1 8.14 3.507 11.965"/><path fill="#263238" d="M26.922 62.964a.503.503 0 00.465-.676c-1.345-3.654-2.517-7.66-3.487-11.905-.308-1.584-1.562-2.814-3.116-3.045-1.36-.201-2.562.425-3.216 1.675a.206.206 0 00-.022.05c-.97 2.48.36 6.42 1.532 9.896.428 1.264.83 2.458 1.05 3.398a.5.5 0 00.599.373.504.504 0 00.37-.604c-.231-.987-.641-2.203-1.077-3.49-1.059-3.137-2.375-7.036-1.559-9.18.455-.853 1.249-1.263 2.176-1.125a2.79 2.79 0 012.29 2.261c.983 4.304 2.17 8.35 3.527 12.044a.498.498 0 00.468.328z"/><path fill="#fff" d="M20.612 62.242a105.822 105.822 0 01-2.917-10.41c-.214-.936-.724-1.713-1.368-2.226-1.3-1.105-3.328-.708-4.061.869-1.221 3.45 1.905 9.966 2.79 13.68"/><path fill="#263238" d="M15.056 64.657a.501.501 0 00.485-.62c-.256-1.065-.686-2.348-1.144-3.707-1.102-3.273-2.472-7.344-1.671-9.664a2.068 2.068 0 011.43-1.134 2.126 2.126 0 011.85.458 3.481 3.481 0 011.204 1.955c.83 3.64 1.815 7.159 2.932 10.459a.497.497 0 10.94-.325 105.868 105.868 0 01-2.902-10.36c-.229-1.005-.779-1.895-1.545-2.506a3.097 3.097 0 00-2.69-.662 3.058 3.058 0 00-2.13 1.71c-.007.015-.012.03-.02.045-.935 2.645.443 6.736 1.66 10.347.45 1.336.875 2.599 1.119 3.62.054.23.258.384.482.384z"/><path fill="#fff" d="M15.056 64.156a112.52 112.52 0 01-3.082-10.987c-.224-.98-.743-1.796-1.393-2.335-2.367-1.957-5.12.612-4.325 3.671A117.19 117.19 0 009.5 66.07"/><path fill="#263238" d="M9.5 66.572a.5.5 0 00.473-.664 117.764 117.764 0 01-3.23-11.515c-.419-1.609.268-2.901 1.084-3.428.758-.491 1.648-.398 2.442.257.597.497 1.032 1.229 1.223 2.06a112.34 112.34 0 003.094 11.036.497.497 0 10.94-.324 111.767 111.767 0 01-3.066-10.938c-.239-1.045-.793-1.971-1.562-2.61-1.132-.934-2.48-1.056-3.609-.325-1.353.875-1.977 2.73-1.514 4.511.915 4.013 2.012 7.92 3.255 11.6.07.209.264.34.47.34z"/><path fill="#fff" d="M28.109 65.463c-.704-2.352-2.746-5.014-1.813-7.532.813-1.94 3.62-2.134 4.85-.517 1.807 3.63 2.924 7.841 4.926 11.012"/><path fill="#263238" d="M36.071 68.928a.501.501 0 00.42-.771c-1.146-1.815-1.986-3.956-2.877-6.223-.622-1.582-1.263-3.218-2.024-4.745a.501.501 0 00-.05-.08c-.711-.934-1.918-1.415-3.149-1.256-1.168.15-2.123.855-2.554 1.883-.74 1.996.167 4.02.968 5.806.323.726.631 1.411.828 2.065.08.266.355.416.62.336.263-.08.41-.36.332-.625-.216-.718-.55-1.466-.875-2.189-.756-1.688-1.537-3.433-.948-5.022.289-.686.93-1.152 1.756-1.259.866-.112 1.706.208 2.204.836.731 1.475 1.36 3.073 1.967 4.62.868 2.21 1.766 4.497 2.965 6.392a.49.49 0 00.417.232z"/><path fill="#fff" d="M9.5 66.07c-1.681-3.18-1.875-12.82-6.357-12.014-4.713 1.574.1 10.399.801 13.928"/><path fill="#263238" d="M3.943 68.486a.5.5 0 00.487-.6c-.176-.895-.589-2.06-1.064-3.409-1.072-3.031-2.405-6.803-1.447-8.78.268-.556.709-.933 1.345-1.154 2.418-.4 3.408 2.942 4.45 7.35.41 1.736.798 3.374 1.348 4.413.129.245.43.337.671.207a.503.503 0 00.207-.679c-.49-.925-.863-2.503-1.259-4.174-.92-3.893-2.067-8.738-5.626-8.098a.555.555 0 00-.07.017c-.907.304-1.568.868-1.959 1.677-1.142 2.357.269 6.35 1.403 9.558.445 1.257.863 2.445 1.027 3.269a.5.5 0 00.487.403zm95.025-8.704a206.077 206.077 0 0011.921-9.22c6.988-5.66 13.874-6.065 19.075-6.065 9.121 0 10.768 27.089 3.234 33.337a241.428 241.428 0 01-13.955 10.79L98.968 59.782z"/><path fill="#2979FF" d="M111.667 126.049c-.254 2.74 1.884 5.106 4.612 5.106h73.552c2.403 0 4.435-1.794 4.753-4.197L190.777 59.8c1.064-8.047-5.144-15.197-13.193-15.197h-48.106c-10.428.078-18.649 9.49-17.788 19.956l-.023 61.49z"/><path fill="#2979FF" d="M133.319 44.603c6.023-25.578 50.799-7.496 21.722 13.854a1.304 1.304 0 01-1.756-.093l-3.448-3.478-3.437-3.467-6.688 6.552c-2.535 2.637-6.597-10.114-6.393-13.368z"/><path fill="#263238" d="M153.964 58.986c.439 0 .961-.16 1.564-.481 3.762-2 10.122-9.954 9.521-13.958a.374.374 0 00-.425-.316.377.377 0 00-.313.428c.241 1.6-.888 4.3-3.019 7.22-1.934 2.65-4.39 5.045-6.112 5.96-.455.242-1.274.596-1.642.25-.937-.947-2.415-2.437-3.837-3.87l-3.039-3.066a.37.37 0 00-.524-.004l-6.687 6.552c-.249.258-.474.31-.761.183-2.156-.962-5.181-10.367-5-13.257a.375.375 0 00-.349-.4.375.375 0 00-.396.352c-.184 2.933 2.851 12.836 5.443 13.993.571.255 1.135.134 1.59-.34l6.416-6.285 2.78 2.803 3.846 3.88c.252.238.567.356.944.356z"/><path fill="#fff" d="M77.669 108.916c13.485-27.86 3.389-25.894 30.816-15.776 14.83 4.915 37.814 13.17 52.34 6.109 6.239-4.088 5.973-12.62 5.549-19.661l23.491-2.12c1.313-.127 2.499 1.087 2.589 2.74.916 13.483-2.567 29.024-13.605 38.144-25.736 20.789-68.537 3.838-95.472-6.972 1.433.604 4.324 1.798 5.766 2.38-2.444 6.423-14.305 1.427-11.474-4.844z"/><path fill="#263238" d="M191.118 78.384c.493.427.798 1.102.839 1.852.488 7.18-.307 14.275-2.297 20.527-2.295 7.209-6.038 12.996-11.127 17.2-25.694 20.756-69.061 3.35-94.972-7.05a.497.497 0 00-.645.277.503.503 0 00.269.652c1.277.54 3.76 1.566 5.294 2.189-.769 1.522-2.117 2.021-3.157 2.166-2.385.332-5.266-.885-6.701-2.829-.684-.925-1.325-2.411-.503-4.238 3.106-6.418 4.961-11.249 6.316-14.776.575-1.497 1.06-2.76 1.51-3.8.85-1.963.797-3.52 1.76-3.94 1.593-.693 4.61.751 10.34 2.964 2.757 1.064 6.023 2.467 10.27 4.033l2.181.726c7.366 2.456 16.533 5.512 25.53 7.088 10.619 1.86 18.802 1.296 25.016-1.725a.483.483 0 00.055-.03c6.548-4.291 6.175-13.376 5.804-19.626l23.009-2.076a1.64 1.64 0 01.14-.007c.378 0 .752.148 1.069.423zm-11.959 40.359c5.243-4.332 9.094-10.277 11.448-17.674 2.029-6.372 2.839-13.597 2.343-20.895-.055-1.014-.486-1.947-1.183-2.551-.564-.489-1.256-.72-1.949-.654l-23.488 2.12a.5.5 0 00-.452.53c.46 7.64.429 15.416-5.297 19.192-13.658 6.614-35.39-.631-49.774-5.426l-2.167-.722c-4.215-1.555-7.545-2.919-10.22-4.015-5.739-2.35-9.135-3.815-11.11-2.954-1.276.555-1.327 2.242-2.31 4.53-.447 1.041-.926 2.289-1.494 3.767-1.348 3.512-3.196 8.323-6.285 14.705l-.005.012c-.802 1.776-.586 3.644.607 5.26 1.663 2.251 4.873 3.606 7.635 3.223 1.834-.255 3.231-1.262 3.98-2.853 16.618 6.564 38.283 14.339 58.081 14.34 11.667.001 22.681-2.698 31.64-9.935z"/><path fill="#fff" d="M87.776 91.332a482.447 482.447 0 01-9.869-4.454c-1.74-.818-2.588-2.682-1.896-4.16.692-1.48 2.643-2.022 4.358-1.216a426.9 426.9 0 0011.945 5.346"/><path fill="#263238" d="M87.776 91.833a.503.503 0 00.198-.962 477.854 477.854 0 01-9.859-4.45c-.807-.379-1.428-1.035-1.701-1.797-.209-.58-.192-1.182.047-1.692.574-1.227 2.234-1.664 3.699-.975a429.846 429.846 0 0011.96 5.352.496.496 0 00.652-.265.503.503 0 00-.263-.658 429.173 429.173 0 01-11.93-5.34c-1.959-.92-4.21-.267-5.017 1.457-.353.754-.383 1.628-.084 2.462.362 1.011 1.171 1.874 2.22 2.367a481.896 481.896 0 009.88 4.46.493.493 0 00.198.041zm74.718-9.549s-.192-5.372-.85-15.032c-.658-9.659 1.266-17.618 9.617-21.41 6.809-3.158 14.836-.366 19.268 5.603 5.563 8.411 5.962 18.883 6.988 29.29l-35.023 1.549z"/></g><path fill="#263238" fill-rule="evenodd" d="M150.414 23.079h4.682c3.953 0 7.158-3.232 7.158-7.219v-3.518c0-3.987-3.205-7.219-7.158-7.219h-4.682V23.08z" clip-rule="evenodd"/><path fill="#263238" fill-rule="evenodd" d="M131.434 14.367c0 6.851 6.295 12.406 14.059 12.406 7.765 0 14.059-5.555 14.059-12.406 0-6.852-6.294-13.41-14.059-13.41-7.764 0-14.059 6.558-14.059 13.41z" clip-rule="evenodd"/><path fill="#fff" fill-rule="evenodd" d="M130.277 21.27c0 2.11 1.696 3.821 3.788 3.821 2.092 0 3.789-1.71 3.789-3.82 0-2.111-1.697-3.822-3.789-3.822s-3.788 1.71-3.788 3.821z" clip-rule="evenodd"/><path fill="#263238" fill-rule="evenodd" d="M134.065 17.95c1.815 0 3.291 1.49 3.291 3.32 0 1.83-1.476 3.32-3.291 3.32s-3.291-1.49-3.291-3.32c0-1.83 1.476-3.32 3.291-3.32zm0 7.643c2.363 0 4.286-1.94 4.286-4.323 0-2.383-1.923-4.322-4.286-4.322-2.363 0-4.286 1.939-4.286 4.322s1.923 4.323 4.286 4.323z" clip-rule="evenodd"/><path fill="#fff" fill-rule="evenodd" d="M146.775 46.226c4.714 0 9.061-3.646 9.061-8l-4.007-14.965c0-4.354 1.153-7.883-3.562-7.883h-4.974c-4.715 0-3.563 3.53-3.563 7.883v15.082c0 4.354 2.33 7.883 7.045 7.883z" clip-rule="evenodd"/><path fill="#263238" fill-rule="evenodd" d="M155.338 38.291c-.043 3.968-4.026 7.434-8.564 7.434-4.827 0-6.547-3.813-6.547-7.382V23.261c0-.764-.034-1.491-.067-2.194-.091-1.933-.171-3.602.62-4.439.477-.503 1.299-.749 2.512-.749h4.975c1.213 0 2.035.246 2.512.75.791.836.712 2.505.62 4.438a46.03 46.03 0 00-.067 2.194v.067l4.006 14.963zm-8.564 8.437c5.093 0 9.559-3.973 9.559-8.502v-.066l-4.006-14.965c.001-.717.034-1.41.066-2.08.102-2.163.191-4.031-.894-5.179-.675-.713-1.732-1.06-3.232-1.06h-4.975c-1.5 0-2.557.347-3.232 1.06-1.085 1.148-.996 3.016-.894 5.179.033.691.067 1.405.067 2.146v15.082c0 5.094 2.96 8.385 7.541 8.385z" clip-rule="evenodd"/><path fill="#fff" fill-rule="evenodd" d="M143.891 33.166c4.344 0 8.264-2.598 9.987-6.62l.162-.377c2.378-5.551-.165-12.019-5.669-14.417a10.727 10.727 0 00-4.308-.902c-4.344 0-8.264 2.598-9.987 6.62l-.162.377a10.984 10.984 0 00-.126 8.393 10.853 10.853 0 005.796 6.024 10.72 10.72 0 004.307.902z" clip-rule="evenodd"/><path fill="#263238" fill-rule="evenodd" d="M144.062 10.348c1.553 0 3.069.317 4.505.943a11.347 11.347 0 016.06 6.3 11.485 11.485 0 01-.131 8.776l-.162.378c-1.802 4.205-5.901 6.923-10.444 6.923-1.553 0-3.068-.318-4.505-.944-5.755-2.508-8.415-9.27-5.928-15.076l.161-.377c1.802-4.206 5.901-6.923 10.444-6.923zm0 1.003a10.376 10.376 0 00-9.53 6.318l-.162.377c-2.273 5.306.149 11.465 5.41 13.758 1.341.584 2.737.86 4.11.86 4.015 0 7.837-2.364 9.531-6.317l.162-.377c2.272-5.306-.15-11.465-5.411-13.758a10.265 10.265 0 00-4.11-.86z" clip-rule="evenodd"/><path fill="#fff" fill-rule="evenodd" d="M154.076 25.091c2.092 0 3.788-1.71 3.788-3.82 0-2.111-1.696-3.822-3.788-3.822-.262 0-.517.027-.764.078" clip-rule="evenodd"/><path fill="#263238" fill-rule="evenodd" d="M154.075 25.593c2.364 0 4.286-1.94 4.286-4.323 0-2.383-1.922-4.322-4.286-4.322-.29 0-.58.03-.863.087a.502.502 0 00.2.983c.216-.044.44-.067.663-.067 1.815 0 3.292 1.489 3.292 3.32 0 1.83-1.477 3.318-3.292 3.318a.5.5 0 00-.497.502.5.5 0 00.497.502zm-16.829-9.633h3.002c6.171 0 11.174-3.938 11.174-8.796V6.91h-8.315c-3.237 0-5.861 2.066-5.861 4.614v4.437z" clip-rule="evenodd"/><path fill="#263238" d="M151.559 18.515c-1.923 0-3.482-1.573-3.482-3.512 0-1.94 1.559-3.511 3.482-3.511 1.923 0 3.482 1.572 3.482 3.511 0 1.94-1.559 3.512-3.482 3.512z"/><path fill="#2979FF" fill-rule="evenodd" d="M142.321 25.536h-1.88c-.519 0-.903-.76-.787-1.558l.792-5.453c.184-1.265 1.309-1.336 1.556-.098l1.089 5.453c.164.82-.224 1.656-.77 1.656z" clip-rule="evenodd"/><path fill="#263238" fill-rule="evenodd" d="M139.186 33.827L141.341 36a1.29 1.29 0 001.833 0l2.154-2.173a1.314 1.314 0 000-1.848l-2.154-2.173a1.288 1.288 0 00-1.833 0l-2.155 2.172a1.316 1.316 0 000 1.85zm2.67-5.434c1.3 0 2.6-.499 3.589-1.497a.505.505 0 000-.71.494.494 0 00-.703 0 4.062 4.062 0 01-5.772 0 .494.494 0 00-.703 0 .503.503 0 000 .71 5.036 5.036 0 003.589 1.497zm2.956-8.789c.64.062 1.209-.41 1.27-1.056a1.172 1.172 0 00-1.047-1.282 1.166 1.166 0 00-1.27 1.056 1.171 1.171 0 001.047 1.282zm-6.322 0c.64.062 1.208-.41 1.27-1.056a1.172 1.172 0 00-1.047-1.282 1.166 1.166 0 00-1.27 1.056 1.171 1.171 0 001.047 1.282z" clip-rule="evenodd"/><path fill="#2979FF" fill-rule="evenodd" d="M136.588 14c-2.326 0-4.219 1.908-4.219 4.254 0 2.347 1.893 4.255 4.219 4.255 2.326 0 4.218-1.908 4.218-4.255 0-.142-.007-.282-.02-.42.299-.217.582-.136.77-.026a4.123 4.123 0 00-.024.446c0 2.347 1.893 4.255 4.219 4.255 2.322 0 4.213-1.902 4.219-4.244h2.833a.5.5 0 00.498-.501.5.5 0 00-.498-.502h-2.949c-.445-1.869-2.115-3.262-4.103-3.262-1.825 0-3.382 1.174-3.969 2.813a1.625 1.625 0 00-1.224.003c-.586-1.64-2.144-2.816-3.97-2.816zm9.163 1.003c1.777 0 3.224 1.459 3.224 3.251 0 1.793-1.447 3.252-3.224 3.252-1.778 0-3.224-1.459-3.224-3.252 0-1.792 1.446-3.25 3.224-3.25zm-9.163 0c1.777 0 3.224 1.459 3.224 3.251 0 1.793-1.447 3.252-3.224 3.252-1.778 0-3.224-1.459-3.224-3.252 0-1.792 1.446-3.25 3.224-3.25z" clip-rule="evenodd"/></svg>