<svg xmlns="http://www.w3.org/2000/svg" width="201" height="321" fill="none"><path fill="#fff" fill-rule="evenodd" d="M93.24 296.891h-22.3V167.294h22.3v129.597z" clip-rule="evenodd"/><path fill="#263238" fill-rule="evenodd" d="M93.749 297.395H70.431v-130.6h23.318v130.6zm-1.017-1.007H71.448V167.792h21.284v128.596z" clip-rule="evenodd"/><path fill="#fff" fill-rule="evenodd" d="M78.96 319.987c-.26-6.311 9.33-6.308 9.07 0h5.21v-52.204H70.928c.01 6.497-.007 33.258 0 40.27a.513.513 0 01-.553.503c-5.364-.22-12.892 3.864-12.577 11.431H78.96z" clip-rule="evenodd"/><path fill="#263238" fill-rule="evenodd" d="M70.421 267.284v40.769c-.883.004-13.116.178-13.136 12.437h22.257c-.99-6.298 8.9-6.295 7.908 0h6.299v-53.206H70.421zm1.017.998h21.294v51.201h-4.186c-.25-6.286-9.85-6.283-10.1 0H58.332c-.086-6.976 7.202-10.642 12.045-10.423.561.032 1.073-.449 1.062-1.007v-39.771z" clip-rule="evenodd"/><path fill="#263238" fill-rule="evenodd" d="M93.26 315.433H58.898v-1.007H93.26v1.007zm-22.828-15.079c3.136-.014 4.777-2.433 4.777-4.815 0-2.382-1.641-4.801-4.777-4.814l-.005 1.007c2.587.011 3.765 1.981 3.765 3.807 0 1.826-1.178 3.796-3.765 3.808l.005 1.007z" clip-rule="evenodd"/><path fill="#263238" fill-rule="evenodd" d="M93.26 315.433H58.898v-1.007H93.26v1.007z" clip-rule="evenodd"/><g fill-rule="evenodd" clip-rule="evenodd"><path fill="#2979FF" d="M58.375 177.519h45.106l-5.085-44.787c0-9.459-7.82-17.127-17.468-17.127-9.647 0-17.467 7.668-17.467 17.127l-5.086 44.787z"/><path fill="#263238" d="M85.263 127.194c1.534.169 1.77-2.199.229-2.323-1.534-.168-1.77 2.199-.229 2.323zm-16.37 0c1.534.169 1.77-2.199.228-2.323-1.533-.168-1.77 2.199-.228 2.323zm23.841 10.717c1.534.168 1.77-2.2.229-2.324-1.534-.168-1.77 2.2-.229 2.324zm-16.371 0c1.534.168 1.77-2.2.228-2.324-1.533-.168-1.77 2.2-.228 2.324zm8.9 10.716c1.534.169 1.77-2.199.229-2.323-1.534-.169-1.77 2.199-.229 2.323zm-16.37 0c1.534.169 1.77-2.199.228-2.323-1.533-.169-1.77 2.199-.228 2.323zm23.841 10.717c1.534.168 1.77-2.2.229-2.324-1.534-.168-1.77 2.199-.229 2.324zm-16.371 0c1.534.168 1.77-2.2.228-2.324-1.533-.168-1.77 2.199-.228 2.324zm8.9 10.716c1.534.168 1.77-2.2.229-2.324-1.534-.168-1.77 2.2-.229 2.324zm-16.37 0c1.534.168 1.77-2.2.228-2.324-1.533-.168-1.77 2.2-.228 2.324z"/></g><g fill-rule="evenodd" clip-rule="evenodd"><path fill="#fff" d="M124.922 296.891h-22.301V167.294h22.301v129.597z"/><path fill="#263238" d="M125.431 297.395h-23.319v-130.6h23.319v130.6zm-1.018-1.007H103.13V167.792h21.283v128.596z"/><path fill="#fff" d="M116.899 319.987c.259-6.311-9.33-6.308-9.07 0h-5.209v-52.204h22.31c-.009 6.497.007 33.259 0 40.27a.513.513 0 00.553.503c5.364-.219 12.892 3.864 12.577 11.431h-21.161z"/><path fill="#263238" d="M125.44 267.284v40.769c.884.004 13.117.178 13.137 12.437H116.32c.989-6.298-8.899-6.295-7.908 0h-6.299v-53.206h23.327zm-1.017.998H103.13v51.201h4.186c.25-6.286 9.85-6.283 10.1 0h20.113c.087-6.976-7.202-10.642-12.045-10.423-.561.032-1.072-.449-1.061-1.007v-39.771z"/><path fill="#263238" d="M136.962 315.433h-34.361v-1.007h34.361v1.007zm-11.535-15.079l.005-1.007c-2.587-.012-3.765-1.982-3.765-3.808.001-1.825 1.179-3.796 3.764-3.807l-.004-1.007c-3.136.013-4.777 2.432-4.777 4.814s1.641 4.801 4.777 4.815z"/><g fill="#263238"><path d="M132.739 126.558c-.116-37.276-67.536-37.272-67.646.002.117 37.274 67.536 37.27 67.646-.002z"/><path d="M137.488 177.267H92.382l5.086-44.787c0-9.459 7.82-17.127 17.467-17.127 9.647 0 17.467 7.668 17.467 17.127l5.086 44.787z"/></g></g><g fill-rule="evenodd" clip-rule="evenodd"><path fill="#fff" d="M1.502 16.098l25.117 1.024c2.69.114 4.799 1.883 4.731 3.945-.152 18.442-1.441 37.914 5.016 55.351.115.292.457.361.699.188 7.153-4.545 12.81-11.49 18.184-18.236a201.002 201.002 0 006.437-8.814c4.465-6.345 13.373-7.47 20.12-3.551 7.216 4.162 9.413 13.466 4.653 20.33-4.83 6.966-9.881 13.63-15.649 20.014-5.551 6.099-12.14 12.386-19.705 16.532-13.933 8.23-31.138 4.77-39.454-9.352-12.44-21.528-10.617-53.28-10.149-77.43z"/><path fill="#263238" d="M81.547 46.44c3.347 1.93 5.75 5.168 6.592 8.885.848 3.74.102 7.549-2.1 10.726-5.47 7.888-10.43 14.23-15.61 19.962-7.062 7.76-13.282 12.981-19.571 16.428-6.981 4.123-14.86 5.356-22.2 3.481-6.924-1.769-12.808-6.26-16.568-12.646C.687 73.543 1.351 44.886 1.883 21.86c.04-1.779.081-3.527.117-5.238l24.596 1.003c2.399.1 4.303 1.637 4.245 3.425-.02 2.349-.058 4.747-.095 7.066-.26 16.302-.53 33.16 5.141 48.475a.946.946 0 00.619.573 1 1 0 00.842-.141c7.477-4.754 13.477-12.288 18.299-18.342 2.114-2.728 4.286-5.7 6.458-8.841 2.565-3.645 6.85-5.6 11.358-5.6 2.724 0 5.528.714 8.084 2.198zm-30.182 56.874c6.377-3.495 12.68-8.78 19.822-16.628 5.21-5.766 10.195-12.141 15.69-20.065 2.365-3.41 3.165-7.5 2.255-11.517-.905-3.989-3.482-7.464-7.071-9.534-7.24-4.205-16.374-2.58-20.793 3.699a201.568 201.568 0 01-6.424 8.794c-4.767 5.986-10.704 13.44-18.031 18.104-5.576-15.111-5.309-31.849-5.05-48.035.037-2.32.075-4.72.095-7.06.076-2.325-2.265-4.328-5.219-4.453L1.522 15.596a.509.509 0 00-.53.493c-.035 1.873-.08 3.792-.127 5.749-.534 23.15-1.2 51.962 10.343 71.941 3.9 6.624 10.007 11.281 17.196 13.118 2.323.594 4.699.887 7.082.887 5.417 0 10.877-1.516 15.879-4.47z"/><path fill="#fff" d="M19.435 18.267c.147-3.689.332-7.379.545-11.068.302-4.633 6.248-4.266 5.992.345-.262 4.48-.475 8.956-.625 13.422"/><path fill="#263238" d="M25.346 21.47a.506.506 0 00.509-.487c.143-4.273.354-8.784.625-13.41.144-2.603-1.534-4.068-3.266-4.17-2.288-.137-3.614 1.79-3.743 3.763a606.6 606.6 0 00-.544 11.082.506.506 0 00.488.523.507.507 0 00.528-.484c.14-3.516.317-7.133.544-11.06.132-2.037 1.478-2.89 2.666-2.82 1.192.071 2.424 1.074 2.31 3.11a545.298 545.298 0 00-.625 13.432c-.01.278.21.511.491.52h.017z"/><path fill="#fff" d="M19.435 18.267c.146-3.689.332-7.379.544-11.068.12-1.958-1.121-3.631-2.775-3.737-1.654-.106-3.096 1.412-3.218 3.391a625.3 625.3 0 00-.55 11.186"/><path fill="#263238" d="M19.435 18.77a.506.506 0 00.508-.483c.14-3.516.318-7.134.544-11.06.138-2.229-1.32-4.144-3.25-4.268-.83-.053-1.66.24-2.33.825-.834.727-1.354 1.835-1.428 3.038-.23 3.975-.41 7.637-.55 11.197a.51.51 0 001.016.04c.14-3.554.32-7.21.55-11.177.057-.937.453-1.791 1.085-2.343.472-.412 1.019-.611 1.59-.575 1.373.088 2.405 1.525 2.302 3.204a615.708 615.708 0 00-.545 11.08.506.506 0 00.488.523h.02z"/><path fill="#fff" d="M13.437 18.04c.148-3.733.335-7.462.55-11.187.122-1.976-1.12-3.663-2.773-3.77-1.655-.106-3.097 1.427-3.22 3.424a616.324 616.324 0 00-.556 11.304"/><path fill="#263238" d="M13.435 18.543a.506.506 0 00.508-.484c.142-3.554.321-7.21.55-11.178.138-2.246-1.319-4.176-3.248-4.3-.826-.054-1.652.239-2.319.823-.841.733-1.365 1.853-1.442 3.073a626.182 626.182 0 00-.556 11.314.509.509 0 001.017.04c.142-3.592.323-7.286.554-11.295.059-.952.46-1.82 1.099-2.377.47-.411 1.017-.61 1.581-.573 1.372.088 2.403 1.54 2.298 3.236a619.835 619.835 0 00-.55 11.197.505.505 0 00.508.524z"/><path fill="#fff" d="M25.24 24.528c.049-1.993.12-3.99.192-5.988.208-4.579 6.16-4.318 5.998.228-.17 4.416-.28 8.817-.313 13.19"/><path fill="#263238" d="M31.117 32.462c.28 0 .506-.224.509-.5.031-4.203.133-8.513.313-13.175.091-2.574-1.617-3.99-3.352-4.058-2.284-.093-3.575 1.837-3.663 3.789a520.75 520.75 0 00-.192 5.998.508.508 0 001.017.024c.047-1.92.114-3.846.191-5.982.091-2.006 1.42-2.87 2.606-2.823 1.195.047 2.448 1.011 2.376 3.016-.18 4.67-.282 8.99-.313 13.203a.506.506 0 00.504.508h.004z"/><path fill="#fff" d="M7.438 17.81C7.026 14.383 9.85 5.918 5.063 5.265c-4.921.14-2.95 8.914-3.624 12.318"/><path fill="#263238" d="M7.438 18.315a.506.506 0 00.506-.563c-.112-.922.033-2.296.185-3.75.407-3.878.913-8.703-2.998-9.237a.493.493 0 00-.084-.004c-4.063.116-4.008 5.087-3.962 9.082.015 1.417.03 2.755-.145 3.643a.504.504 0 00.402.59.506.506 0 00.595-.396c.196-.99.18-2.378.165-3.848-.05-4.497.135-7.948 2.932-8.063 2.678.4 2.54 3.769 2.083 8.129-.158 1.511-.308 2.94-.186 3.973a.51.51 0 00.507.444z"/><path fill="#2979FF" d="M55.83 124.966c-.26 2.75 1.926 5.126 4.716 5.126h75.205c2.458 0 4.536-1.802 4.86-4.213l-3.892-67.408c1.087-8.077-5.26-15.254-13.49-15.254H74.042c-10.663.078-19.068 9.526-18.189 20.03l-.023 61.719z"/><path fill="#263238" d="M77.968 43.217c6.158-25.673 51.941-7.523 22.211 13.906-.534.43-1.31.388-1.796-.094l-3.526-3.49-3.514-3.48c-1.683 1.62-5.144 4.946-6.838 6.576-2.592 2.647-6.745-10.151-6.537-13.418zm38.666 9.768c1.545.017 1.537-2.385-.007-2.357-1.545-.018-1.537 2.384.007 2.357zm-9.211 21.631c1.545.018 1.537-2.384-.007-2.357-1.545-.018-1.537 2.385.007 2.357zm8.518 10.034c1.545.017 1.537-2.386-.008-2.358-1.544-.017-1.536 2.385.008 2.357zm15.17 0c1.545.017 1.537-2.386-.008-2.358-1.544-.017-1.537 2.385.008 2.357zm-5.229 9.892c1.544.017 1.536-2.385-.008-2.357-1.545-.018-1.537 2.384.008 2.357zm-16.291 1.608c1.545.017 1.537-2.385-.007-2.358-1.545-.017-1.537 2.385.007 2.358zm24.807 8.425c1.545.018 1.537-2.384-.008-2.357-1.544-.017-1.536 2.385.008 2.357zm-16.289 1.608c1.545.017 1.537-2.385-.008-2.357-1.544-.018-1.537 2.384.008 2.357zm9.94 9.893c1.544.017 1.536-2.385-.008-2.358-1.545-.017-1.537 2.385.008 2.358zm-16.29 1.607c1.545.018 1.537-2.385-.007-2.357-1.545-.017-1.537 2.385.007 2.357zm24.808 8.426c1.545.018 1.537-2.384-.008-2.357-1.544-.018-1.537 2.384.008 2.357zm-16.29 1.607c1.545.018 1.537-2.384-.008-2.357-1.544-.017-1.537 2.385.008 2.357zM73.324 53.082c1.545.018 1.537-2.384-.008-2.357-1.544-.017-1.537 2.385.008 2.357zm24.808 8.426c1.544.017 1.536-2.385-.008-2.357-1.545-.018-1.537 2.384.008 2.357zm-16.29 1.607c1.544.018 1.536-2.384-.008-2.357-1.545-.017-1.537 2.385.008 2.357zm9.94 9.893c1.544.018 1.537-2.384-.008-2.357-1.544-.017-1.537 2.385.008 2.358zM75.49 74.616c1.546.018 1.538-2.384-.007-2.357-1.544-.018-1.537 2.385.008 2.357zm24.81 8.426c1.545.017 1.537-2.385-.007-2.358-1.545-.017-1.537 2.385.007 2.358zM84.01 84.65c1.545.017 1.537-2.386-.007-2.358-1.545-.017-1.537 2.385.007 2.357zm9.94 9.892c1.544.017 1.537-2.385-.008-2.357-1.544-.018-1.537 2.384.008 2.357zM77.66 96.15c1.544.017 1.537-2.385-.008-2.358-1.544-.017-1.537 2.385.008 2.358zm24.808 8.425c1.545.018 1.537-2.384-.007-2.357-1.545-.017-1.537 2.385.007 2.357zm-16.29 1.608c1.545.017 1.537-2.385-.007-2.357-1.545-.018-1.537 2.384.007 2.357zm9.941 9.893c1.544.017 1.537-2.385-.008-2.358-1.544-.017-1.537 2.385.008 2.358zm-16.291 1.607c1.544.018 1.537-2.385-.008-2.357-1.544-.017-1.537 2.385.008 2.357zm24.808 8.426c1.545.018 1.537-2.384-.007-2.357-1.545-.018-1.537 2.384.007 2.357zm-16.29 1.607c1.545.018 1.537-2.384-.007-2.357-1.545-.017-1.537 2.385.007 2.357zM66.2 61.508c1.544.017 1.537-2.385-.008-2.357-1.544-.018-1.536 2.384.008 2.357zm-6.35 11.5c1.545.018 1.537-2.384-.007-2.357-1.545-.017-1.537 2.385.007 2.358zm8.519 10.034c1.544.017 1.537-2.385-.008-2.358-1.544-.017-1.537 2.385.008 2.358zm-6.349 11.5c1.544.017 1.536-2.385-.009-2.357-1.544-.018-1.536 2.384.008 2.357zm8.516 10.033c1.544.018 1.537-2.384-.008-2.357-1.544-.017-1.537 2.385.008 2.357zm-6.349 11.501c1.545.017 1.537-2.385-.007-2.358-1.545-.017-1.537 2.385.007 2.358zm8.518 10.033c1.544.018 1.537-2.384-.008-2.357-1.544-.018-1.537 2.384.008 2.357z"/><path fill="#fff" d="M169.296 147.371l-18.648-16.69c-1.719-1.527-2.672-4.156-1.187-5.941 6.971-8.079 25.269-29.636 19.352-40.105-9.079-9.968-29.695-10.792-42.893-11.411-7.411-.295-12.347-7.314-12.867-14.626-.619-7.962 5.287-15.222 13.464-15.084 11.921.267 24.184 1.44 35.971 4.695 21.253 5.358 39.896 21.03 37.409 44.613-2.362 21.344-16.903 39.127-30.601 54.549z"/><path fill="#263238" d="M126.29 44.016c.073 0 .145 0 .218.002 13.842.31 25.568 1.839 35.844 4.676 11.053 2.787 20.769 8.23 27.369 15.328 7.463 8.027 10.807 17.968 9.67 28.748-2.309 20.869-16.108 38.066-30.136 53.885l-18.266-16.347c-1.555-1.382-2.404-3.722-1.135-5.248 6.331-7.336 25.615-29.68 19.403-40.67a.553.553 0 00-.066-.091c-9.091-9.982-29.302-10.926-42.676-11.55l-.571-.028c-7.411-.294-11.91-7.514-12.384-14.158-.308-3.97 1.049-7.857 3.723-10.668 2.385-2.506 5.576-3.879 9.007-3.879zm43.006 103.858l.029-.001a.509.509 0 00.353-.17c6.854-7.715 13.972-16.099 19.603-25.121 6.408-10.269 10.046-19.985 11.122-29.705 1.168-11.078-2.267-21.291-9.933-29.537-6.732-7.24-16.625-12.787-27.856-15.62-10.348-2.856-22.155-4.398-36.086-4.709-3.811-.063-7.351 1.425-9.986 4.194-2.87 3.016-4.326 7.183-3.996 11.432.504 7.077 5.356 14.772 13.354 15.09l.568.027c13.185.616 33.103 1.546 41.929 11.177 2.399 4.318.764 11.179-4.862 20.393-4.87 7.976-11.591 15.763-14.46 19.089-1.663 1.999-.677 4.945 1.234 6.643l18.646 16.688a.51.51 0 00.341.13z"/><path fill="#fff" d="M156.903 134.355a265.475 265.475 0 01-7.593 8.054c-1.375 1.405-3.461 1.588-4.633.432-1.177-1.161-1.018-3.198.325-4.571 3.108-3.172 6.133-6.4 9.042-9.689"/><path fill="#263238" d="M146.618 144.103h.032c1.097-.01 2.2-.499 3.025-1.343a264.03 264.03 0 007.608-8.07.5.5 0 00-.041-.711.512.512 0 00-.718.041 261.95 261.95 0 01-7.579 8.039c-.638.652-1.477 1.029-2.304 1.037h-.023c-.62 0-1.181-.217-1.581-.612-.969-.954-.82-2.687.33-3.863a261.375 261.375 0 009.06-9.708.5.5 0 00-.048-.71.511.511 0 00-.718.047 260.886 260.886 0 01-9.024 9.67c-1.536 1.57-1.678 3.937-.318 5.278.592.584 1.407.905 2.299.905z"/><path fill="#fff" d="M156.903 134.355a265.475 265.475 0 01-7.593 8.054c-1.37 1.401-1.549 3.458-.372 4.619 1.172 1.155 3.278.953 4.68-.48a272.23 272.23 0 007.762-8.233"/><path fill="#263238" d="M150.859 148.279h.033c1.115-.01 2.242-.513 3.09-1.38a269.79 269.79 0 007.776-8.249.5.5 0 00-.04-.711.513.513 0 00-.718.04 267.851 267.851 0 01-7.748 8.219c-.661.675-1.524 1.066-2.369 1.074-.626.007-1.188-.208-1.587-.601-.968-.954-.798-2.709.378-3.911a262.87 262.87 0 007.608-8.07.499.499 0 00-.041-.71.51.51 0 00-.718.04 264.43 264.43 0 01-7.579 8.039c-1.561 1.596-1.725 3.985-.366 5.325.586.578 1.395.895 2.281.895z"/><path fill="#fff" d="M161.38 138.315a273.462 273.462 0 01-7.762 8.234c-1.398 1.427-1.596 3.504-.419 4.666 1.171 1.155 3.298.933 4.727-.527a276.55 276.55 0 007.93-8.413"/><path fill="#263238" d="M155.101 152.455h.033c1.134-.01 2.284-.527 3.156-1.417a276.434 276.434 0 007.945-8.428.5.5 0 00-.041-.711.51.51 0 00-.718.04 275.507 275.507 0 01-7.916 8.398c-.684.698-1.571 1.104-2.435 1.111-.635.007-1.171-.198-1.569-.59-.967-.955-.776-2.731.426-3.959a269.79 269.79 0 007.776-8.249.5.5 0 00-.04-.711.514.514 0 00-.719.04 269.008 269.008 0 01-7.747 8.219c-1.614 1.649-1.796 4.009-.414 5.373.58.571 1.382.884 2.263.884z"/><path fill="#fff" d="M156.334 125.94c-2.104 2.062-5.019 7.647-8.425 4.961-1.213-1.111-1.18-3.125.069-4.497 2.864-3.185 5.617-6.414 8.181-9.685"/><path fill="#263238" d="M149.766 132.122c.704 0 1.427-.244 2.165-.733 1.225-.811 2.324-2.177 3.294-3.383.527-.655 1.024-1.274 1.467-1.708a.5.5 0 00.004-.712.513.513 0 00-.72-.004c-.485.476-1.001 1.118-1.547 1.797-.923 1.148-1.97 2.449-3.063 3.173-1.153.764-2.118.754-3.125-.033-.993-.925-.943-2.616.115-3.778 3.104-3.452 5.787-6.628 8.204-9.713a.5.5 0 00-.09-.707.512.512 0 00-.713.089c-2.404 3.067-5.072 6.227-8.158 9.659-1.432 1.572-1.449 3.906-.036 5.201l.029.025c.699.551 1.426.827 2.174.827z"/><path fill="#fff" d="M165.857 142.274c-1.907 2.939-9.731 7.714-6.546 11.268 3.799 3.11 8.327-5.086 11.023-7.308"/><path fill="#263238" d="M161.114 154.745c2.546 0 5.121-3.082 7.12-5.475.897-1.074 1.744-2.088 2.425-2.649a.502.502 0 00.065-.71.512.512 0 00-.716-.064c-.754.621-1.63 1.67-2.558 2.781-2.952 3.534-5.575 6.315-7.785 4.551-1.743-1.995.578-4.509 3.792-7.584 1.152-1.102 2.24-2.144 2.827-3.049a.5.5 0 00-.153-.696.511.511 0 00-.702.152c-.524.806-1.571 1.808-2.679 2.869-2.852 2.729-6.401 6.125-3.82 9.005.017.02.036.038.056.054.698.572 1.412.815 2.128.815z"/></g><path fill="#263238" fill-rule="evenodd" d="M75.525 14.864c0 7.87 6.931 14.25 15.481 14.25s15.481-6.38 15.481-14.25c0-7.869-6.93-14.248-15.481-14.248-8.55 0-15.481 6.38-15.481 14.248z" clip-rule="evenodd"/><path fill="#fff" fill-rule="evenodd" d="M74.757 19.719c0 2.118 1.734 3.835 3.873 3.835 2.14 0 3.874-1.717 3.874-3.835s-1.734-3.835-3.874-3.835-3.873 1.717-3.873 3.835z" clip-rule="evenodd"/><path fill="#263238" fill-rule="evenodd" d="M78.63 16.387c1.855 0 3.365 1.495 3.365 3.332 0 1.837-1.51 3.331-3.366 3.331-1.855 0-3.365-1.494-3.365-3.331s1.51-3.332 3.365-3.332zm0 7.67c2.416 0 4.382-1.946 4.382-4.338 0-2.392-1.966-4.339-4.383-4.339-2.416 0-4.382 1.947-4.382 4.339 0 2.392 1.966 4.338 4.382 4.338z" clip-rule="evenodd"/><path fill="#fff" fill-rule="evenodd" d="M91.626 44.768c4.82 0 9.265-3.66 9.265-8.03l-4.097-15.02c0-4.37 1.178-7.913-3.643-7.913h-5.086c-4.82 0-3.642 3.542-3.642 7.912v15.139c0 4.37 2.382 7.912 7.203 7.912z" clip-rule="evenodd"/><path fill="#263238" fill-rule="evenodd" d="M100.382 36.803c-.044 3.983-4.117 7.462-8.756 7.462-4.936 0-6.694-3.828-6.694-7.41V21.718c0-.767-.035-1.496-.07-2.201-.093-1.94-.174-3.616.635-4.456.487-.506 1.327-.752 2.569-.752h5.086c1.24 0 2.081.246 2.568.752.809.84.728 2.515.635 4.455-.034.706-.07 1.435-.07 2.202v.067l4.097 15.02zm-8.756 8.469c5.206 0 9.773-3.988 9.773-8.534v-.067l-4.096-15.02c.002-.72.035-1.415.068-2.088.104-2.17.195-4.046-.915-5.198-.689-.716-1.77-1.064-3.304-1.064h-5.086c-1.535 0-2.616.348-3.305 1.064-1.11 1.152-1.02 3.027-.914 5.198.033.694.068 1.411.068 2.154v15.139c0 5.112 3.026 8.416 7.71 8.416z" clip-rule="evenodd"/><path fill="#fff" fill-rule="evenodd" d="M88.677 31.66c4.442 0 8.45-2.609 10.212-6.645l.165-.38c2.432-5.57-.169-12.062-5.797-14.47a11.14 11.14 0 00-4.404-.905c-4.442 0-8.45 2.608-10.212 6.645l-.165.378c-2.432 5.572.169 12.064 5.797 14.471 1.404.6 2.886.905 4.404.905z" clip-rule="evenodd"/><path fill="#263238" fill-rule="evenodd" d="M88.851 8.756c1.588 0 3.138.32 4.607.947a11.489 11.489 0 016.196 6.323 11.333 11.333 0 01-.134 8.81l-.166.378c-1.842 4.221-6.033 6.949-10.678 6.949a11.65 11.65 0 01-4.606-.947 11.49 11.49 0 01-6.197-6.323 11.331 11.331 0 01.135-8.81l.165-.378c1.842-4.221 6.034-6.949 10.678-6.949zm0 1.007c-4.105 0-8.013 2.373-9.744 6.341l-.165.379c-2.324 5.325.152 11.508 5.531 13.809 1.371.586 2.799.864 4.203.864 4.105 0 8.013-2.373 9.745-6.341l.165-.379c2.324-5.325-.153-11.508-5.532-13.808a10.665 10.665 0 00-4.203-.865z" clip-rule="evenodd"/><path fill="#fff" fill-rule="evenodd" d="M99.09 23.554c2.14 0 3.874-1.717 3.874-3.835s-1.734-3.836-3.874-3.836a3.93 3.93 0 00-.78.079" clip-rule="evenodd"/><path fill="#263238" fill-rule="evenodd" d="M99.09 24.058c2.416 0 4.382-1.947 4.382-4.34 0-2.391-1.966-4.338-4.383-4.338-.296 0-.593.03-.882.088a.504.504 0 10.204.987c.221-.045.45-.068.678-.068 1.856 0 3.365 1.495 3.365 3.332 0 1.837-1.509 3.331-3.365 3.331a.506.506 0 00-.508.504c0 .278.228.504.508.504z" clip-rule="evenodd"/><path fill="#263238" d="M96.619 17.032c-1.967 0-3.56-1.578-3.56-3.525 0-1.947 1.593-3.525 3.56-3.525 1.966 0 3.56 1.579 3.56 3.525 0 1.947-1.594 3.525-3.56 3.525z"/><path fill="#263238" d="M85.175 14.262c-5.477 0-9.917-2.48-9.917-5.538 0-3.06 4.44-5.54 9.917-5.54 5.478 0 9.918 2.48 9.918 5.54 0 3.059-4.44 5.538-9.918 5.538z"/><path fill="#2979FF" fill-rule="evenodd" d="M87.172 24.08H85.25c-.53 0-.923-.764-.805-1.564l.81-5.473c.188-1.27 1.339-1.341 1.591-.099l1.113 5.473c.168.824-.23 1.662-.787 1.662z" clip-rule="evenodd"/><path fill="#263238" fill-rule="evenodd" d="M99.143 2.6s4.243 9.187 6.34 14.186c2.097 4.998 6.18 4.789 6.18 4.789v-7.792c0-3.098-.1-8.128-2.995-10.903-5.433-5.209-9.525-.28-9.525-.28zM86.698 28.766c2.664 0 3.66-2.03 3.814-3.104a.5.5 0 00-.12-.4.51.51 0 00-.384-.174h-6.62a.51.51 0 00-.385.173.5.5 0 00-.12.401l.014.087c.194 1.092 1.206 3.017 3.8 3.017zm-4.956-9.729c.101 0 .204-.03.294-.094l2.24-1.577a.502.502 0 00-.019-.833l-2.24-1.435a.512.512 0 00-.703.15.5.5 0 00.15.696l1.611 1.031-1.629 1.148a.5.5 0 00-.12.702.51.51 0 00.416.212zm9.613 0a.509.509 0 01-.294-.093l-2.24-1.578a.502.502 0 01.019-.833l2.24-1.434a.512.512 0 01.703.15.5.5 0 01-.151.695l-1.61 1.032 1.628 1.148a.5.5 0 01.12.702.509.509 0 01-.415.211z" clip-rule="evenodd"/></svg>