<?xml version="1.0" encoding="UTF-8"?> <svg xmlns="http://www.w3.org/2000/svg" width="30" height="40" fill="none" viewBox="0 0 30 40"> <path fill="#263238" stroke="#263238" d="M16.788 33.703c-4.076.967-8.14 1.985-12.206 3.003-1.166.292-2.331.584-3.497.874-.06.015-.126.024-.192.033-.149.02-.299.04-.377.127l.37.337H.884m15.903-4.374l.115.487m-.115-.487l.115.487s0 0 0 0m-.115-.487c.552-.13 1.518.042 1.758.423.544.87-.194 1.449-.957 1.851-.06.033-.126.055-.192.077l.727-1.66m-1.221-.204c-4.072.966-8.133 1.983-12.197 3-1.167.292-2.333.585-3.5.876h-.002c-.075.018-.15.03-.205.037l-.046.006-.096.015c-.006 0-.012.002-.017.003m16.063-3.937c.184-.044.485-.042.774.022.14.03.258.071.344.115.079.04.102.068.102.068s0 0 0 0M.84 38.127l.045-.05m-.045.05a6.62 6.62 0 00-.137.159l.182-.21m-.045.051c-.022.004-.031.007-.032.008 0 0 0 0 0 0 .001-.001.038-.015.077-.058m17.239-3.682c.093.15.111.253.11.319a.41.41 0 01-.086.227c-.139.198-.42.398-.792.594a.395.395 0 01-.077.03l-.146.052-.404.151.015.074-2.731.675a930.835 930.835 0 01-7.554 1.849l-.182.043c-1.786.427-3.551.849-5.33 1.09a.276.276 0 01-.082-.028h0c-.372-.178-.52-.757-.163-1.185l17.42-3.894.42-.263-.42.263.002.003zM3.973 18.93h0c.078-.259.184-.362.268-.412.094-.056.236-.088.453-.074.219.014.469.072.748.15.095.027.2.059.307.091.18.055.369.111.53.152h0c4.667 1.18 9.327 2.389 13.977 3.63h0c.657.174 1.258.41 1.566.761a.21.21 0 01.009.032v.002c.101.47-.35.954-.88.875a13.436 13.436 0 01-1.334-.247h0c-4.57-1.161-9.137-2.322-13.685-3.549-.193-.052-.42-.097-.632-.14-.097-.018-.19-.037-.277-.056-.301-.064-.556-.134-.754-.23-.192-.095-.287-.195-.332-.3-.047-.109-.08-.31.035-.685zM16.468 1.598h0a1.418 1.418 0 01-.042-.605c.023-.183.069-.353.128-.488a1.78 1.78 0 01.741.105h0c.128.056.266.163.434.331.082.082.164.17.253.267l.002.001c.087.094.182.197.281.295l1.92 1.9c2.676 2.65 5.35 5.297 8.003 7.968h0c.526.528.995 1.15 1.31 1.8l.001.018h0c-.003.394-.46.678-.86.444h0c-.327-.192-.575-.358-.776-.554h0A1310.199 1310.199 0 0117.479 2.816h0c-.067-.068-.133-.131-.196-.193-.156-.152-.302-.293-.438-.447-.187-.21-.314-.4-.376-.58z"></path> </svg> 