<?xml version="1.0" encoding="UTF-8"?> <svg xmlns="http://www.w3.org/2000/svg" width="30" height="30" fill="none" viewBox="0 0 30 30"> <path fill="#2979FF" d="M26.25 10c-1.813 0-2.825 1.8-2.413 3.137l-4.437 4.45a2.546 2.546 0 00-1.3 0L14.912 14.4c.425-1.338-.587-3.15-2.412-3.15-1.813 0-2.838 1.8-2.412 3.15l-5.7 5.687c-1.338-.412-3.138.6-3.138 2.413 0 1.375 1.125 2.5 2.5 2.5 1.813 0 2.825-1.8 2.412-3.137l5.688-5.7c.375.112.925.112 1.3 0l3.187 3.187c-.425 1.337.588 3.15 2.413 3.15 1.813 0 2.837-1.8 2.413-3.15l4.45-4.438c1.337.413 3.137-.6 3.137-2.412 0-1.375-1.125-2.5-2.5-2.5z"></path> <path fill="#2979FF" d="M18.75 11.25l1.175-2.588L22.5 7.5l-2.575-1.162L18.75 3.75 17.6 6.338 15 7.5l2.6 1.162 1.15 2.588zM4.375 13.75L5 11.25l2.5-.625L5 10l-.625-2.5L3.75 10l-2.5.625 2.5.625.625 2.5z"></path> </svg> 