<?xml version="1.0" encoding="UTF-8"?> <svg xmlns="http://www.w3.org/2000/svg" width="120" height="32" fill="none" viewBox="0 0 120 32"> <path fill="#2979FF" d="M18.05 4.267v22.131h-5.383v-1.61c-1.05 1.252-2.626 1.879-4.728 1.879-1.467 0-2.805-.338-4.014-1.015-1.21-.696-2.17-1.68-2.884-2.952C.347 21.427 0 19.956 0 18.285c0-1.67.347-3.132 1.04-4.384.714-1.273 1.676-2.247 2.885-2.923 1.21-.676 2.547-1.014 4.014-1.014 1.923 0 3.41.556 4.46 1.67V4.267h5.65zM9.128 22.163c.971 0 1.774-.338 2.408-1.014.635-.696.952-1.65.952-2.864 0-1.193-.317-2.127-.952-2.803-.614-.677-1.417-1.015-2.408-1.015-.991 0-1.804.338-2.439 1.014-.634.677-.951 1.611-.951 2.804 0 1.213.317 2.168.951 2.864.635.676 1.448 1.014 2.439 1.014zM28.553 9.964c2.676 0 4.718.616 6.126 1.849 1.407 1.213 2.11 3.082 2.11 5.607v8.978h-5.262V24.31c-.813 1.571-2.399 2.357-4.758 2.357-1.249 0-2.33-.22-3.241-.657-.912-.437-1.606-1.024-2.082-1.76-.456-.755-.684-1.61-.684-2.564 0-1.532.585-2.715 1.755-3.55 1.17-.855 2.973-1.282 5.412-1.282h3.211c-.099-1.71-1.239-2.566-3.42-2.566-.773 0-1.556.13-2.348.388-.794.239-1.468.577-2.023 1.014l-1.903-3.847c.892-.597 1.973-1.054 3.241-1.372a15.18 15.18 0 013.866-.507zm-.208 13.123c.654 0 1.23-.159 1.725-.477.495-.318.852-.785 1.07-1.402v-1.402h-2.438c-1.646 0-2.468.547-2.468 1.64 0 .498.188.896.565 1.194.376.298.892.447 1.546.447zM50.496 9.964c1.467 0 2.795.338 3.984 1.014 1.21.676 2.161 1.65 2.855 2.923.713 1.252 1.07 2.714 1.07 4.384 0 1.67-.357 3.142-1.07 4.415-.694 1.272-1.645 2.256-2.855 2.953-1.19.676-2.517 1.014-3.984 1.014-2.121 0-3.707-.627-4.758-1.88v1.611h-5.382V4.267h5.65v7.367c1.09-1.114 2.587-1.67 4.49-1.67zm-1.19 12.199c.992 0 1.804-.338 2.439-1.014.634-.696.951-1.65.951-2.864 0-1.193-.317-2.127-.951-2.803-.635-.677-1.447-1.015-2.439-1.015-.99 0-1.804.338-2.438 1.014-.634.677-.952 1.611-.952 2.804 0 1.213.318 2.168.952 2.864.634.676 1.447 1.014 2.438 1.014zM66.89 26.667c-1.349 0-2.677-.15-3.985-.448-1.309-.318-2.36-.726-3.152-1.223l1.695-3.877c.733.457 1.605.825 2.616 1.103 1.011.259 2.012.388 3.004.388.912 0 1.556-.09 1.932-.268.397-.2.595-.477.595-.835s-.238-.607-.713-.746c-.457-.16-1.19-.308-2.2-.447-1.29-.16-2.39-.368-3.302-.627a5.074 5.074 0 01-2.319-1.432c-.654-.695-.981-1.67-.981-2.923 0-1.034.307-1.948.922-2.744.614-.815 1.506-1.451 2.676-1.909 1.19-.477 2.607-.715 4.252-.715 1.17 0 2.33.119 3.479.357 1.15.24 2.111.577 2.884 1.015l-1.695 3.847a9.374 9.374 0 00-4.638-1.193c-.892 0-1.547.11-1.963.328-.416.2-.624.468-.624.806 0 .377.228.646.684.805.456.14 1.209.288 2.26.447 1.328.2 2.428.428 3.3.686a4.894 4.894 0 012.26 1.432c.654.676.981 1.63.981 2.863a4.446 4.446 0 01-.922 2.745c-.614.795-1.526 1.421-2.735 1.879-1.19.457-2.627.686-4.312.686zM88.414 25.742c-.476.298-1.06.527-1.755.686a9.432 9.432 0 01-2.17.239c-2.102 0-3.717-.517-4.847-1.551-1.13-1.034-1.695-2.575-1.695-4.624v-5.428h-2.35v-4.236h2.35V6.623h5.65v4.205h3.687v4.236h-3.687v5.369c0 .576.148 1.034.446 1.372.317.318.733.477 1.249.477.654 0 1.229-.169 1.724-.507l1.398 3.967zM106.601 18.345c0 .04-.03.507-.089 1.402H94.796c.238.835.694 1.481 1.368 1.939.694.437 1.556.656 2.587.656.773 0 1.437-.11 1.992-.328.575-.22 1.15-.577 1.725-1.074l2.974 3.102c-1.567 1.75-3.856 2.625-6.87 2.625-1.883 0-3.538-.358-4.965-1.074-1.427-.716-2.537-1.71-3.33-2.983-.774-1.273-1.16-2.714-1.16-4.325 0-1.59.376-3.012 1.13-4.265.773-1.273 1.834-2.267 3.181-2.983 1.349-.716 2.865-1.073 4.55-1.073 1.606 0 3.063.338 4.371 1.014a7.37 7.37 0 013.093 2.893c.773 1.253 1.159 2.744 1.159 4.474zm-8.593-4.355c-.873 0-1.606.249-2.2.746-.576.497-.942 1.173-1.1 2.028h6.6c-.158-.855-.535-1.531-1.13-2.028-.575-.497-1.298-.746-2.17-.746zM114.588 12.17a5.162 5.162 0 012.23-1.64c.932-.378 1.993-.566 3.182-.566v5.1c-.515-.06-.942-.09-1.279-.09-1.209 0-2.16.329-2.854.985-.674.656-1.011 1.66-1.011 3.012v7.427h-5.65V10.232h5.382v1.939z"></path> </svg> 