<?xml version="1.0" encoding="UTF-8"?> <svg xmlns="http://www.w3.org/2000/svg" width="580" height="580" fill="none" viewBox="0 0 580 580"> <path fill="#F0F8FD" fill-rule="evenodd" d="M273.959 4.239c52.137-14.832 114.708 10.896 150.75 51.693 35.06 39.687 8.418 104.869 30.288 153.235 21.852 48.33 88.299 70.702 94.802 123.416 6.66 53.996-21.279 111.074-61.388 147.453-38.816 35.207-97.807 26.421-147.628 42.127-50.987 16.073-96.366 62.699-148.564 51.245-52.417-11.502-96.548-58.146-114.794-109.035-17.035-47.507 35.435-97.679 23.116-146.646C85.64 258.5-18.127 224.987 2.768 167.632c20.087-55.133 116.707-8.971 166.696-39.09C216.655 100.11 221.055 19.288 273.959 4.239z" clip-rule="evenodd"></path> <path fill="#263238" d="M75.944 98.5h-11.59v14.546h2.613v-12.358h6.363v12.358h2.614V98.501zm3.218 18.637h2.571v-5.81h.107c.404.796 1.25 1.911 3.125 1.911 2.57 0 4.495-2.038 4.495-5.632 0-3.637-1.981-5.611-4.502-5.611-1.925 0-2.728 1.158-3.118 1.946h-.15v-1.804h-2.528v15zm2.521-9.545c0-2.117.91-3.488 2.564-3.488 1.712 0 2.593 1.456 2.593 3.488 0 2.045-.895 3.537-2.593 3.537-1.64 0-2.564-1.421-2.564-3.537zm14.918 5.667c3.196 0 5.227-2.251 5.227-5.625 0-3.38-2.031-5.639-5.227-5.639-3.197 0-5.228 2.259-5.228 5.639 0 3.374 2.031 5.625 5.228 5.625zm.014-2.059c-1.769 0-2.635-1.577-2.635-3.573s.866-3.594 2.635-3.594c1.74 0 2.606 1.598 2.606 3.594 0 1.996-.866 3.573-2.606 3.573zm14.791-9.063h-7.216v10.909h2.514v-8.8h4.702v-2.109zm2.241 15h2.571v-5.81h.107c.405.796 1.25 1.911 3.125 1.911 2.571 0 4.496-2.038 4.496-5.632 0-3.637-1.982-5.611-4.503-5.611-1.925 0-2.727 1.158-3.118 1.946h-.149v-1.804h-2.529v15zm2.522-9.545c0-2.117.909-3.488 2.564-3.488 1.711 0 2.592 1.456 2.592 3.488 0 2.045-.895 3.537-2.592 3.537-1.641 0-2.564-1.421-2.564-3.537zm14.988 5.667c2.543 0 4.29-1.243 4.744-3.139l-2.4-.27c-.348.923-1.201 1.406-2.309 1.406-1.662 0-2.762-1.093-2.784-2.961h7.6v-.789c0-3.828-2.301-5.511-4.986-5.511-3.125 0-5.163 2.294-5.163 5.661 0 3.423 2.01 5.603 5.298 5.603zm-2.742-6.697c.079-1.392 1.108-2.564 2.642-2.564 1.478 0 2.472 1.079 2.486 2.564h-5.128zm14.706 6.697c2.742 0 4.489-1.626 4.674-3.942h-2.458c-.22 1.172-1.065 1.847-2.194 1.847-1.605 0-2.642-1.342-2.642-3.572 0-2.202 1.058-3.523 2.642-3.523 1.235 0 1.995.795 2.194 1.846h2.458c-.178-2.365-2.025-3.92-4.688-3.92-3.196 0-5.213 2.308-5.213 5.639 0 3.303 1.967 5.625 5.227 5.625zm11.723 0c2.742 0 4.489-1.626 4.674-3.942h-2.458c-.22 1.172-1.065 1.847-2.194 1.847-1.605 0-2.642-1.342-2.642-3.572 0-2.202 1.058-3.523 2.642-3.523 1.235 0 1.995.795 2.194 1.846h2.458c-.178-2.365-2.025-3.92-4.688-3.92-3.196 0-5.213 2.308-5.213 5.639 0 3.303 1.967 5.625 5.227 5.625zM69.761 223.046h40.686v-5.369H78.071v-.416l16.236-18.121c10.866-12.017 14.094-17.45 14.094-24.705 0-9.972-7.862-17.738-18.824-17.738-11.058 0-19.272 7.798-19.272 18.633h5.72c0-7.767 5.306-13.36 13.392-13.36 7.607 0 13.359 4.986 13.359 12.465 0 6.2-3.291 10.802-11.633 20.198L69.76 218.668v4.378zm72.576.895c12.081 0 20.838-9.173 20.87-21.573.032-12.656-8.885-21.637-20.422-21.637-4.666 0-9.013 1.694-11.889 4.123h-.32l2.621-21.893h27.326v-5.369h-32.344l-3.931 31.8 5.976.767c2.813-2.333 7.319-3.995 11.73-3.963 8.693.032 15.437 6.68 15.469 16.268 0 9.236-6.297 16.108-15.086 16.108-7.542 0-13.135-4.954-13.519-11.889h-5.785c.288 10.003 8.406 17.258 19.304 17.258zm66.08-13.04c0 7.319 4.539 13.04 12.113 13.04 7.479 0 12.017-5.721 12.017-13.04v-2.972c0-7.319-4.474-13.04-12.017-13.04-7.479 0-12.113 5.721-12.113 13.04v2.972zm-32.983-38.192c0 7.319 4.539 13.04 12.113 13.04 7.479 0 12.017-5.721 12.017-13.04v-2.973c0-7.318-4.474-13.039-12.017-13.039-7.478 0-12.113 5.721-12.113 13.039v2.973zm2.941 50.337h5.689L229 157.592h-5.657l-44.968 65.454zm35.06-15.117c0-4.826 2.461-8.693 7.095-8.693 4.698 0 6.968 3.867 6.968 8.693v2.972c0 4.826-2.366 8.693-6.968 8.693-4.698 0-7.095-3.867-7.095-8.693v-2.972zm-32.983-38.193c0-4.826 2.461-8.693 7.095-8.693 4.698 0 6.968 3.867 6.968 8.693v2.973c0 4.826-2.365 8.693-6.968 8.693-4.698 0-7.095-3.867-7.095-8.693v-2.973z"></path> <path fill="#21DA4B" d="M82.475 268.046l2.29 2.29-4.88 4.88-4-4-7.41 7.42 1.41 1.41 6-6 4 4 6.3-6.29 2.29 2.29v-6h-6z"></path> <path fill="#263238" d="M104.298 273.955c0-3.221-1.889-5.23-4.494-5.23-2.605 0-4.494 2.009-4.494 5.23 0 3.222 1.889 5.23 4.494 5.23 2.605 0 4.494-2.008 4.494-5.23zm-1.193 0c0 2.645-1.451 4.077-3.3 4.077-1.85 0-3.302-1.432-3.302-4.077s1.452-4.076 3.301-4.076c1.85 0 3.301 1.431 3.301 4.076zm6.46 5.25c1.69 0 2.804-1.034 3.003-2.386h-1.174c-.218.835-.914 1.332-1.829 1.332-1.392 0-2.287-1.153-2.287-2.923 0-1.73.915-2.864 2.287-2.864 1.034 0 1.65.637 1.829 1.333h1.174c-.199-1.432-1.412-2.387-3.023-2.387-2.068 0-3.44 1.631-3.44 3.958 0 2.287 1.312 3.937 3.46 3.937zm4.968-.159h3.599c1.551 0 2.486-.875 2.486-2.048 0-1.198-.91-1.845-1.75-1.969.86-.179 1.472-.661 1.472-1.591 0-1.218-1.044-2.028-2.685-2.028h-3.122v7.636zm1.113-1.074v-2.346h2.486c.806 0 1.293.482 1.293 1.272 0 .667-.487 1.074-1.293 1.074h-2.486zm0-3.361v-2.127h2.009c.94 0 1.511.392 1.511 1.034 0 .681-.571 1.093-1.511 1.093h-2.009zm10.1 4.594c2.069 0 3.461-1.571 3.461-3.937 0-2.387-1.392-3.958-3.461-3.958-2.068 0-3.46 1.571-3.46 3.958 0 2.366 1.392 3.937 3.46 3.937zm0-1.054c-1.571 0-2.286-1.352-2.286-2.883 0-1.532.715-2.904 2.286-2.904 1.571 0 2.287 1.372 2.287 2.904 0 1.531-.716 2.883-2.287 2.883zm8.703 1.054c1.552 0 2.685-.775 3.043-1.929l-1.134-.318c-.298.796-.989 1.193-1.909 1.193-1.377 0-2.326-.89-2.381-2.525h5.543v-.497c0-2.844-1.69-3.819-3.281-3.819-2.068 0-3.44 1.631-3.44 3.978 0 2.346 1.352 3.917 3.559 3.917zm-2.381-4.594c.08-1.188.92-2.247 2.262-2.247 1.273 0 2.088.955 2.088 2.247h-4.35zm8.751-3.201h-1.173v7.636h1.173v-3.261h3.66v3.261h1.173v-7.636h-1.173v3.281h-3.66v-3.281zm10.328 7.795c2.068 0 3.46-1.571 3.46-3.937 0-2.387-1.392-3.958-3.46-3.958s-3.46 1.571-3.46 3.958c0 2.366 1.392 3.937 3.46 3.937zm0-1.054c-1.571 0-2.287-1.352-2.287-2.883 0-1.532.716-2.904 2.287-2.904s2.287 1.372 2.287 2.904c0 1.531-.716 2.883-2.287 2.883zm10.862-6.741h-1.173v7.636h1.173v-3.261h3.659v3.261h1.173v-7.636h-1.173v3.281h-3.659v-3.281zm9.472 7.815c1.333 0 2.029-.716 2.267-1.213h.06v1.034h1.173v-5.031c0-2.426-1.849-2.705-2.824-2.705-1.153 0-2.466.398-3.062 1.79l1.113.398c.259-.557.87-1.154 1.989-1.154 1.079 0 1.611.572 1.611 1.552v.039c0 .567-.577.517-1.969.696-1.417.184-2.963.498-2.963 2.248 0 1.491 1.153 2.346 2.605 2.346zm.179-1.054c-.935 0-1.611-.417-1.611-1.233 0-.895.816-1.173 1.73-1.292.498-.06 1.83-.199 2.029-.438v1.074c0 .954-.756 1.889-2.148 1.889zm5.713.875h3.599c1.551 0 2.486-.875 2.486-2.048 0-1.198-.91-1.845-1.75-1.969.86-.179 1.472-.661 1.472-1.591 0-1.218-1.045-2.028-2.685-2.028h-3.122v7.636zm1.113-1.074v-2.346h2.486c.806 0 1.293.482 1.293 1.272 0 .667-.487 1.074-1.293 1.074h-2.486zm0-3.361v-2.127h2.009c.939 0 1.511.392 1.511 1.034 0 .681-.572 1.093-1.511 1.093h-2.009zm8.171-.437v-2.764h-1.173v7.636h3.202c1.789 0 2.764-1.094 2.764-2.466 0-1.392-.975-2.406-2.764-2.406h-2.029zm6.006 4.872h1.173v-7.636h-1.173v7.636zm-6.006-3.778h2.029c.929 0 1.591.566 1.591 1.372 0 .77-.662 1.312-1.591 1.312h-2.029v-2.684zm9.577 3.778h1.173v-3.221h1.054l2.506 3.221h1.511l-3.122-3.957 3.083-3.679h-1.512l-2.744 3.321h-.776v-3.321h-1.173v7.636zm10.557.159c2.069 0 3.461-1.571 3.461-3.937 0-2.387-1.392-3.958-3.461-3.958-2.068 0-3.46 1.571-3.46 3.958 0 2.366 1.392 3.937 3.46 3.937zm0-1.054c-1.571 0-2.287-1.352-2.287-2.883 0-1.532.716-2.904 2.287-2.904s2.287 1.372 2.287 2.904c0 1.531-.716 2.883-2.287 2.883zm5.502.895h3.599c1.551 0 2.486-.875 2.486-2.048 0-1.198-.91-1.845-1.75-1.969.86-.179 1.471-.661 1.471-1.591 0-1.218-1.044-2.028-2.684-2.028h-3.122v7.636zm1.113-1.074v-2.346h2.486c.805 0 1.293.482 1.293 1.272 0 .667-.488 1.074-1.293 1.074h-2.486zm0-3.361v-2.127h2.009c.939 0 1.511.392 1.511 1.034 0 .681-.572 1.093-1.511 1.093h-2.009zm7.853 4.515a.898.898 0 00.895-.895.898.898 0 00-.895-.895.898.898 0 00-.895.895c0 .492.403.895.895.895zm0-5.668a.898.898 0 00.895-.895.898.898 0 00-.895-.895.898.898 0 00-.895.895c0 .492.403.895.895.895zM233.291 280.225c2.672 0 4.635-1.598 4.628-3.771.007-1.656-.997-2.845-2.736-3.113v-.102c1.368-.352 2.257-1.426 2.25-2.896.007-1.924-1.572-3.567-4.09-3.567-2.404 0-4.334 1.451-4.398 3.58h1.911c.045-1.202 1.176-1.931 2.461-1.931 1.336 0 2.212.812 2.205 2.02.007 1.266-1.01 2.097-2.461 2.097h-1.106v1.611h1.106c1.816 0 2.864.92 2.864 2.237 0 1.272-1.106 2.135-2.646 2.135-1.419 0-2.525-.729-2.602-1.892h-2.007c.083 2.135 1.975 3.592 4.621 3.592z"></path> <path fill="#546E7A" d="M248.148 267.387h-1.074l-3.281 12.19h1.074l3.281-12.19zm5.2.477h-1.233l-2.545 1.691v1.253l2.486-1.651h.059v8.889h1.233v-10.182zm6.758 0h-1.233l-2.545 1.691v1.253l2.486-1.651h.059v8.889h1.233v-10.182z"></path> <circle cx="420.475" cy="190.046" r="88" stroke="#ECEFF1" stroke-width="4"></circle> <mask id="a" width="96" height="96" x="417.475" y="97.046" fill="#000" maskUnits="userSpaceOnUse"> <path fill="#fff" d="M417.475 97.046h96v96h-96z"></path> <path d="M506.963 190.046c1.94 0 3.519-1.573 3.443-3.51a90 90 0 00-86.421-86.421c-1.938-.076-3.51 1.503-3.51 3.442 0 1.94 1.572 3.504 3.51 3.586a82.992 82.992 0 0155.164 24.229 82.981 82.981 0 0124.229 55.164c.082 1.937 1.646 3.51 3.585 3.51z"></path> </mask> <path fill="#21DA4B" d="M506.963 190.046c1.94 0 3.519-1.573 3.443-3.51a90 90 0 00-86.421-86.421c-1.938-.076-3.51 1.503-3.51 3.442 0 1.94 1.572 3.504 3.51 3.586a82.992 82.992 0 0155.164 24.229 82.981 82.981 0 0124.229 55.164c.082 1.937 1.646 3.51 3.585 3.51z"></path> <path stroke="#21DA4B" stroke-linejoin="round" stroke-width="6" d="M506.963 190.046c1.94 0 3.519-1.573 3.443-3.51a90 90 0 00-86.421-86.421c-1.938-.076-3.51 1.503-3.51 3.442 0 1.94 1.572 3.504 3.51 3.586a82.992 82.992 0 0155.164 24.229 82.981 82.981 0 0124.229 55.164c.082 1.937 1.646 3.51 3.585 3.51z" mask="url(#a)"></path> <path fill="#CFD8DC" d="M50.475 60.139h463.322v-2H50.475v2zm482.322 19v221.814h2V79.139h-2zm-19 240.814H50.475v2h463.322v-2zm-482.322-19V79.139h-2v221.814h2zm19 19c-10.494 0-19-8.506-19-19h-2c0 11.598 9.402 21 21 21v-2zm482.322-19c0 10.494-8.507 19-19 19v2c11.598 0 21-9.402 21-21h-2zm-19-240.814c10.493 0 19 8.506 19 19h2c0-11.598-9.402-21-21-21v2zm-463.322-2c-11.598 0-21 9.402-21 21h2c0-10.493 8.506-19 19-19v-2z"></path> <path fill="#E3F2FD" fill-rule="evenodd" d="M144.88 539.122c14.301-36.693 22.696-82.572 60.329-102.038 12.457-6.608 26.186-9.815 39.642-13.736-19.933-12.597-46.372-13.712-67.231-2.57-40.465 21.824-51.534 78.526-32.74 118.344z" clip-rule="evenodd"></path> <path fill="#263238" fill-rule="evenodd" d="M243.47 423.159a778.014 778.014 0 01-5.783 1.638c-11.008 3.098-22.389 6.298-32.74 11.786-30.627 15.842-41.898 48.731-52.791 80.537-2.454 7.159-4.781 13.945-7.325 20.564-8.757-19.322-10.68-42.69-5.259-64.34 5.858-23.41 19.463-41.901 38.313-52.064 20.246-10.818 45.844-10.048 65.585 1.879zm-98.542 117.382l.472-1.212c2.742-7.03 5.319-14.559 7.814-21.839 10.826-31.595 22.019-64.265 52.249-79.9 10.25-5.438 21.574-8.623 32.525-11.703a732.591 732.591 0 007.018-1.996l1.206-.351-1.064-.672c-20.214-12.774-46.823-13.79-67.79-2.589-19.131 10.318-32.938 29.063-38.875 52.785-5.593 22.353-3.449 46.52 5.888 66.299l.557 1.178z" clip-rule="evenodd"></path> <path fill="#263238" fill-rule="evenodd" d="M133.224 538.17c3.138-28.379 9.55-52.067 19.048-70.404 7.938-15.318 18.117-27.081 30.249-34.957 15.52-10.077 31.584-11.964 42.327-11.779 11.659.204 19.748 2.831 19.828 2.857l.349-1.075c-.081-.031-8.297-2.702-20.112-2.914-10.913-.192-27.216 1.717-42.983 11.948-12.304 7.982-22.614 19.888-30.645 35.384-9.57 18.465-16.023 42.289-19.176 70.816l1.115.124z" clip-rule="evenodd"></path> <path fill="#F0F8FD" fill-rule="evenodd" d="M65.615 513.097c1.93-.649 3.696-1.208 5.406-1.725 1.724-.486 3.344-.958 4.938-1.309a49.793 49.793 0 018.764-1.302 34.111 34.111 0 017.419.408c2.312.369 4.56.981 6.898 1.819.291.105.59.15.882.294l.887.366c.599.226 1.201.415 1.803.728.61.264 1.216.54 1.845.785.62.302 1.234.634 1.877.917.318.147.64.287.958.442l.961.513c.64.347 1.302.664 1.972.993l1.994 1.098 1.028.536.524.268.513.294c.677.404 1.384.781 2.091 1.174l1.088.566c.36.192.715.407 1.074.611.718.419 1.463.819 2.215 1.219.381.196.755.4 1.148.593.385.2.748.426 1.137.634.767.418 1.549.834 2.353 1.241.801.411 1.65.793 2.465 1.215 1.65.842 3.375 1.653 5.324 2.351-.139-2.041-.498-3.97-.936-5.872-.194-.966-.501-1.868-.796-2.785-.3-.913-.625-1.815-.962-2.713a33.497 33.497 0 00-.535-1.336c-.194-.434-.407-.861-.613-1.291a64.73 64.73 0 00-1.306-2.558c-.232-.419-.441-.857-.699-1.261l-.775-1.215c-.535-.8-1.069-1.612-1.634-2.396l-.419-.597c-.15-.192-.307-.381-.46-.57l-.939-1.128c-.644-.74-1.276-1.494-1.953-2.211-.715-.695-1.433-1.397-2.177-2.069l-1.115-1.015c-.397-.317-.808-.622-1.212-.936-.812-.63-1.646-1.222-2.484-1.826-.89-.555-1.799-1.079-2.708-1.615-.891-.544-1.89-.97-2.862-1.427-.988-.43-1.96-.875-3.023-1.2l-1.571-.502c-.524-.162-1.04-.343-1.594-.445-1.096-.223-2.184-.476-3.288-.649-1.126-.113-2.248-.242-3.374-.306-1.137-.015-2.274 0-3.404.049-1.13.087-2.26.249-3.374.411-1.111.212-2.207.502-3.289.774-.535.17-1.058.359-1.586.544-.52.196-1.055.351-1.556.584-.999.476-2.016.891-2.951 1.453-.943.54-1.87 1.091-2.728 1.729l-1.283.947c-.407.336-.804.691-1.197 1.034-.396.34-.785.687-1.144 1.068-.367.37-.73.74-1.078 1.121-.348.377-.677.774-1.002 1.174-.318.4-.648.785-.936 1.211-.291.423-.59.826-.867 1.253-.27.43-.535.86-.786 1.298-.258.43-.486.883-.715 1.332-.231.446-.437.906-.632 1.374-.785 1.845-1.414 3.774-1.6 5.838z" clip-rule="evenodd"></path> <path fill="#263238" fill-rule="evenodd" d="M94.972 490.462c.255 0 .51.004.767.007.853.049 1.758.144 2.63.234l.692.068c.778.125 1.594.298 2.387.464.28.061.561.121.845.178.412.075.793.196 1.201.324l1.908.608c.909.279 1.736.641 2.611 1.026l.887.4c.77.355 1.567.721 2.267 1.148l.665.388c.67.397 1.366.804 2.035 1.223l.348.249c.692.498 1.407 1.012 2.088 1.54l.385.298c.277.211.554.419.819.634l1.089.996c.688.619 1.365 1.276 2.02 1.91l.146.143a53.422 53.422 0 011.526 1.725l.393.453.984 1.181c.134.162.269.325.396.491l.404.577c.468.649.921 1.325 1.358 1.981l.266.404.77 1.204c.161.253.303.521.453.804.075.143.153.287.228.426.49.902.95 1.827 1.295 2.532l.205.427c.135.283.27.562.397.849.176.404.337.815.524 1.306.366.973.68 1.853.953 2.687l.087.268c.269.83.523 1.611.692 2.453.437 1.894.707 3.445.852 4.917-1.75-.675-3.269-1.419-4.436-2.015a53.6 53.6 0 00-1.295-.638 73.184 73.184 0 01-3.512-1.811c-.18-.099-.348-.193-.516-.291-.21-.117-.419-.238-.633-.347-.25-.125-.486-.249-.722-.374-.142-.075-.284-.147-.426-.223a64.26 64.26 0 01-2.188-1.203c-.146-.083-.288-.166-.431-.246-.22-.128-.437-.256-.658-.373l-1.582-.842c-.524-.287-1.07-.585-1.579-.887l-.516-.302-1.575-.811-2.215-1.208c-.606-.294-1.182-.573-1.743-.879l-.961-.513c-.217-.106-.419-.196-.618-.287l-.37-.17c-.43-.192-.849-.404-1.253-.607l-.614-.306-.045-.019c-.46-.181-.924-.385-1.369-.577l-.437-.193c-.475-.245-.943-.415-1.399-.581-.15-.053-.3-.106-.446-.162l-.871-.363a3.358 3.358 0 00-.599-.207c-.1-.03-.202-.057-.303-.094-2.48-.887-4.77-1.491-7.006-1.846a34.363 34.363 0 00-7.53-.411 50.47 50.47 0 00-8.87 1.313c-1.452.321-2.926.74-4.482 1.181l-.479.132a188.55 188.55 0 00-4.586 1.453c.228-1.479.696-3.026 1.451-4.792.225-.544.42-.963.614-1.336.232-.461.453-.899.696-1.302.25-.434.501-.842.782-1.295.187-.283.392-.573.598-.864l.255-.359c.213-.32.445-.607.692-.909l.22-.276c.303-.373.633-.773.977-1.143.348-.381.71-.751 1.062-1.106.36-.381.748-.724 1.111-1.038l.333-.29c.28-.245.565-.494.857-.736l1.257-.928c.86-.638 1.791-1.189 2.678-1.695.673-.404 1.377-.728 2.125-1.068.262-.117.524-.238.785-.362.311-.147.644-.261.992-.381.176-.061.348-.121.52-.189l.378-.128c.392-.14.785-.28 1.185-.404l.46-.117c.902-.23 1.834-.464 2.761-.638 1.168-.17 2.237-.321 3.315-.404a57.492 57.492 0 012.588-.056zm38.823 38.187l-.056-.86c-.124-1.808-.415-3.646-.95-5.963-.18-.89-.457-1.74-.722-2.562l-.086-.268a66.79 66.79 0 00-.973-2.74 38.374 38.374 0 00-.542-1.359 35.088 35.088 0 00-.419-.886l-.202-.427a70.208 70.208 0 00-1.542-2.996 11.431 11.431 0 00-.501-.883l-1.047-1.627c-.445-.664-.902-1.351-1.377-2.011l-.419-.593c-.15-.196-.292-.37-.434-.54l-1.388-1.653c-.509-.588-1.032-1.196-1.578-1.781l-.165-.158a77.456 77.456 0 00-2.046-1.936l-1.115-1.015c-.299-.246-.584-.461-.868-.676l-.378-.294a68.957 68.957 0 00-2.121-1.563l-.378-.271a72.476 72.476 0 00-2.094-1.257l-.655-.385c-.748-.457-1.575-.838-2.372-1.204l-.905-.407c-.868-.382-1.762-.778-2.727-1.072l-1.904-.604c-.423-.132-.857-.272-1.328-.359-.266-.052-.546-.113-.827-.173a49.025 49.025 0 00-2.473-.476l-.718-.075a62.382 62.382 0 00-2.708-.238 64.331 64.331 0 00-3.46.049c-1.13.087-2.223.242-3.431.419-.984.185-1.934.423-2.85.657l-.494.124c-.442.14-.846.283-1.25.423l-.385.136c-.176.064-.34.124-.505.181-.363.124-.737.257-1.104.43-.258.121-.516.238-.774.355-.74.34-1.508.687-2.23 1.121-.901.517-1.866 1.087-2.772 1.758l-1.283.948c-.321.264-.613.52-.905.773l-.325.287c-.39.332-.8.698-1.186 1.11-.348.354-.722.728-1.081 1.124-.363.393-.707.812-1.025 1.2l-.217.272c-.25.309-.513.63-.748.981l-.244.347c-.213.302-.426.6-.628.91-.296.472-.554.89-.804 1.328-.258.43-.49.891-.73 1.363-.202.388-.411.841-.647 1.407-.95 2.227-1.474 4.136-1.642 6.008l-.079.861.816-.272c1.81-.611 3.572-1.174 5.387-1.721l.467-.136c1.541-.434 3-.849 4.43-1.166a49.493 49.493 0 018.678-1.287c2.514-.128 4.9.004 7.291.4 2.17.347 4.395.932 6.805 1.793.123.045.254.083.389.121.164.045.306.086.437.151l.913.381.483.177c.445.159.864.313 1.279.528l.038.015.448.2c.449.197.917.401 1.392.589.195.095.389.193.584.291.415.207.845.426 1.294.622.116.057.243.114.37.17.191.087.382.174.569.268l.943.502a45.06 45.06 0 001.784.898l.206.102 1.967 1.087 1.568.808.486.283a51.75 51.75 0 001.609.905l.493.272 1.1.574c.202.109.412.23.625.355.142.083.288.166.434.249.737.43 1.504.841 2.226 1.222.146.076.284.151.422.223.244.128.491.257.741.381.191.098.385.211.58.321.18.102.359.204.542.302a70.044 70.044 0 003.554 1.834c.427.204.853.411 1.272.63 1.38.702 3.236 1.604 5.391 2.378l.804.29z" clip-rule="evenodd"></path> <path fill="#263238" fill-rule="evenodd" d="M140.945 531.502l.98-.543c-10.123-18.587-22.494-29.214-36.765-31.58-21.417-3.551-39.743 13.133-39.923 13.303l.756.834c.18-.166 18.12-16.484 38.991-13.02 13.912 2.314 26.01 12.744 35.961 31.006z" clip-rule="evenodd"></path> <path fill="#BBDEFB" fill-rule="evenodd" d="M123.875 539.122c1.967-3.665 3.363-7.503 4.556-11.378 1.175-3.88 2.076-7.827 2.761-11.816.673-3.989 1.107-8.02 1.324-12.084.221-4.061.198-8.155-.06-12.261-.505-8.212-1.968-16.492-4.564-24.64-2.596-8.136-6.378-16.148-11.507-23.522-5.098-7.371-11.705-14.02-19.35-19.119-.97-.622-1.927-1.252-2.904-1.849-.995-.57-2.001-1.121-3-1.675-2.028-1.049-4.085-2.037-6.195-2.866-4.208-1.679-8.522-2.983-12.868-3.726-4.336-.774-8.675-1.181-12.94-1.078l-1.597.013c-.528.024-1.059.068-1.586.101-1.06.075-2.106.14-3.15.238-1.044.139-2.08.263-3.113.421l-1.54.231c-.513.094-1.022.194-1.53.302-1.015.217-2.025.419-3.027.652-.999.251-1.99.526-2.974.814-1.975.531-3.902 1.245-5.802 1.958a38.28 38.28 0 00-2.817 1.175c-.932.417-1.852.848-2.765 1.285-1.814.94-3.598 1.929-5.326 3.05 1.982.664 3.909 1.128 5.809 1.668.954.275 1.897.539 2.828.788.468.133.932.253 1.395.37.464.117.924.276 1.385.404.916.261 1.825.528 2.73.77.45.121.902.253 1.347.396l1.332.408c.886.283 1.766.509 2.637.792.868.298 1.728.566 2.581.849l1.276.408 1.253.457c.834.305 1.661.581 2.484.868 1.612.668 3.236 1.211 4.777 1.905l2.312.985 2.24 1.05.558.249.546.275 1.078.555c.359.185.714.37 1.073.539.363.167.7.385 1.051.57l2.062 1.151 1.993 1.204c.663.393 1.287.838 1.93 1.246.319.211.64.407.951.626.303.23.614.445.92.66 1.25.838 2.406 1.793 3.58 2.684.569.475 1.13.954 1.702 1.415.558.479 1.1.981 1.65 1.46a80.804 80.804 0 0111.645 13.367c3.48 4.982 6.607 10.476 9.521 16.367 2.884 5.903 5.525 12.194 8.072 18.753 2.529 6.57 4.972 13.404 7.43 20.48l3.752 10.801c1.294 3.668 2.596 7.386 4.074 11.254z" clip-rule="evenodd"></path> <path fill="#263238" fill-rule="evenodd" d="M60.421 413.659c3.637 0 7.512.364 11.548 1.084 4.063.695 8.357 1.939 12.76 3.695 1.848.728 3.801 1.63 6.147 2.845l.523.291c.82.449 1.639.902 2.454 1.37.7.43 1.422.894 2.118 1.343l.763.491c7.369 4.917 14.009 11.476 19.19 18.967 4.878 7.012 8.724 14.873 11.436 23.372 2.492 7.83 4.018 16.073 4.534 24.503.258 4.084.277 8.19.06 12.194-.213 4.068-.658 8.11-1.317 12.019a97.005 97.005 0 01-2.746 11.748c-1.264 4.114-2.502 7.306-3.939 10.167-1.219-3.253-2.338-6.427-3.423-9.506l-.202-.566-3.752-10.797c-2.906-8.371-5.2-14.692-7.433-20.496-2.899-7.465-5.473-13.435-8.095-18.801-3.135-6.344-6.262-11.722-9.562-16.439a81.06 81.06 0 00-11.727-13.462c-.247-.218-.483-.426-.722-.641a47.98 47.98 0 00-.943-.83c-.456-.37-.894-.736-1.332-1.106l-.374-.317c-.385-.291-.748-.574-1.11-.857-.809-.626-1.643-1.272-2.518-1.86l-.101-.072a28.67 28.67 0 01-.793-.57 15.98 15.98 0 00-.625-.415c-.12-.075-.236-.151-.352-.23-.25-.159-.49-.317-.726-.476a24.813 24.813 0 00-1.234-.785l-1.983-1.204-2.083-1.158c-.127-.068-.247-.14-.37-.208-.229-.128-.465-.264-.715-.381a26.4 26.4 0 01-.894-.449l-1.785-.913-.583-.261-2.233-1.045-2.327-.992c-.913-.412-1.874-.778-2.806-1.133-.65-.249-1.324-.502-1.979-.773a63.979 63.979 0 00-.95-.332c-.516-.178-1.032-.355-1.552-.548l-1.261-.456-1.294-.415a107.52 107.52 0 00-.977-.317c-.527-.174-1.058-.344-1.593-.529-.46-.147-.913-.279-1.37-.411-.422-.124-.849-.249-1.275-.385l-1.343-.411c-.453-.147-.917-.28-1.365-.4-.7-.185-1.403-.389-2.11-.593l-.61-.177c-.206-.053-.4-.113-.599-.174a16.045 16.045 0 00-.8-.23c-.46-.117-.92-.238-1.384-.366-.887-.238-1.807-.494-2.82-.789-.588-.166-1.175-.324-1.767-.487a91.65 91.65 0 01-2.869-.807 66.838 66.838 0 014.254-2.374c.916-.445 1.84-.875 2.73-1.272A38.282 38.282 0 0135 418.37c2.038-.765 3.879-1.438 5.753-1.943a81.856 81.856 0 012.966-.812c.692-.16 1.396-.308 2.103-.456l.905-.191a54.94 54.94 0 011.515-.299l1.523-.229a99.345 99.345 0 012.218-.303l.883-.116c.79-.073 1.62-.131 2.424-.186l1.216-.084c.348-.024.7-.049 1.05-.064l1.576-.012c.426-.011.856-.016 1.29-.016zm63.363 126.81l.58-1.079c1.724-3.208 3.146-6.748 4.601-11.477 1.137-3.751 2.072-7.751 2.779-11.887a107.624 107.624 0 001.272-24.477c-.523-8.522-2.068-16.858-4.59-24.779-2.746-8.605-6.64-16.571-11.581-23.674-5.26-7.604-12.005-14.269-19.501-19.265l-.771-.498c-.7-.453-1.425-.921-2.151-1.363-.834-.479-1.661-.936-2.484-1.392l-.539-.295c-2.39-1.24-4.376-2.158-6.262-2.898-4.47-1.785-8.84-3.05-12.977-3.757-4.586-.819-8.974-1.183-13.048-1.086l-1.586.013c-.378.016-.74.042-1.1.067l-1.212.083c-.812.056-1.65.114-2.473.191l-.901.118c-.737.094-1.497.193-2.245.307l-1.537.231c-.535.098-1.051.198-1.564.308l-.901.19c-.715.151-1.426.3-2.136.464-.936.235-1.916.504-3.004.822-1.912.515-3.779 1.197-5.84 1.971-.875.321-1.81.711-2.854 1.191-.898.401-1.833.838-2.776 1.291-2.132 1.106-3.842 2.083-5.387 3.083l-.987.642 1.115.373c1.391.464 2.76.834 4.088 1.193.584.158 1.168.317 1.747.479 1.018.298 1.946.555 2.836.793.464.132.931.252 1.399.373.25.061.501.14.752.215.21.065.415.125.625.182l.602.173c.714.208 1.425.411 2.128.6.434.113.88.245 1.321.389l1.343.411c.43.136.864.264 1.298.389.445.128.887.257 1.328.4.527.181 1.066.355 1.601.528.325.106.651.212.977.321l1.283.408 1.23.449c.528.192 1.052.373 1.575.554l.913.317c.647.268 1.324.525 1.983.778.957.362 1.862.709 2.753 1.109l2.323.989 2.79 1.295 1.755.902c.31.158.617.316.928.464.217.098.419.215.636.339.13.076.258.148.389.219l2.057 1.144 1.975 1.196c.404.238.801.502 1.186.759.243.162.487.324.733.479.113.075.236.155.36.234.19.124.381.245.568.377.258.193.535.389.808.581l.112.08c.857.573 1.673 1.207 2.466 1.822.366.287.733.57 1.103.849l.348.295c.445.373.887.747 1.34 1.109.295.257.602.532.908.808.24.215.48.43.722.638a79.996 79.996 0 0111.552 13.265c3.27 4.676 6.367 10.004 9.476 16.295 2.607 5.333 5.17 11.277 8.054 18.707 2.229 5.789 4.519 12.099 7.422 20.458l3.954 11.371c1.215 3.453 2.476 7.023 3.879 10.702l.434 1.144z" clip-rule="evenodd"></path> <path fill="#263238" fill-rule="evenodd" d="M134.956 519.173l1.122-.008c-.004-.105-.108-10.989-3.924-25.213-3.524-13.133-11.024-31.896-26.736-46.705-19.53-18.405-46.97-26.636-81.55-24.466l.067 1.133c34.259-2.151 61.413 5.974 80.709 24.152 15.513 14.616 22.927 33.161 26.418 46.143 3.782 14.092 3.89 24.858 3.894 24.964z" clip-rule="evenodd"></path> <path fill="#F0F8FD" fill-rule="evenodd" d="M201.348 513.097c-.191-2.064-.816-3.993-1.601-5.838a16.787 16.787 0 00-.636-1.374 19.974 19.974 0 00-.711-1.332 37.635 37.635 0 00-.786-1.298c-.28-.427-.576-.83-.868-1.253-.288-.426-.617-.811-.939-1.211-.321-.4-.65-.797-.998-1.174a37.82 37.82 0 00-1.078-1.121 14.796 14.796 0 00-1.144-1.068c-.393-.343-.79-.698-1.197-1.034l-1.284-.947c-.856-.638-1.784-1.189-2.727-1.729-.935-.562-1.952-.977-2.951-1.453-.501-.233-1.036-.388-1.556-.584-.528-.185-1.055-.374-1.587-.544-1.084-.272-2.177-.562-3.288-.774-1.114-.162-2.244-.324-3.378-.411a60.144 60.144 0 00-3.4-.049c-1.126.064-2.248.193-3.374.306-1.104.173-2.193.426-3.289.649-.553.102-1.069.283-1.593.445l-1.571.502c-1.063.325-2.035.77-3.023 1.2-.973.457-1.971.883-2.865 1.427-.906.536-1.815 1.06-2.705 1.615-.838.604-1.672 1.196-2.484 1.826-.404.314-.815.619-1.212.936l-1.115 1.015c-.744.672-1.462 1.374-2.177 2.069-.677.717-1.309 1.471-1.953 2.211l-.939 1.128c-.157.189-.314.378-.46.57l-.422.597c-.562.784-1.097 1.596-1.631 2.396l-.775 1.215c-.258.404-.467.842-.699 1.261a64.73 64.73 0 00-1.306 2.558c-.206.43-.419.857-.613 1.291-.191.441-.363.887-.535 1.336-.341.898-.663 1.8-.962 2.713-.295.917-.602 1.819-.797 2.785-.437 1.902-.8 3.831-.935 5.872 1.949-.698 3.674-1.509 5.32-2.351.819-.422 1.668-.804 2.469-1.215a87.397 87.397 0 002.353-1.241c.389-.208.752-.434 1.137-.634.393-.193.767-.397 1.148-.593.752-.4 1.497-.8 2.211-1.219.363-.204.718-.419 1.077-.611l1.085-.566c.707-.393 1.418-.77 2.095-1.174l.513-.294.523-.268 1.029-.536 1.994-1.098c.666-.329 1.332-.646 1.971-.993l.962-.513c.318-.155.64-.295.958-.442.643-.283 1.256-.615 1.877-.917.629-.245 1.235-.521 1.845-.785.598-.313 1.204-.502 1.803-.728l.886-.366c.292-.144.591-.189.883-.294 2.338-.838 4.583-1.45 6.898-1.819a34.095 34.095 0 017.415-.408 49.77 49.77 0 018.768 1.302c1.594.351 3.214.823 4.938 1.309 1.71.517 3.475 1.076 5.406 1.725z" clip-rule="evenodd"></path> <path fill="#263238" fill-rule="evenodd" d="M164.111 511.863l-.438.193c-.449.196-.909.396-1.369.577l-.045.019c-.205.102-.411.204-.617.309-.4.204-.819.412-1.238.597-.135.064-.258.12-.382.177-.198.091-.396.181-.598.276l-.977.52c-.561.306-1.133.581-1.735.876l-.217.106-2.02 1.117-1.534.792-.543.31c-.512.305-1.058.603-1.582.89l-.501.276-1.074.562c-.224.121-.441.245-.662.374-.142.083-.284.166-.43.245-.73.426-1.489.834-2.2 1.211l-.423.219a16.87 16.87 0 01-.71.366c-.225.117-.43.238-.64.355a71.856 71.856 0 01-4.025 2.098c-.434.212-.872.423-1.302.646-1.163.592-2.682 1.336-4.433 2.011.146-1.472.415-3.023.849-4.902.172-.857.427-1.634.696-2.465l.086-.271c.27-.823.584-1.702.954-2.687.187-.491.348-.906.524-1.314.127-.279.262-.562.4-.845l.206-.43a70.73 70.73 0 011.519-2.951c.149-.283.291-.551.452-.804l1.044-1.615c.434-.653.883-1.329 1.347-1.97l.422-.6c.116-.147.247-.31.382-.472l1.377-1.634a47.458 47.458 0 011.545-1.744l.127-.124c.654-.634 1.331-1.291 2.016-1.91l1.119-1.019c.235-.188.508-.396.781-.603l.393-.302c.685-.532 1.407-1.049 2.103-1.551l.366-.265c.64-.396 1.336-.807 2.013-1.203l.651-.382c.707-.43 1.5-.796 2.27-1.151l.891-.4c.875-.385 1.702-.747 2.607-1.026l1.915-.608a10.07 10.07 0 011.186-.324 41.5 41.5 0 00.857-.178c.789-.166 1.608-.339 2.416-.468l.659-.064c.875-.09 1.78-.185 2.66-.237a64.007 64.007 0 013.348.052c1.058.083 2.128.234 3.318.408.901.17 1.833.404 2.734.634l.498.124c.366.117.763.257 1.16.397l.381.136c.161.06.333.12.509.181.348.12.681.234.991.381.262.124.524.245.786.362.748.344 1.451.664 2.117 1.064.894.514 1.826 1.061 2.682 1.699l1.283.947c.27.222.554.468.835.717l.333.287c.362.317.748.66 1.099 1.03.363.37.73.743 1.074 1.117.344.37.673.77.976 1.147l.214.264c.25.306.486.597.695.906l.258.37c.206.291.408.581.606.876.259.418.517.837.767 1.271.255.423.475.857.7 1.306.198.381.393.804.613 1.336.756 1.774 1.227 3.321 1.456 4.8a186.626 186.626 0 00-4.579-1.449l-.487-.136c-1.556-.441-3.03-.86-4.492-1.185a50.578 50.578 0 00-8.855-1.309c-2.604-.136-5.065 0-7.538.411-2.233.355-4.522.959-6.995 1.842-.109.041-.21.068-.314.098a3.5 3.5 0 00-.629.223l-.853.351c-.134.052-.284.105-.434.162-.452.162-.92.332-1.395.577zm-30.944 16.786l.804-.29c2.158-.774 4.01-1.676 5.387-2.378.426-.219.853-.426 1.279-.63.4-.196.801-.389 1.19-.589.726-.362 1.5-.773 2.368-1.249.176-.094.355-.196.535-.298.194-.11.389-.223.591-.325.239-.12.482-.249.725-.377.143-.072.281-.147.419-.219a56.99 56.99 0 002.237-1.23c.143-.079.292-.166.438-.249.21-.121.415-.242.625-.355l1.586-.842c.535-.29 1.085-.596 1.612-.909l.509-.291 1.526-.788 2.2-1.204a42.8 42.8 0 001.777-.895l.957-.509c.169-.083.36-.17.55-.257.128-.056.255-.113.382-.173.434-.193.864-.408 1.283-.619.195-.098.385-.196.584-.291.475-.188.939-.392 1.388-.589l.49-.215c.415-.215.834-.366 1.279-.528.153-.057.31-.113.464-.174l.901-.373c.161-.076.303-.117.468-.162.131-.038.266-.076.393-.121 2.405-.861 4.627-1.446 6.797-1.793a33.698 33.698 0 017.298-.4c2.866.162 5.78.596 8.664 1.287 1.44.317 2.899.732 4.44 1.166l.479.136c1.8.543 3.562 1.106 5.376 1.721l.815.272-.078-.861c-.168-1.872-.692-3.785-1.646-6.012a16.5 16.5 0 00-.651-1.415c-.228-.456-.46-.917-.73-1.362a38.62 38.62 0 00-.789-1.306c-.209-.321-.423-.619-.636-.921l-.25-.354c-.232-.348-.494-.668-.749-.982l-.209-.26a24.793 24.793 0 00-1.025-1.204c-.355-.389-.73-.766-1.092-1.136-.378-.4-.79-.766-1.175-1.102l-.325-.283c-.292-.253-.584-.509-.887-.755l-1.302-.966c-.905-.671-1.87-1.241-2.783-1.766-.711-.426-1.478-.773-2.218-1.113-.258-.117-.517-.234-.775-.355a10.49 10.49 0 00-1.103-.43c-.165-.057-.33-.117-.494-.177l-.389-.136a40.902 40.902 0 00-1.223-.419l-.532-.132a45.843 45.843 0 00-2.824-.653c-1.231-.181-2.323-.336-3.434-.423a64.757 64.757 0 00-3.453-.049c-.935.053-1.848.147-2.734.238l-.689.072c-.864.135-1.698.309-2.506.479-.277.06-.557.121-.838.177-.456.083-.89.219-1.309.355l-1.912.604c-.961.294-1.855.69-2.723 1.072l-.909.407c-.797.37-1.624.747-2.376 1.208l-.643.377c-.681.4-1.388.812-2.069 1.238l-.396.287a69.004 69.004 0 00-2.133 1.573l-.389.299c-.28.211-.561.426-.83.645l-1.141 1.038c-.703.63-1.384 1.294-2.046 1.936l-.146.139a56.382 56.382 0 00-1.598 1.8l-.389.453-.998 1.197a23.61 23.61 0 00-.423.524l-.434.615c-.471.657-.924 1.34-1.366 1.997l-.273.411-.781 1.227c-.187.29-.348.592-.502.883a68.54 68.54 0 00-1.537 2.989l-.206.426c-.142.294-.281.589-.415.883-.187.438-.352.86-.546 1.366a68.64 68.64 0 00-.973 2.74l-.09.275c-.265.823-.538 1.672-.722 2.574-.531 2.302-.823 4.14-.946 5.948l-.056.86z" clip-rule="evenodd"></path> <path fill="#263238" fill-rule="evenodd" d="M134.244 528.147c13.501-19.635 27.118-29.591 40.48-29.591h.161c15.917.095 25.898 14.711 25.999 14.858l.928-.634c-.101-.151-10.4-15.254-26.912-15.356h-.176c-13.751 0-27.679 10.118-41.4 30.082l.92.641z" clip-rule="evenodd"></path> <path fill="#64B5F6" fill-rule="evenodd" d="M134.503 542.458c1.432-4.612 2.569-9.159 3.636-13.696a374.558 374.558 0 002.858-13.54 523.721 523.721 0 004.388-26.798c1.238-8.884 2.282-17.722 3.198-26.53.928-8.805 1.74-17.575 2.495-26.315 1.53-17.485 2.798-34.828 4.362-52.114.789-8.653 1.668-17.271 2.869-25.961.599-4.348 1.295-8.707 2.166-13.109a174.19 174.19 0 013.217-13.504c-4.081 2.56-7.668 5.883-10.923 9.481-3.243 3.614-6.135 7.544-8.716 11.633-2.581 4.091-4.874 8.343-6.932 12.679-.501 1.086-1.04 2.17-1.504 3.268l-1.421 3.297c-.879 2.212-1.781 4.43-2.566 6.671-3.255 8.947-5.672 18.086-7.546 27.269-1.855 9.188-3.135 18.43-3.92 27.68a277.022 277.022 0 00-.954 27.73c.15 9.231.733 18.443 1.825 27.617a243.444 243.444 0 004.781 27.361 197.67 197.67 0 003.7 13.533c1.425 4.483 2.981 8.951 4.987 13.348z" clip-rule="evenodd"></path> <path fill="#263238" fill-rule="evenodd" d="M162.758 332.178a172.54 172.54 0 00-2.832 12.107c-.789 3.987-1.5 8.286-2.173 13.141-1.305 9.463-2.218 18.859-2.869 25.987-.853 9.418-1.631 19.024-2.383 28.314-.632 7.786-1.283 15.84-1.979 23.799-.879 10.121-1.672 18.48-2.495 26.307-.999 9.559-2.043 18.232-3.199 26.511a520.893 520.893 0 01-4.38 26.772 375.341 375.341 0 01-2.854 13.518c-.857 3.642-1.893 7.887-3.188 12.22-1.84-4.231-3.224-8.367-4.354-11.918a198.311 198.311 0 01-3.688-13.492 242.474 242.474 0 01-4.77-27.296c-1.055-8.842-1.668-18.114-1.822-27.556a278.96 278.96 0 01.95-27.678c.808-9.468 2.125-18.758 3.913-27.611 2.035-9.972 4.497-18.865 7.523-27.188.67-1.917 1.44-3.845 2.185-5.709l.378-.946 1.414-3.282c.31-.739.662-1.486 1.006-2.208.165-.349.329-.698.49-1.047 2.151-4.53 4.474-8.776 6.898-12.613 2.697-4.277 5.611-8.166 8.656-11.558 3.244-3.584 6.386-6.402 9.573-8.574zm-28.153 211.853l.437-1.404c1.508-4.86 2.69-9.672 3.644-13.736a375.921 375.921 0 002.865-13.56 526.012 526.012 0 004.388-26.828c1.16-8.295 2.204-16.979 3.203-26.549.826-7.835 1.619-16.201 2.498-26.326.696-7.963 1.347-16.02 1.979-23.809.752-9.287 1.53-18.891 2.38-28.303.65-7.115 1.563-16.494 2.869-25.934.666-4.832 1.373-9.109 2.158-13.076.857-4.392 1.908-8.795 3.206-13.462l.393-1.405-1.227.771c-3.7 2.322-7.313 5.455-11.043 9.58-3.086 3.441-6.041 7.381-8.772 11.711-2.447 3.876-4.792 8.161-6.969 12.738-.161.352-.326.698-.487 1.045a59.705 59.705 0 00-1.025 2.246l-1.418 3.294-.385.959c-.748 1.876-1.519 3.816-2.196 5.748-3.045 8.37-5.521 17.316-7.564 27.344-1.799 8.897-3.123 18.231-3.935 27.745a279.931 279.931 0 00-.954 27.787c.153 9.487.771 18.797 1.829 27.677a245.197 245.197 0 004.792 27.425 199.436 199.436 0 003.711 13.57c1.261 3.967 2.843 8.661 5.013 13.416l.61 1.336z" clip-rule="evenodd"></path> <path fill="#263238" fill-rule="evenodd" d="M133.946 542.507l1.118-.098c-3.049-34.746-3.412-67.477-1.081-97.286 1.863-23.836 5.443-45.866 10.643-65.477 7.074-26.682 15.861-43.341 19.52-48.422l-.906-.666c-.108.149-10.807 15.248-19.699 48.796-5.215 19.678-8.81 41.775-10.676 65.682-2.335 29.87-1.972 62.665 1.081 97.471z" clip-rule="evenodd"></path> <path fill="#fff" fill-rule="evenodd" d="M118.507 579.434h31.995c3.393 0 6.266-2.517 6.741-5.906l6.296-44.913c.827-5.891-1.792-11.552-5.342-11.552h-47.385c-3.55 0-6.169 5.661-5.342 11.552l6.296 44.913c.475 3.389 3.348 5.906 6.741 5.906z" clip-rule="evenodd"></path> <path fill="#263238" fill-rule="evenodd" d="M158.197 517.629c1.19 0 2.102.774 2.66 1.419 1.777 2.065 2.633 5.88 2.128 9.488l-6.296 44.912c-.434 3.091-3.093 5.42-6.187 5.42h-31.995c-3.094 0-5.754-2.329-6.188-5.42l-6.296-44.912c-.505-3.608.348-7.423 2.129-9.488.557-.645 1.47-1.419 2.66-1.419h47.385zM118.507 580h31.995c3.651 0 6.786-2.748 7.298-6.393l6.296-44.913c.558-3.977-.381-8.053-2.39-10.389-1.018-1.181-2.233-1.808-3.509-1.808h-47.385c-1.276 0-2.492.627-3.509 1.808-2.009 2.336-2.948 6.412-2.391 10.389l6.296 44.913c.513 3.645 3.647 6.393 7.299 6.393z" clip-rule="evenodd"></path> <path fill="#263238" fill-rule="evenodd" d="M162.844 534.144h-56.678v-1.132h56.678v1.132z" clip-rule="evenodd"></path> <g> <path fill="#263238" fill-rule="evenodd" d="M525.01 75.427c0 10.317 8.29 18.681 18.517 18.681 10.226 0 18.517-8.364 18.517-18.68 0-10.317-8.291-18.681-18.517-18.681-10.227 0-18.517 8.364-18.517 18.68zM544.088 39.01V3.158a.751.751 0 00-.748-.753.751.751 0 00-.748.753v35.854c0 .416.335.754.748.754a.751.751 0 00.748-.754z" clip-rule="evenodd"></path> <path fill="#fff" fill-rule="evenodd" d="M543.145 39.387l36.107 36.23h-71.45l35.343-36.23z" clip-rule="evenodd"></path> <path fill="#263238" fill-rule="evenodd" d="M577.444 74.868h-67.862l33.569-34.416 34.293 34.416zm-69.642 1.503h71.45a.753.753 0 00.529-1.282l-36.107-36.236a.747.747 0 00-.529-.22h-.004a.75.75 0 00-.531.225l-35.343 36.236a.752.752 0 00.535 1.277z" clip-rule="evenodd"></path> <path fill="#fff" fill-rule="evenodd" d="M539.595 39.387h7.49a2.25 2.25 0 002.24-2.26v-7.556a2.25 2.25 0 00-2.24-2.26h-7.49a2.25 2.25 0 00-2.241 2.26v7.556a2.25 2.25 0 002.241 2.26z" clip-rule="evenodd"></path> <path fill="#263238" fill-rule="evenodd" d="M547.09 28.048c.83 0 1.504.68 1.504 1.517v7.568c0 .836-.674 1.517-1.504 1.517h-7.501c-.829 0-1.504-.68-1.504-1.517v-7.568c0-.836.675-1.517 1.504-1.517h7.501zm-7.501 12.094h7.501c1.645 0 2.983-1.35 2.983-3.01v-7.567c0-1.66-1.338-3.009-2.983-3.009h-7.501c-1.644 0-2.983 1.35-2.983 3.01v7.567c0 1.66 1.339 3.009 2.983 3.009zM516.779 80.91a.752.752 0 00.748-.757v-4.536a.752.752 0 00-.748-.756.752.752 0 00-.748.756v4.536c0 .417.335.756.748.756zm0 9.071a.752.752 0 00.748-.756v-4.536a.752.752 0 00-.748-.756.752.752 0 00-.748.756v4.536c0 .417.335.756.748.756zm0 9.072a.752.752 0 00.748-.756V93.76a.752.752 0 00-.748-.756.752.752 0 00-.748.756v4.536c0 .417.335.756.748.756zm0 9.072a.752.752 0 00.748-.756v-4.536a.752.752 0 00-.748-.756.752.752 0 00-.748.756v4.536c0 .417.335.756.748.756zm0 9.072a.752.752 0 00.748-.756v-4.536a.752.752 0 00-.748-.756.752.752 0 00-.748.756v4.536c0 .417.335.756.748.756zm0 9.072a.753.753 0 00.748-.757v-4.535a.752.752 0 00-.748-.756.752.752 0 00-.748.756v4.535c0 .418.335.757.748.757zm0 9.071a.752.752 0 00.748-.756v-4.535a.753.753 0 00-.748-.757.753.753 0 00-.748.757v4.535c0 .418.335.756.748.756zm0 9.072a.752.752 0 00.748-.756v-4.536a.752.752 0 00-.748-.756.752.752 0 00-.748.756v4.536c0 .418.335.756.748.756zm0 9.072a.752.752 0 00.748-.756v-4.536a.752.752 0 00-.748-.756.752.752 0 00-.748.756v4.536c0 .417.335.756.748.756zm0 9.072a.752.752 0 00.748-.756v-4.536a.752.752 0 00-.748-.756.752.752 0 00-.748.756v4.536c0 .417.335.756.748.756zm0 9.072a.752.752 0 00.748-.756v-4.536a.752.752 0 00-.748-.756.752.752 0 00-.748.756v4.536c0 .417.335.756.748.756zm0 6.259a.752.752 0 00.748-.756v-1.723a.752.752 0 00-.748-.756.752.752 0 00-.748.756v1.723c0 .418.335.756.748.756z" clip-rule="evenodd"></path> </g> <g> <path fill="#263238" fill-rule="evenodd" d="M452.482 420.846c11.492 0 21.56-1.068 30.491-3.216 12.862-3.09 23.032-8.332 31.093-16.027 11.073-10.567 17.582-25.123 20.484-45.803 2.456-17.506 2.059-37.529 1.637-58.729-.133-6.655-.269-13.538-.319-20.454l-15.711.114c.05 7.019.188 13.953.321 20.658.799 40.166 1.489 74.857-17.21 92.7-12.625 12.05-34.367 16.718-66.466 14.269l-1.186 15.805c5.944.453 11.557.683 16.866.683z" clip-rule="evenodd"></path> <path fill="#fff" fill-rule="evenodd" d="M455.367 371.888h61.142c7.606 0 13.771-6.22 13.771-13.894v-99.751c0-7.673-6.165-13.893-13.771-13.893h-61.142c-7.606 0-13.772 6.22-13.772 13.893v99.751c0 7.674 6.166 13.894 13.772 13.894z" clip-rule="evenodd"></path> <path fill="#263238" fill-rule="evenodd" d="M516.508 245.105c7.181 0 13.023 5.894 13.023 13.139v99.75c0 7.244-5.842 13.139-13.023 13.139h-61.142c-7.182 0-13.024-5.895-13.024-13.139v-99.75c0-7.245 5.842-13.139 13.024-13.139h61.142zm-61.142 127.537h61.142c8.006 0 14.519-6.57 14.519-14.648v-99.75c0-8.077-6.513-14.648-14.519-14.648h-61.142c-8.007 0-14.52 6.571-14.52 14.648v99.75c0 8.078 6.513 14.648 14.52 14.648zM425.544 559.417h-16.455V422.706h16.455v136.711z" clip-rule="evenodd"></path> <path fill="#263238" fill-rule="evenodd" d="M458.585 563.622c0-6.906-5.551-12.507-12.398-12.507h-57.741c-6.847 0-12.398 5.601-12.398 12.507h82.537z" clip-rule="evenodd"></path> <path fill="#fff" fill-rule="evenodd" d="M382.317 433.484h69.879c25.367.389 25.389-42.837 0-42.448h-69.879c-10.501 0-19.013 8.589-19.013 19.182-1.465 11.873 6.631 23.379 19.013 23.266z" clip-rule="evenodd"></path> <path fill="#263238" fill-rule="evenodd" d="M452.513 391.791c6.451 0 11.739 3.015 14.926 8.521 4.072 7.031 4.071 16.858-.002 23.892-3.242 5.601-8.643 8.635-15.229 8.526H382.31c-.056.003-.112.003-.167.003-5.117 0-9.797-2.113-13.193-5.959-3.811-4.313-5.644-10.468-4.905-16.465l.006-.09c0-10.163 8.194-18.428 18.266-18.428h70.196zm.025 42.452c6.978 0 12.721-3.283 16.191-9.276 4.333-7.484 4.334-17.937.002-25.417-3.524-6.087-9.403-9.374-16.547-9.269v.019c-.21-.019-.466-.019-.774-.019h-69.093c-10.882 0-19.737 8.918-19.762 19.888-.789 6.503 1.133 12.918 5.278 17.609 3.684 4.174 8.76 6.465 14.309 6.465.06 0 .119 0 .179-.004h69.875c.114.004.229.004.342.004zM458.585 567.573h-3.915v-3.951h3.915v3.951zM419.274 567.573h-3.915v-3.951h3.915v3.951zM379.963 567.573h-3.915v-3.951h3.915v3.951z" clip-rule="evenodd"></path> <path fill="#fff" fill-rule="evenodd" d="M452.255 571.362c.037 8.351 12.623 8.348 12.659 0-.037-8.352-12.623-8.352-12.659 0z" clip-rule="evenodd"></path> <path fill="#263238" fill-rule="evenodd" d="M458.585 565.852c2.677 0 5.565 1.724 5.582 5.513-.017 3.778-2.905 5.503-5.581 5.503-2.676 0-5.563-1.721-5.582-5.506.018-3.786 2.906-5.51 5.581-5.51zm0 12.525h.001c3.502 0 7.057-2.408 7.077-7.012-.02-4.611-3.576-7.023-7.078-7.023-3.502 0-7.057 2.412-7.077 7.016v.007c.021 4.604 3.576 7.012 7.077 7.012z" clip-rule="evenodd"></path> <path fill="#fff" fill-rule="evenodd" d="M410.928 571.362c.037 8.351 12.623 8.348 12.659 0-.037-8.352-12.623-8.352-12.659 0z" clip-rule="evenodd"></path> <path fill="#263238" fill-rule="evenodd" d="M417.256 565.852c2.676 0 5.565 1.724 5.582 5.513-.017 3.778-2.905 5.503-5.581 5.503-2.676 0-5.563-1.721-5.582-5.506.018-3.786 2.905-5.51 5.581-5.51zm0 12.525h.001c3.501 0 7.057-2.408 7.077-7.012-.021-4.611-3.576-7.023-7.078-7.023-3.502 0-7.057 2.412-7.077 7.016v.007c.02 4.604 3.576 7.012 7.077 7.012z" clip-rule="evenodd"></path> <path fill="#fff" fill-rule="evenodd" d="M369.719 571.362c.038 8.351 12.623 8.348 12.659 0-.037-8.352-12.623-8.352-12.659 0z" clip-rule="evenodd"></path> <path fill="#263238" fill-rule="evenodd" d="M376.048 565.852c2.676 0 5.565 1.724 5.582 5.513-.017 3.778-2.905 5.503-5.581 5.503-2.676 0-5.563-1.721-5.582-5.506.018-3.786 2.905-5.51 5.581-5.51zm0 12.525h.001c3.501 0 7.057-2.408 7.077-7.012-.021-4.611-3.576-7.023-7.078-7.023-3.502 0-7.057 2.412-7.077 7.016v.007c.02 4.604 3.576 7.012 7.077 7.012z" clip-rule="evenodd"></path> <g> <path fill="#fff" fill-rule="evenodd" d="M287.944 577.012c.113-.427-.153-3.295.3-3.552a.715.715 0 01.527-.207l9.464.249c1.286-.053.554 3.079.752 3.744l10.677.23c.508-25.915.757-52.087.938-78.002l-32.822-.215c-.134 19.703-.321 40.048-.621 59.691.004.43-.4.785-.822.74-7.815-.465-19.038 5.457-18.795 16.672l30.402.65z" clip-rule="evenodd"></path> <path fill="#263238" fill-rule="evenodd" d="M277.04 498.534c-.134 19.907-.325 40.565-.628 60.405-8.918-.382-20.029 5.977-19.643 18.122l31.909.724.082-3.777 9.456.252.028 3.74 12.152.276c.503-25.964.791-53.581.959-79.515l-34.315-.227zm1.485 1.446l31.324.211c-.177 25.432-.426 51.072-.916 76.5l-9.203-.189c-.069-1.211.406-3.755-1.474-3.759l-9.458-.249c-1.919-.087-1.519 2.525-1.583 3.748-6.647-.14-22.086-.461-28.875-.6.075-10.348 10.927-15.647 17.986-15.198.823.061 1.586-.649 1.582-1.483.296-19.428.483-39.504.617-58.981z" clip-rule="evenodd"></path> <path fill="#263238" fill-rule="evenodd" d="M309.756 574.377l.028-1.509-51.395-.989-.03 1.51 51.397.988z" clip-rule="evenodd"></path> <path fill="#263238" fill-rule="evenodd" d="M276.389 573.736l.03-1.51c-5.473-.105-9.853-4.661-9.767-10.151l-1.497-.027c-.101 6.321 4.938 11.563 11.234 11.688z" clip-rule="evenodd"></path> <path fill="#fff" fill-rule="evenodd" d="M277.815 546.353s6.052-.325 5.918 5.196c-.056 2.291 2.023 1.982 6.396 2.046l19.552.279" clip-rule="evenodd"></path> <path fill="#263238" fill-rule="evenodd" d="M309.683 554.629a.755.755 0 00.01-1.51l-19.551-.279a100.16 100.16 0 00-1.5-.011c-1.968-.008-3.521-.015-3.966-.48-.052-.052-.209-.215-.194-.781.041-1.751-.472-3.166-1.53-4.2-1.957-1.917-5.047-1.778-5.178-1.77a.757.757 0 00.079 1.509c.049-.003 2.589-.101 4.063 1.348.74.732 1.099 1.766 1.069 3.075-.018.808.184 1.419.618 1.872.883.917 2.446.925 5.031.936.464 0 .958.004 1.486.011l19.552.28h.011z" clip-rule="evenodd"></path> <path fill="#F50057" fill-rule="evenodd" d="M266.484 542.869l51.386.642c.431-35.319.573-72.605.631-107.792-1.353-32.708 36.881-38.848 62.433-39.524 29.688-2.853 32.402-51.895-1.183-51.83-48.086.321-102.19 20.519-111.109 74.156-1.047 5.853-1.526 12.039-1.556 17.979-.007 34.681-.187 71.586-.602 106.369z" clip-rule="evenodd"></path> </g> <g> <path fill="#263238" fill-rule="evenodd" d="M299.831 573.43c.102-5.495 4.555-9.907 9.958-9.907h.154l.024-1.509h-.178c-6.216 0-11.337 5.072-11.454 11.389l1.496.027z" clip-rule="evenodd"></path> <path fill="#fff" fill-rule="evenodd" d="M327.026 578.174c.111-.415-.156-3.17.294-3.416a.763.763 0 01.53-.2l9.462.249c1.279-.064.561 2.944.755 3.601l10.677.23c.458-24.541.768-51.272.922-75.722l-32.819-.227c-.923 19.239 1.19 40.595-1.439 58.816-7.531-.472-19.034 5.057-18.786 16.02l30.404.649z" clip-rule="evenodd"></path> <path fill="#263238" fill-rule="evenodd" d="M316.105 501.961a6939.944 6939.944 0 01-.621 58.819c-8.541-.377-20.006 5.438-19.634 17.413l31.909.724.079-3.634 9.456.253.032 3.596 12.151.276c.493-25.255.775-52 .944-77.213l-34.316-.234zm1.487 1.46l31.323.219c-.174 24.776-.425 49.43-.902 74.243l-9.203-.192c-.064-1.197.387-3.616-1.477-3.612l-9.456-.249c-1.89-.106-1.532 2.396-1.582 3.6-6.646-.136-22.087-.456-28.875-.6.07-10.102 11.191-15.061 17.977-14.601.805.061 1.585-.604 1.583-1.422.29-19.119.481-38.252.612-57.386z" clip-rule="evenodd"></path> <path fill="#263238" fill-rule="evenodd" d="M348.833 575.687l.028-1.51-51.394-.992-.029 1.509 51.395.993z" clip-rule="evenodd"></path> <path fill="#263238" fill-rule="evenodd" d="M338.91 574.739c.099-5.268 4.545-9.491 9.945-9.491h.162l.023-1.509h-.185c-6.212 0-11.327 4.883-11.442 10.97l1.497.03zM315.469 575.041l.029-1.509c-5.474-.106-9.858-4.476-9.773-9.74l-1.497-.027c-.098 6.095 4.944 11.152 11.241 11.276z" clip-rule="evenodd"></path> <path fill="#fff" fill-rule="evenodd" d="M316.881 548.681s6.051-.309 5.918 5c-.054 2.204 2.024 1.91 6.399 1.97l19.551.287" clip-rule="evenodd"></path> <path fill="#263238" fill-rule="evenodd" d="M348.75 556.689a.75.75 0 00.748-.743.754.754 0 00-.738-.766l-19.551-.283c-.533-.008-1.033-.008-1.499-.012-1.982-.007-3.547-.015-3.985-.471-.047-.05-.19-.197-.177-.714.041-1.656-.453-3.004-1.468-4.004-1.948-1.917-5.104-1.777-5.236-1.77a.75.75 0 00-.71.793.76.76 0 00.784.713c.058 0 2.657-.098 4.123 1.351.711.702 1.042 1.646 1.011 2.88-.019.773.177 1.362.599 1.8.876.913 2.448.92 5.052.932.461.004.956.004 1.485.011l19.551.283h.011z" clip-rule="evenodd"></path> <g> <path fill="#263238" fill-rule="evenodd" d="M356.842 545.971c.859-37.659-.146-77.737 1.079-115.411 3.544-28.168 38.428-32.572 61.844-33.629 30.039-2.883 32.648-51.579-1.265-51.475-38.892.646-84.615 13.275-103.329 51.252-6.65 13.152-9.214 27.749-9.098 42.267-.005 34.61-.191 71.828-.618 106.344l51.387.652z" clip-rule="evenodd"></path> <path fill="#263238" fill-rule="evenodd" d="M462.814 354.953c-.171-55.876-99.349-55.87-99.511.003.171 55.87 99.35 55.866 99.511-.003z" clip-rule="evenodd"></path> </g> </g> <path fill="#263238" d="M462.576 313.152h-49.753v83.779h27.682c12.19 0 22.071-9.967 22.071-22.266v-61.513z"></path> <g> <path fill="#fff" fill-rule="evenodd" d="M267.52 187.853l36.948 1.535c3.959.17 7.06 2.822 6.96 5.914-.224 27.642-2.12 56.83 7.379 82.969.17.438.672.541 1.028.281 10.522-6.812 18.845-17.222 26.749-27.335a301.875 301.875 0 009.471-13.212c6.568-9.511 19.671-11.197 29.596-5.323 10.617 6.239 13.847 20.185 6.845 30.475-7.105 10.441-14.535 20.431-23.02 29.999-8.166 9.143-17.859 18.567-28.987 24.782-20.496 12.336-45.807 7.15-58.039-14.019-18.3-32.269-15.618-79.865-14.93-116.066z" clip-rule="evenodd"></path> <path fill="#263238" fill-rule="evenodd" d="M385.272 233.333a20.725 20.725 0 019.697 13.319c1.248 5.606.15 11.316-3.091 16.079-8.046 11.823-15.342 21.331-22.961 29.922-10.39 11.633-19.539 19.458-28.792 24.625-10.269 6.181-21.858 8.029-32.656 5.218-10.186-2.652-18.842-9.384-24.373-18.956-16.774-29.578-15.797-72.534-15.016-107.049.06-2.667.12-5.287.173-7.852l36.183 1.504c3.528.151 6.329 2.454 6.244 5.135-.029 3.519-.086 7.114-.14 10.59-.383 24.437-.779 49.707 7.563 72.663.167.429.496.737.91.86a1.45 1.45 0 001.239-.213c11-7.126 19.826-18.418 26.918-27.494a302.12 302.12 0 009.501-13.252c3.773-5.464 10.077-8.393 16.708-8.393 4.007 0 8.132 1.069 11.893 3.294zm-44.401 85.254c9.381-5.239 18.653-13.163 29.16-24.925 7.663-8.643 14.997-18.199 23.081-30.077 3.479-5.112 4.657-11.243 3.317-17.263a22.234 22.234 0 00-10.402-14.292c-10.651-6.303-24.087-3.869-30.588 5.544a301.83 301.83 0 01-9.449 13.183c-7.013 8.973-15.746 20.147-26.525 27.137-8.202-22.651-7.81-47.74-7.429-72.002.055-3.48.111-7.077.14-10.584.111-3.485-3.333-6.487-7.677-6.674l-36.95-1.535a.741.741 0 00-.542.205.761.761 0 00-.236.535c-.052 2.808-.12 5.685-.187 8.617-.785 34.703-1.766 77.89 15.214 107.839 5.739 9.928 14.721 16.909 25.297 19.662a41.297 41.297 0 0010.418 1.331c7.969 0 16.001-2.273 23.358-6.701z" clip-rule="evenodd"></path> <path fill="#fff" fill-rule="evenodd" d="M293.9 191.104c.215-5.53.488-11.061.8-16.592.446-6.943 9.193-6.394 8.817.518a830.428 830.428 0 00-.921 20.119" clip-rule="evenodd"></path> <path fill="#263238" fill-rule="evenodd" d="M302.597 195.904a.751.751 0 00.747-.729 829.42 829.42 0 01.92-20.101c.212-3.902-2.257-6.098-4.805-6.252-3.365-.205-5.316 2.684-5.505 5.641a940.54 940.54 0 00-.802 16.612.752.752 0 00.719.783.75.75 0 00.776-.724c.206-5.271.468-10.694.801-16.579.195-3.053 2.174-4.332 3.922-4.226 1.754.105 3.566 1.609 3.399 4.66a842.022 842.022 0 00-.921 20.135.753.753 0 00.724.78h.025z" clip-rule="evenodd"></path> <path fill="#fff" fill-rule="evenodd" d="M293.9 191.104c.216-5.53.488-11.061.801-16.592.177-2.934-1.649-5.442-4.083-5.601-2.433-.159-4.553 2.117-4.733 5.083a954.537 954.537 0 00-.809 16.768" clip-rule="evenodd"></path> <path fill="#263238" fill-rule="evenodd" d="M293.9 191.859a.752.752 0 00.747-.725c.205-5.271.467-10.694.8-16.579.202-3.341-1.944-6.212-4.782-6.397-1.221-.081-2.441.358-3.427 1.235-1.226 1.091-1.992 2.751-2.101 4.555a950.792 950.792 0 00-.81 16.784.752.752 0 00.719.784.754.754 0 00.776-.724c.208-5.328.472-10.809.809-16.755.085-1.403.667-2.684 1.597-3.511.694-.619 1.499-.916 2.34-.862 2.019.132 3.537 2.286 3.385 4.802a938.873 938.873 0 00-.801 16.608.751.751 0 00.718.784l.03.001z" clip-rule="evenodd"></path> <path fill="#fff" fill-rule="evenodd" d="M285.076 190.762c.217-5.595.492-11.184.808-16.768.18-2.962-1.646-5.491-4.078-5.65-2.436-.159-4.557 2.138-4.736 5.132a932.592 932.592 0 00-.819 16.943" clip-rule="evenodd"></path> <path fill="#263238" fill-rule="evenodd" d="M285.076 191.517a.752.752 0 00.747-.726c.207-5.327.472-10.808.808-16.754.204-3.368-1.94-6.261-4.777-6.447-1.216-.08-2.431.359-3.412 1.234-1.238 1.099-2.008 2.778-2.121 4.606a965.503 965.503 0 00-.819 16.96.755.755 0 00.718.784.753.753 0 00.778-.725c.21-5.383.476-10.92.816-16.93.086-1.427.677-2.727 1.616-3.563.692-.616 1.496-.914 2.327-.859 2.017.132 3.534 2.308 3.38 4.851a950.429 950.429 0 00-.809 16.784.751.751 0 00.748.785z" clip-rule="evenodd"></path> <path fill="#fff" fill-rule="evenodd" d="M302.44 200.489c.071-2.988.176-5.982.281-8.976.306-6.864 9.063-6.474 8.825.342a650.4 650.4 0 00-.461 19.771" clip-rule="evenodd"></path> <path fill="#263238" fill-rule="evenodd" d="M311.085 212.381a.752.752 0 00.748-.749c.046-6.301.197-12.761.461-19.749.134-3.858-2.379-5.98-4.931-6.083-3.359-.14-5.259 2.754-5.389 5.679a799.135 799.135 0 00-.282 8.991.752.752 0 00.73.773.753.753 0 00.766-.736c.069-2.88.168-5.765.281-8.967.134-3.007 2.088-4.302 3.834-4.232 1.757.071 3.6 1.516 3.495 4.52a646.533 646.533 0 00-.461 19.792.751.751 0 00.742.761h.006z" clip-rule="evenodd"></path> <path fill="#fff" fill-rule="evenodd" d="M276.25 190.42c-.606-5.14 3.55-17.829-3.494-18.808-7.238.211-4.339 13.362-5.33 18.465" clip-rule="evenodd"></path> <path fill="#263238" fill-rule="evenodd" d="M276.251 191.175a.754.754 0 00.744-.844c-.165-1.381.049-3.441.273-5.621.599-5.812 1.343-13.046-4.41-13.845a.737.737 0 00-.124-.007c-5.978.174-5.895 7.626-5.828 13.614.022 2.124.045 4.13-.213 5.46a.754.754 0 00.591.886.743.743 0 00.875-.595c.288-1.483.266-3.564.243-5.768-.074-6.74.199-11.914 4.314-12.086 3.939.599 3.737 5.65 3.063 12.185-.232 2.266-.452 4.407-.273 5.955a.754.754 0 00.745.666z" clip-rule="evenodd"></path> <g> <path fill="#F50057" fill-rule="evenodd" d="M347.44 351.043c-.381 4.122 2.833 7.683 6.938 7.683h110.631c3.615 0 6.672-2.7 7.149-6.315l-5.726-101.043c1.6-12.107-7.737-22.865-19.844-22.865h-72.357c-15.686.118-28.05 14.279-26.757 30.025l-.034 92.515z" clip-rule="evenodd"></path> <path fill="#263238" fill-rule="evenodd" d="M380.008 228.503c9.058-38.483 76.408-11.277 32.672 20.845a1.961 1.961 0 01-2.641-.141l-5.187-5.233-5.169-5.215-10.059 9.857c-3.814 3.967-9.923-15.216-9.616-20.113zM436.883 243.145c2.272.026 2.26-3.575-.012-3.534-2.272-.026-2.261 3.575.012 3.534zM423.335 275.569c2.272.027 2.261-3.574-.012-3.533-2.272-.026-2.261 3.574.012 3.533zM435.865 290.609c2.272.026 2.261-3.575-.011-3.534-2.272-.026-2.261 3.575.011 3.534zM458.18 290.609c2.273.026 2.261-3.575-.011-3.534-2.272-.026-2.261 3.575.011 3.534zM450.487 305.438c2.272.026 2.261-3.575-.011-3.534-2.272-.026-2.261 3.575.011 3.534zM426.522 307.847c2.272.026 2.261-3.574-.011-3.533-2.272-.026-2.261 3.575.011 3.533zM463.016 320.477c2.272.027 2.261-3.574-.011-3.533-2.272-.026-2.261 3.574.011 3.533zM439.053 322.887c2.273.026 2.261-3.574-.011-3.533-2.272-.026-2.261 3.574.011 3.533zM453.677 337.716c2.272.026 2.26-3.574-.012-3.533-2.272-.026-2.261 3.575.012 3.533zM429.713 340.126c2.272.026 2.261-3.574-.012-3.533-2.272-.026-2.261 3.574.012 3.533zM466.206 352.756c2.272.026 2.261-3.574-.011-3.534-2.273-.026-2.261 3.575.011 3.534zM442.244 355.165c2.272.026 2.261-3.574-.011-3.533-2.273-.026-2.261 3.574.011 3.533zM373.172 243.291c2.272.026 2.26-3.574-.012-3.534-2.272-.026-2.26 3.575.012 3.534zM409.666 255.921c2.272.026 2.26-3.575-.011-3.534-2.273-.026-2.261 3.575.011 3.534zM385.703 258.33c2.272.026 2.261-3.574-.011-3.533-2.272-.026-2.261 3.575.011 3.533zM400.325 273.16c2.272.026 2.261-3.575-.011-3.534-2.273-.026-2.261 3.575.011 3.534zM376.362 275.569c2.272.027 2.261-3.574-.011-3.533-2.272-.026-2.261 3.574.011 3.533zM412.855 288.199c2.272.027 2.261-3.574-.011-3.533-2.272-.026-2.261 3.574.011 3.533zM388.892 290.609c2.272.026 2.261-3.575-.011-3.534-2.272-.026-2.261 3.575.011 3.534zM403.515 305.438c2.273.026 2.261-3.575-.011-3.534-2.272-.026-2.261 3.575.011 3.534zM379.549 307.847c2.273.026 2.261-3.574-.011-3.533-2.272-.026-2.261 3.575.011 3.533zM416.045 320.477c2.272.027 2.261-3.574-.012-3.533-2.272-.026-2.261 3.574.012 3.533zM392.081 322.887c2.272.026 2.261-3.574-.011-3.533-2.273-.026-2.261 3.574.011 3.533zM406.704 337.716c2.272.026 2.261-3.574-.011-3.533-2.272-.026-2.261 3.575.011 3.533zM382.74 340.126c2.272.026 2.261-3.574-.011-3.533-2.272-.026-2.261 3.574.011 3.533zM419.234 352.756c2.272.026 2.261-3.574-.011-3.533-2.272-.027-2.261 3.574.011 3.533zM395.27 355.165c2.272.026 2.261-3.574-.011-3.533-2.272-.026-2.261 3.574.011 3.533zM362.693 255.921c2.272.026 2.261-3.575-.011-3.534-2.272-.026-2.261 3.575.011 3.534zM353.353 273.16c2.272.026 2.261-3.575-.011-3.534-2.272-.026-2.261 3.575.011 3.534zM365.883 288.199c2.273.027 2.261-3.574-.011-3.533-2.272-.026-2.261 3.574.011 3.533zM356.543 305.438c2.272.026 2.261-3.575-.012-3.534-2.272-.026-2.261 3.575.012 3.534zM369.072 320.477c2.272.027 2.261-3.574-.011-3.533-2.272-.026-2.261 3.574.011 3.533zM359.73 337.716c2.272.026 2.261-3.574-.011-3.533-2.272-.026-2.261 3.575.011 3.533zM372.262 352.756c2.272.026 2.26-3.574-.012-3.533-2.272-.027-2.261 3.574.012 3.533z" clip-rule="evenodd"></path> </g> <g> <path fill="#fff" fill-rule="evenodd" d="M514.354 384.627l-27.432-25.018c-2.529-2.289-3.931-6.23-1.747-8.905 10.256-12.11 37.173-44.424 28.468-60.116-13.355-14.942-43.682-16.178-63.098-17.105-10.901-.442-18.162-10.963-18.928-21.924-.91-11.935 7.779-22.818 19.806-22.61 17.537.399 35.576 2.159 52.917 7.037 31.263 8.032 58.688 31.523 55.029 66.873-3.474 31.994-24.864 58.651-45.015 81.768z" clip-rule="evenodd"></path> <path fill="#263238" fill-rule="evenodd" d="M451.09 229.701l.322.002c20.362.464 37.611 2.757 52.728 7.01 16.26 4.178 30.553 12.336 40.262 22.977 10.979 12.031 15.898 26.932 14.225 43.091-3.397 31.283-23.696 57.061-44.333 80.772l-26.869-24.504c-2.288-2.071-3.538-5.579-1.67-7.865 9.313-10.996 37.681-44.491 28.543-60.964a.777.777 0 00-.098-.137c-13.372-14.962-43.104-16.377-62.778-17.314l-.84-.04c-10.902-.441-17.521-11.264-18.217-21.223-.454-5.951 1.542-11.778 5.476-15.99 3.508-3.758 8.203-5.815 13.249-5.815zm63.265 155.68l.043-.001a.741.741 0 00.519-.255c10.082-11.565 20.553-24.132 28.837-37.656 9.427-15.392 14.779-29.957 16.361-44.527 1.719-16.606-3.334-31.915-14.612-44.275-9.904-10.853-24.456-19.168-40.977-23.413-15.223-4.282-32.592-6.593-53.084-7.06-5.608-.094-10.815 2.136-14.691 6.287-4.221 4.521-6.364 10.767-5.878 17.136.741 10.608 7.878 22.144 19.644 22.62l.835.04c19.397.924 48.697 2.318 61.68 16.754 3.53 6.473 1.125 16.757-7.151 30.568-7.164 11.957-17.051 23.63-21.273 28.615-2.446 2.996-.996 7.413 1.816 9.957l27.43 25.016a.744.744 0 00.501.194z" clip-rule="evenodd"></path> <path fill="#fff" fill-rule="evenodd" d="M496.125 365.117a394.865 394.865 0 01-11.17 12.073c-2.022 2.106-5.092 2.379-6.815.647-1.732-1.74-1.498-4.794.477-6.851a386.764 386.764 0 0013.301-14.524" clip-rule="evenodd"></path> <path fill="#263238" fill-rule="evenodd" d="M480.994 379.728h.048c1.613-.014 3.235-.748 4.45-2.013a393.623 393.623 0 0011.191-12.096.758.758 0 00-.06-1.065.743.743 0 00-1.056.06 391.834 391.834 0 01-11.149 12.05c-.939.977-2.174 1.544-3.39 1.555h-.034c-.912 0-1.737-.325-2.326-.917-1.424-1.431-1.206-4.029.487-5.791a389.166 389.166 0 0013.326-14.552.76.76 0 00-.07-1.065.743.743 0 00-1.056.071 387.755 387.755 0 01-13.275 14.495c-2.259 2.353-2.469 5.902-.468 7.911.871.876 2.071 1.357 3.382 1.357z" clip-rule="evenodd"></path> <path fill="#fff" fill-rule="evenodd" d="M496.124 365.117c-3.63 4.1-7.364 8.118-11.171 12.073-2.015 2.099-2.278 5.182-.546 6.923 1.723 1.732 4.822 1.429 6.884-.719a402.31 402.31 0 0011.418-12.342" clip-rule="evenodd"></path> <path fill="#263238" fill-rule="evenodd" d="M487.233 385.988h.048c1.641-.015 3.299-.769 4.547-2.069a401.681 401.681 0 0011.439-12.365.758.758 0 00-.06-1.065.743.743 0 00-1.056.06c-3.541 4-7.269 8.03-11.397 12.319-.973 1.013-2.243 1.599-3.486 1.61-.92.011-1.748-.311-2.334-.9-1.423-1.431-1.174-4.061.556-5.864a391.226 391.226 0 0011.191-12.095.757.757 0 00-.06-1.065.743.743 0 00-1.056.06 391.834 391.834 0 01-11.149 12.05c-2.297 2.392-2.538 5.973-.538 7.983.861.866 2.051 1.341 3.355 1.341z" clip-rule="evenodd"></path> <path fill="#fff" fill-rule="evenodd" d="M502.709 371.052a402.31 402.31 0 01-11.418 12.342c-2.056 2.141-2.348 5.254-.617 6.994 1.724 1.732 4.852 1.399 6.954-.789a413.397 413.397 0 0011.667-12.611" clip-rule="evenodd"></path> <path fill="#263238" fill-rule="evenodd" d="M493.475 392.249h.049c1.668-.016 3.36-.79 4.642-2.125a409.931 409.931 0 0011.688-12.634.759.759 0 00-.06-1.065.743.743 0 00-1.056.06 409.396 409.396 0 01-11.646 12.588c-1.006 1.047-2.311 1.654-3.582 1.666-.933.01-1.722-.298-2.307-.885-1.423-1.431-1.142-4.093.626-5.935a402.85 402.85 0 0011.439-12.364.76.76 0 00-.06-1.066.744.744 0 00-1.056.06c-3.541 4-7.269 8.03-11.397 12.32-2.375 2.472-2.641 6.01-.608 8.054.852.856 2.032 1.326 3.328 1.326z" clip-rule="evenodd"></path> <path fill="#fff" fill-rule="evenodd" d="M495.287 352.503c-3.095 3.091-7.384 11.462-12.394 7.436-1.784-1.666-1.735-4.684.102-6.741 4.213-4.775 8.264-9.614 12.034-14.517" clip-rule="evenodd"></path> <path fill="#263238" fill-rule="evenodd" d="M485.626 361.769c1.036 0 2.099-.365 3.185-1.098 1.802-1.215 3.419-3.264 4.845-5.072.775-.981 1.507-1.909 2.158-2.56a.76.76 0 00.006-1.067.745.745 0 00-1.059-.005c-.713.713-1.472 1.674-2.276 2.692-1.358 1.722-2.897 3.672-4.506 4.757-1.696 1.145-3.116 1.13-4.597-.049-1.46-1.388-1.387-3.922.17-5.664 4.566-5.174 8.513-9.935 12.069-14.559a.759.759 0 00-.133-1.059.743.743 0 00-1.049.133c-3.536 4.597-7.462 9.333-12.002 14.478-2.105 2.357-2.13 5.856-.052 7.797l.042.036c1.029.827 2.098 1.24 3.199 1.24z" clip-rule="evenodd"></path> <path fill="#fff" fill-rule="evenodd" d="M509.295 376.987c-2.805 4.406-14.315 11.563-9.629 16.891 5.587 4.661 12.25-7.624 16.215-10.955" clip-rule="evenodd"></path> <path fill="#263238" fill-rule="evenodd" d="M502.319 395.681c3.746 0 7.533-4.621 10.473-8.207 1.32-1.61 2.566-3.13 3.567-3.971a.76.76 0 00.097-1.064.745.745 0 00-1.054-.097c-1.108.931-2.398 2.504-3.763 4.17-4.341 5.296-8.201 9.465-11.452 6.821-2.564-2.99.85-6.758 5.578-11.368 1.695-1.652 3.296-3.213 4.16-4.57a.76.76 0 00-.225-1.043.744.744 0 00-1.034.227c-.77 1.209-2.31 2.711-3.941 4.301-4.195 4.091-9.416 9.181-5.619 13.498a.635.635 0 00.083.081c1.026.857 2.076 1.222 3.13 1.222z" clip-rule="evenodd"></path> </g> </g> <g> <path fill="#263238" fill-rule="evenodd" d="M378.653 192.377h38.89v-7.637c0-10.222-8.214-18.508-18.346-18.508h-20.544v26.145z" clip-rule="evenodd"></path> <path fill="#fff" fill-rule="evenodd" d="M376.049 194.574c0 3.175 2.552 5.749 5.699 5.749s5.698-2.574 5.698-5.749-2.551-5.749-5.698-5.749c-3.147 0-5.699 2.574-5.699 5.749z" clip-rule="evenodd"></path> <path fill="#263238" fill-rule="evenodd" d="M381.748 189.58c2.729 0 4.95 2.24 4.95 4.994 0 2.754-2.221 4.994-4.95 4.994-2.73 0-4.95-2.24-4.95-4.994 0-2.754 2.22-4.994 4.95-4.994zm0 11.498c3.554 0 6.446-2.918 6.446-6.504 0-3.586-2.892-6.503-6.446-6.503-3.555 0-6.447 2.917-6.447 6.503 0 3.586 2.892 6.504 6.447 6.504z" clip-rule="evenodd"></path> <path fill="#fff" fill-rule="evenodd" d="M400.865 232.122c7.091 0 13.629-5.486 13.629-12.037l-6.026-22.515c0-6.551 1.733-11.861-5.359-11.861h-7.481c-7.092 0-5.359 5.31-5.359 11.861v22.692c0 6.55 3.504 11.86 10.596 11.86z" clip-rule="evenodd"></path> <path fill="#263238" fill-rule="evenodd" d="M413.744 220.184c-.064 5.969-6.056 11.183-12.88 11.183-7.261 0-9.848-5.736-9.848-11.105V197.57c0-1.15-.051-2.244-.102-3.301-.137-2.908-.256-5.42.934-6.678.717-.758 1.953-1.127 3.778-1.127h7.482c1.826 0 3.062.369 3.779 1.127 1.189 1.258 1.071 3.77.933 6.678-.05 1.057-.102 2.151-.102 3.301v.1l6.026 22.514zm-12.88 12.693c7.659 0 14.377-5.977 14.377-12.792v-.1l-6.026-22.515c.003-1.079.052-2.121.1-3.129.154-3.255.287-6.065-1.345-7.792-1.014-1.073-2.605-1.595-4.862-1.595h-7.482c-2.257 0-3.847.522-4.861 1.595-1.632 1.727-1.499 4.537-1.345 7.792.049 1.04.1 2.115.1 3.229v22.692c0 7.663 4.453 12.615 11.344 12.615z" clip-rule="evenodd"></path> <path fill="#fff" fill-rule="evenodd" d="M396.524 212.472c6.535 0 12.431-3.909 15.022-9.96l.243-.567a16.522 16.522 0 00.19-12.627c-1.611-4.097-4.707-7.316-8.717-9.064a16.117 16.117 0 00-6.479-1.358c-6.534 0-12.431 3.91-15.022 9.96l-.243.568a16.527 16.527 0 00-.19 12.627c1.611 4.097 4.706 7.316 8.717 9.064a16.116 16.116 0 006.479 1.357z" clip-rule="evenodd"></path> <path fill="#263238" fill-rule="evenodd" d="M396.784 178.142c2.336 0 4.615.477 6.776 1.419 4.194 1.828 7.431 5.194 9.115 9.478a17.279 17.279 0 01-.197 13.205l-.244.568c-2.709 6.327-8.876 10.415-15.709 10.415-2.335 0-4.615-.477-6.775-1.419-8.658-3.774-12.658-13.949-8.918-22.683l.244-.568c2.709-6.327 8.875-10.415 15.708-10.415zm0 1.509a15.607 15.607 0 00-14.335 9.505l-.243.568c-3.419 7.983.224 17.249 8.137 20.698a15.443 15.443 0 006.182 1.296 15.608 15.608 0 0014.336-9.505l.243-.568c3.419-7.983-.225-17.25-8.138-20.698a15.436 15.436 0 00-6.182-1.296z" clip-rule="evenodd"></path> <path fill="#fff" fill-rule="evenodd" d="M411.845 200.323c3.147 0 5.698-2.574 5.698-5.749s-2.551-5.749-5.698-5.749c-.394 0-.778.041-1.149.117" clip-rule="evenodd"></path> <path fill="#263238" fill-rule="evenodd" d="M411.845 201.078c3.555 0 6.447-2.918 6.447-6.504 0-3.586-2.892-6.503-6.447-6.503-.436 0-.873.044-1.298.132a.755.755 0 00.3 1.479 4.97 4.97 0 01.998-.102c2.73 0 4.951 2.24 4.951 4.994 0 2.754-2.221 4.994-4.951 4.994a.752.752 0 00-.748.755c0 .417.335.755.748.755z" clip-rule="evenodd"></path> <path fill="#263238" d="M408.191 190.385c-2.893 0-5.238-2.366-5.238-5.284 0-2.918 2.345-5.283 5.238-5.283 2.892 0 5.237 2.365 5.237 5.283s-2.345 5.284-5.237 5.284z"></path> <path fill="#263238" d="M384.997 175.667h20.574v6.793h-20.574v-6.793z"></path> <path fill="#F50057" fill-rule="evenodd" d="M394.294 200.948h-2.828c-.78 0-1.358-1.144-1.184-2.343l1.192-8.204c.276-1.904 1.969-2.011 2.341-.148l1.637 8.204c.246 1.235-.338 2.491-1.158 2.491z" clip-rule="evenodd"></path> </g> <g> <path fill="#263238" fill-rule="evenodd" d="M393.594 205.247c1.955 0 3.91-.751 5.399-2.253a.76.76 0 000-1.067.743.743 0 00-1.058 0 6.108 6.108 0 01-8.682 0 .743.743 0 00-1.058 0 .76.76 0 000 1.067 7.576 7.576 0 005.399 2.253zM398.041 192.023a1.756 1.756 0 001.911-1.589 1.763 1.763 0 00-1.575-1.928 1.755 1.755 0 00-1.911 1.589 1.762 1.762 0 001.575 1.928zM388.532 192.023a1.755 1.755 0 001.911-1.589 1.762 1.762 0 00-1.575-1.928 1.755 1.755 0 00-1.911 1.589 1.762 1.762 0 001.575 1.928z" clip-rule="evenodd"></path> </g> <g> <path fill="#F50057" fill-rule="evenodd" d="M385.671 183.592c-3.499 0-6.345 2.871-6.345 6.401s2.846 6.401 6.345 6.401c3.499 0 6.345-2.871 6.345-6.401 0-.214-.01-.425-.03-.633.449-.326.875-.204 1.158-.039a6.22 6.22 0 00-.036.672c0 3.53 2.847 6.401 6.346 6.401 3.493 0 6.336-2.862 6.345-6.384h4.262a.752.752 0 00.749-.755.752.752 0 00-.749-.755h-4.436c-.669-2.812-3.182-4.908-6.171-4.908-2.745 0-5.088 1.766-5.971 4.232-.547-.209-1.196-.266-1.84.005-.881-2.468-3.226-4.237-5.972-4.237zm13.783 1.509c2.673 0 4.849 2.195 4.849 4.892 0 2.697-2.176 4.892-4.849 4.892-2.674 0-4.849-2.195-4.849-4.892 0-2.697 2.175-4.892 4.849-4.892zm-13.783 0c2.674 0 4.849 2.195 4.849 4.892 0 2.697-2.175 4.892-4.849 4.892-2.674 0-4.849-2.195-4.849-4.892 0-2.697 2.175-4.892 4.849-4.892z" clip-rule="evenodd"></path> </g> </g> <path fill="#263238" d="M192.612 375.681c-.028-.249-.21-.423-.408-.388-.198.034-.336.265-.308.514a8.087 8.087 0 01-.194 2.853c-.061.24.044.497.235.573.19.077.394-.055.454-.295a9.207 9.207 0 00.221-3.257zM21.673 368.739c.028-.249.21-.423.408-.388.198.035.336.265.309.514a8.08 8.08 0 00.193 2.853c.06.24-.044.497-.234.573-.19.077-.395-.055-.455-.295a9.224 9.224 0 01-.221-3.257zM200.476 312.211c-.027-.25-.21-.423-.408-.389-.198.035-.336.266-.308.515a8.064 8.064 0 01-.194 2.853c-.06.24.045.496.235.573.19.077.394-.056.455-.295a9.23 9.23 0 00.22-3.257zM12.881 304.277c.056-.249.421-.423.817-.388.396.034.672.265.617.514-.212.953-.079 1.937.386 2.853.122.24-.088.497-.469.573-.38.077-.788-.055-.91-.295-.53-1.047-.682-2.169-.44-3.257zM191.32 442.918a.46.46 0 10-.856-.343 10.316 10.316 0 01-1.864 3.029.463.463 0 00.69.614 11.228 11.228 0 002.03-3.3zM22.568 435.724a.462.462 0 01.857-.342 10.318 10.318 0 001.863 3.028.46.46 0 11-.69.614 11.236 11.236 0 01-2.03-3.3zM94.276 429.597a.462.462 0 01.857-.342 10.32 10.32 0 001.863 3.028.46.46 0 11-.69.614 11.236 11.236 0 01-2.03-3.3zM58.407 403.906a.46.46 0 11.857-.343 10.314 10.314 0 001.863 3.029.462.462 0 01-.69.614 11.24 11.24 0 01-2.03-3.3zM408.884 78.164c-.028-.249-.211-.423-.409-.388-.198.035-.336.265-.308.515a8.087 8.087 0 01-.193 2.853c-.061.24.044.496.234.573.191.076.394-.056.455-.296a9.253 9.253 0 00.221-3.257zM237.944 71.222c.028-.249.211-.423.409-.388.198.035.336.265.308.515a8.088 8.088 0 00.193 2.853c.061.24-.044.496-.234.573-.19.076-.394-.056-.455-.296a9.252 9.252 0 01-.221-3.257zM416.748 14.694c-.028-.25-.211-.423-.409-.388-.197.035-.335.265-.308.514a8.088 8.088 0 01-.193 2.854c-.061.24.044.496.234.573.191.076.394-.056.455-.296a9.205 9.205 0 00.221-3.257zM229.153 6.76c.055-.249.421-.423.816-.388.396.035.672.265.617.515-.212.953-.078 1.936.387 2.853.121.24-.089.496-.469.573-.381.076-.788-.056-.91-.296-.531-1.047-.683-2.168-.441-3.257zM407.592 145.401a.462.462 0 00-.857-.342 10.321 10.321 0 01-1.863 3.028.462.462 0 10.689.615 11.248 11.248 0 002.031-3.301zM238.839 138.208a.46.46 0 11.856-.343 10.316 10.316 0 001.864 3.029.462.462 0 01-.69.614 11.249 11.249 0 01-2.03-3.3zM310.548 132.081a.46.46 0 11.856-.343 10.316 10.316 0 001.864 3.029.462.462 0 01-.69.614 11.249 11.249 0 01-2.03-3.3zM274.679 106.389a.461.461 0 01.856-.342 10.316 10.316 0 001.864 3.029.462.462 0 01-.69.614 11.22 11.22 0 01-2.03-3.301z"></path> </svg> 