<?xml version="1.0" encoding="UTF-8"?> <svg xmlns="http://www.w3.org/2000/svg" width="341" height="400" fill="none" viewBox="0 0 341 400"> <path fill="#fff" fill-rule="evenodd" d="M32.594 214.947c13.782 13.188 30.695 23.276 48.807 29.329l-8.663 26.112c-17.258-5.689-33.41-14.528-47.743-25.629-1.162-.537-1.226.94-2.928 2.17-5.902 5.802-15.172 4.709-20.692-1.309l31.22-30.673z" clip-rule="evenodd"></path> <path fill="#263238" fill-rule="evenodd" d="M73.237 271.207c-17.588-5.69-34.05-14.664-48.63-25.953-6.061 7.839-16.935 8.611-24.542-.067l32.86-30.796c13.86 13.305 30.954 23.468 49.232 29.469l-8.92 27.347zm-.992-1.637l8.393-24.879c-17.86-6.077-34.516-16.035-48.187-29.001L2.47 245.786c6.347 6.405 15.904 5.365 21.075-1.341.421-.559 1.295-.622 1.835-.18 2.633 2.03 5.302 4.007 8.052 5.864a161.071 161.071 0 0026.099 14.517 147.388 147.388 0 0012.713 4.924z" clip-rule="evenodd"></path> <path fill="#263238" fill-rule="evenodd" d="M5.029 248.742l-.92-.856 29.768-31.725.919.856-29.767 31.725z" clip-rule="evenodd"></path> <path fill="#fff" fill-rule="evenodd" d="M25.928 245.484c-3.626-2.785-7.094-5.66-10.458-8.787l10.458 8.787z" clip-rule="evenodd"></path> <path fill="#263238" fill-rule="evenodd" d="M25.927 246.111a.628.628 0 01-.384-.13c-3.904-2.999-7.34-5.886-10.503-8.825a.629.629 0 01.858-.917c3.134 2.912 6.54 5.774 10.413 8.749a.625.625 0 01-.384 1.123z" clip-rule="evenodd"></path> <path fill="#fff" fill-rule="evenodd" d="M19.692 248.572c-2.919-2.328-5.774-4.747-8.515-7.301l8.515 7.301z" clip-rule="evenodd"></path> <g> <path fill="#fff" fill-rule="evenodd" d="M181.794 399.857c.391-22.161 1.597-44.259 3.423-66.341l27.505 2.29a1047.471 1047.471 0 00-2.949 49.739c-.018.357.307.664.663.643 6.711.02 15.634 5.163 15.199 14.236l-43.841-.567z" clip-rule="evenodd"></path> <path fill="#263238" fill-rule="evenodd" d="M213.4 335.24a1052.981 1052.981 0 00-2.998 50.326c7.267.035 16.509 5.567 15.865 15.392l-45.11-.404c.368-22.586 1.618-45.213 3.485-67.727l28.758 2.413zm-1.354 1.133l-26.253-2.169c-1.782 21.626-2.952 43.302-3.359 65l42.553.629c.142-8.447-8.528-13.028-14.571-13.024-.691.018-1.308-.595-1.271-1.286a1045.223 1045.223 0 012.901-49.15z" clip-rule="evenodd"></path> <path fill="#fff" fill-rule="evenodd" d="M209.813 384.44a871.79 871.79 0 00-.363 12.673l.363-12.673z" clip-rule="evenodd"></path> <path fill="#263238" fill-rule="evenodd" d="M209.451 397.74h-.013a.63.63 0 01-.617-.64c.084-4.274.224-8.621.363-12.681a.63.63 0 011.258.043 862.199 862.199 0 00-.362 12.663.63.63 0 01-.629.615z" clip-rule="evenodd"></path> <path fill="#fff" fill-rule="evenodd" d="M216.002 387.39c-.088 2.897-.217 6.998-.268 9.848l.268-9.848z" clip-rule="evenodd"></path> <path fill="#263238" fill-rule="evenodd" d="M215.734 397.865h-.012a.627.627 0 01-.617-.638c.046-2.603.156-6.184.244-9.062l.025-.794a.628.628 0 011.258.038l-.025.794c-.088 2.875-.198 6.451-.244 9.046a.629.629 0 01-.629.616z" clip-rule="evenodd"></path> <path fill="#2979FF" fill-rule="evenodd" d="M219.551 372.836l-43.169-2.052a930.332 930.332 0 0112.886-117.965c4.893-29.957 9.956-59.824 15.118-89.683 2.028-11.734 13.229-19.596 24.985-17.543 11.754 2.054 19.625 13.172 17.606 24.858-6.416 37.171-12.723 74.355-18.636 111.573-4.653 29.945-7.316 60.525-8.79 90.812z" clip-rule="evenodd"></path> <path fill="#263238" fill-rule="evenodd" d="M181.98 371.677h-.024a.629.629 0 01-.605-.651c2.315-59.767 12.794-119.734 22.927-177.728 2.542-14.544 5.17-29.583 7.624-44.366a.629.629 0 011.242.204c-2.455 14.789-5.084 29.831-7.626 44.378-10.126 57.952-20.598 117.877-22.909 177.56a.628.628 0 01-.629.603zM192.638 372.184l-.025-.001a.628.628 0 01-.604-.651c2.385-60.228 13.001-120.722 23.267-179.223 2.747-15.651 5.587-31.834 8.219-47.735a.629.629 0 011.242.204c-2.633 15.907-5.474 32.093-8.221 47.747-10.259 58.461-20.868 118.912-23.249 179.057a.629.629 0 01-.629.602zM203.298 372.69h-.026a.629.629 0 01-.604-.651c2.374-59.723 12.899-119.673 23.078-177.648 2.761-15.731 5.617-31.999 8.261-47.984a.628.628 0 011.242.204c-2.645 15.992-5.501 32.262-8.264 47.996-10.171 57.935-20.689 117.842-23.059 177.481a.628.628 0 01-.628.602zM213.954 373.197h-.025a.628.628 0 01-.604-.651c2.279-58.232 12.478-116.53 22.342-172.907 2.594-14.827 5.277-30.159 7.772-45.244a.628.628 0 01.723-.516.627.627 0 01.519.72c-2.496 15.091-5.179 30.425-7.774 45.255-9.857 56.337-20.049 114.592-22.325 172.741a.628.628 0 01-.628.602zM225.394 398.058l-43.579-.87.026-1.253 43.578.869-.025 1.254z" clip-rule="evenodd"></path> </g> <g> <path fill="#263238" fill-rule="evenodd" d="M166.056 159.583c.144-46.412 83.551-46.407 83.687.002-.144 46.409-83.552 46.405-83.687-.002z" clip-rule="evenodd"></path> <path fill="#263238" fill-rule="evenodd" d="M31.395 260.599l23.568-36.097c18.1 11.796 39.545 19.199 61.27 19.058 8.96-.088 18.535-.839 25.599-6.927 14.014-12.286 18.572-32.009 21.636-50.218 1.075-7.183 1.75-14.584 2.07-22.036.537-11.657 9.678-21.256 21.466-22.091 12.985-.976 22.378 11.067 21.713 23.922-1.391 27.534-5.777 55.156-19.609 79.818-10.254 18.567-28.264 33.822-49.436 38.29-37.371 7.34-76.763-3.214-108.276-23.719z" clip-rule="evenodd"></path> </g> <g> <path fill="#fff" fill-rule="evenodd" d="M336.28 27.207c-34.884 2.773-28.966-6.962-29.25 28.86l29.703.45c.145-9.878-.05-19.628-.453-29.31z" clip-rule="evenodd"></path> <path fill="#263238" fill-rule="evenodd" d="M307.663 55.449l28.451.431c.116-8.757-.028-17.93-.437-27.997-7.142.544-12.594.566-16.605.582-5.685.023-8.817.035-10.228 1.479-1.567 1.602-1.483 5.383-1.317 12.917.075 3.362.167 7.514.136 12.588zm29.071 1.695h-.01l-29.704-.45a.628.628 0 01-.62-.633c.043-5.338-.053-9.682-.131-13.172-.179-8.13-.262-11.842 1.673-13.82 1.78-1.82 4.904-1.833 11.127-1.858 4.112-.017 9.743-.04 17.161-.629a.631.631 0 01.677.6c.44 10.588.591 20.187.456 29.344a.629.629 0 01-.629.618z" clip-rule="evenodd"></path> <path fill="#fff" fill-rule="evenodd" d="M314.092 29.908c-.18-4.596-.41-9.192-.673-13.787-.374-5.77-7.731-5.312-7.414.43.324 5.58.588 11.155.774 16.718" clip-rule="evenodd"></path> <path fill="#263238" fill-rule="evenodd" d="M306.78 33.896a.629.629 0 01-.629-.606 684.486 684.486 0 00-.773-16.703c-.179-3.242 1.897-5.067 4.04-5.195 2.828-.168 4.471 2.231 4.63 4.688.282 4.921.502 9.435.674 13.803a.628.628 0 01-.604.651.625.625 0 01-.653-.602 771.36 771.36 0 00-.673-13.776c-.165-2.537-1.825-3.6-3.299-3.512-1.475.088-2.999 1.337-2.859 3.872.336 5.774.597 11.404.775 16.732a.627.627 0 01-.608.648h-.021z" clip-rule="evenodd"></path> <path fill="#fff" fill-rule="evenodd" d="M314.094 29.908a775.52 775.52 0 00-.674-13.787c-.149-2.439 1.387-4.522 3.434-4.654 2.045-.132 3.829 1.758 3.98 4.223.267 4.64.497 9.285.68 13.934" clip-rule="evenodd"></path> <path fill="#263238" fill-rule="evenodd" d="M314.093 30.535a.629.629 0 01-.629-.602 762.092 762.092 0 00-.673-13.777c-.17-2.775 1.635-5.16 4.022-5.315 1.032-.066 2.051.298 2.882 1.027 1.031.906 1.676 2.285 1.768 3.784.283 4.963.506 9.524.679 13.947a.625.625 0 01-.604.651.63.63 0 01-.654-.602c-.173-4.415-.393-8.97-.68-13.922-.069-1.166-.56-2.23-1.343-2.918-.582-.514-1.265-.761-1.966-.716-1.698.11-2.975 1.9-2.847 3.99.281 4.92.502 9.433.674 13.802a.629.629 0 01-.604.65h-.025z" clip-rule="evenodd"></path> <path fill="#fff" fill-rule="evenodd" d="M321.513 29.624c-.182-4.65-.412-9.293-.68-13.933-.151-2.462 1.385-4.563 3.433-4.695 2.045-.133 3.828 1.777 3.983 4.264.267 4.685.5 9.377.685 14.08" clip-rule="evenodd"></path> <path fill="#263238" fill-rule="evenodd" d="M321.514 30.25a.63.63 0 01-.629-.602 764.05 764.05 0 00-.68-13.922c-.169-2.798 1.633-5.202 4.021-5.356 1.022-.067 2.042.298 2.869 1.024 1.038.914 1.69 2.31 1.781 3.828.289 5.014.513 9.623.689 14.093a.63.63 0 01-1.259.05 763.502 763.502 0 00-.685-14.07c-.073-1.185-.567-2.265-1.36-2.96-.582-.512-1.258-.76-1.953-.714-1.699.11-2.973 1.918-2.844 4.031.283 4.963.506 9.524.679 13.947a.627.627 0 01-.604.651h-.025z" clip-rule="evenodd"></path> <path fill="#fff" fill-rule="evenodd" d="M310.262 55.5c-9.372.483-11.879-3.396-11.237-12.218-.561-6.132.075-12.426 7.724-13.093 1.124 2.171 2.258 4.355 3.36 6.548" clip-rule="evenodd"></path> <path fill="#fff" fill-rule="evenodd" d="M307.03 56.066c-3.285-.05-7.498-.162-7.498-.162.127-3.455.133-9.042.068-12.63-.523-5.778-.034-12.509 7.072-13.082.077 2.212.163 4.424.216 6.632" clip-rule="evenodd"></path> <path fill="#263238" fill-rule="evenodd" d="M307.029 56.693h-.01c-3.251-.05-7.463-.161-7.506-.162a.63.63 0 01-.612-.65c.129-3.506.132-9.088.068-12.573-.303-3.366-.412-8.172 2.093-11.135 1.299-1.537 3.169-2.413 5.558-2.606a.63.63 0 01.68.604l.052 1.49c.06 1.688.122 3.433.163 5.148a.628.628 0 01-1.258.03c-.041-1.708-.103-3.45-.163-5.134l-.028-.814c-1.744.254-3.07.94-4.041 2.09-1.681 1.988-2.252 5.24-1.8 10.237a.68.68 0 01.002.045c.06 3.298.062 8.485-.047 12.03 1.302.034 4.364.108 6.858.146.348.006.625.29.62.637a.629.629 0 01-.629.617z" clip-rule="evenodd"></path> <path fill="#fff" fill-rule="evenodd" d="M306.911 37.707c-.06-2.484-.148-4.971-.237-7.459-.257-5.704-7.621-5.38-7.421.284.21 5.5.348 10.982.388 16.43" clip-rule="evenodd"></path> <path fill="#263238" fill-rule="evenodd" d="M299.641 47.59a.629.629 0 01-.629-.622 526.695 526.695 0 00-.388-16.412c-.113-3.206 2-4.97 4.147-5.056 2.827-.115 4.422 2.29 4.532 4.72.095 2.65.178 5.037.237 7.472a.627.627 0 01-.614.642.636.636 0 01-.644-.612 654.794 654.794 0 00-.236-7.452c-.113-2.498-1.749-3.575-3.225-3.517-1.477.06-3.027 1.26-2.939 3.757.223 5.818.349 11.2.388 16.448a.628.628 0 01-.624.632h-.005z" clip-rule="evenodd"></path> <path fill="#fff" fill-rule="evenodd" d="M328.934 29.34c.51-4.272-2.985-14.814 2.939-15.628 6.087.174 3.649 11.105 4.483 15.343" clip-rule="evenodd"></path> <path fill="#263238" fill-rule="evenodd" d="M328.935 29.966a.624.624 0 01-.623-.701c.135-1.148-.044-2.86-.233-4.672-.503-4.828-1.129-10.838 3.709-11.502a.664.664 0 01.104-.006c5.027.144 4.958 6.337 4.901 11.313-.018 1.764-.037 3.431.18 4.536a.629.629 0 01-1.233.242c-.243-1.232-.224-2.961-.205-4.792.063-5.602-.167-9.902-3.627-10.044-3.313.498-3.143 4.694-2.577 10.124.195 1.883.381 3.662.23 4.95a.63.63 0 01-.626.552zM295.725 55.304c-.348 14.418-.781 28.615-4.827 42.143-9.769-7.831-17.495-18.117-24.837-28.371-5.449-8.04-18.064-13.33-27.31-13.224-7.907.09-10.945 13.749-12.45 21.684-1.247 5.548-.214 11.681 3.414 16.852 6.069 8.619 12.385 16.823 19.686 24.7 12.625 13.616 29.926 27.565 49.722 25.022 38.778-6.465 39.976-57.465 40.942-88.207l-44.34-.599z" clip-rule="evenodd"></path> <g> <path fill="#2979FF" fill-rule="evenodd" d="M261.307 157.602c.321 3.424-2.383 6.381-5.834 6.381h-93.039a6.06 6.06 0 01-6.013-5.245l4.816-83.929c-1.346-10.056 6.506-18.992 16.688-18.992h60.852c13.191.098 23.589 11.86 22.501 24.94l.029 76.845z" clip-rule="evenodd"></path> <path fill="#2979FF" fill-rule="evenodd" d="M233.917 55.817c-7.618-31.965-64.258-9.367-27.476 17.314.66.534 1.619.483 2.22-.117l4.363-4.347 4.347-4.332 8.46 8.188c3.207 3.295 8.345-12.639 8.086-16.706z" clip-rule="evenodd"></path> <path fill="#2979FF" fill-rule="evenodd" d="M215.784 75.302l-4.468-4.45 6.215-6.194 6.215 6.193-4.48 4.464 4.364 13.187 10.287-32.685h-39.672l19.808 32.91c.006-.023 1.72-13.405 1.731-13.425z" clip-rule="evenodd"></path> <path fill="#263238" fill-rule="evenodd" d="M224.495 128.462l-5.228-53.147 4.481-4.464-6.216-6.192-6.215 6.192 4.468 4.451c-.007-.005-7.156 53.382-7.159 53.386 9.309 11.302 7.408 13.211 15.869-.226z" clip-rule="evenodd"></path> <path fill="#263238" fill-rule="evenodd" d="M207.801 73.792c-.555 0-1.215-.201-1.978-.602-4.759-2.499-12.805-12.439-12.044-17.443a.472.472 0 01.933.14c-.304 2 1.124 5.373 3.819 9.022 2.446 3.312 5.554 6.305 7.732 7.45.576.301 1.611.744 2.076.312l4.849-4.832 3.849-3.836a.473.473 0 01.663-.005l8.46 8.188c.314.323.599.388.961.228 2.728-1.203 6.555-12.956 6.325-16.567a.472.472 0 01.942-.06c.233 3.665-3.605 16.041-6.885 17.487-.721.319-1.436.168-2.011-.423l-8.116-7.855-3.521 3.508-4.86 4.843c-.319.297-.718.445-1.194.445zM228.432 86.318c.109 2.929.028 5.547-.044 7.872-.158 5.111-.273 8.804 1.872 10.863 2.075 1.992 6.28 2.616 14.057 2.088l.024-.001c2.033-.035 3.561-.626 4.671-1.808 2.672-2.843 2.392-8.54 2.146-13.567-.098-2.005-.191-3.911-.075-5.447h-22.651zm11.239 21.939c-5.161 0-8.27-.804-10.066-2.527-2.446-2.348-2.326-6.216-2.16-11.569.075-2.437.161-5.2.024-8.292l-.021-.491h24.684l-.062.524c-.179 1.538-.077 3.617.031 5.818.255 5.212.545 11.12-2.4 14.255-1.274 1.355-3.068 2.064-5.332 2.104-1.729.118-3.29.178-4.698.178z" clip-rule="evenodd"></path> </g> <g> <path fill="#263238" fill-rule="evenodd" d="M218.567 160.951h.944v-25.737h-.944v25.737z" clip-rule="evenodd"></path> <path fill="#fff" fill-rule="evenodd" d="M253.041 173.394h-35.438c-3.694 0-6.688-2.984-6.688-6.664v-42.727c0-3.681 2.994-6.664 6.688-6.664h35.438c3.694 0 6.689 2.983 6.689 6.664v42.727c0 3.68-2.995 6.664-6.689 6.664z" clip-rule="evenodd"></path> <path fill="#263238" fill-rule="evenodd" d="M217.604 117.966c-3.341 0-6.059 2.708-6.059 6.037v42.726c0 3.329 2.718 6.038 6.059 6.038h35.437c3.342 0 6.06-2.709 6.06-6.038v-42.726c0-3.329-2.718-6.037-6.06-6.037h-35.437zm35.437 56.055h-35.437c-4.035 0-7.318-3.271-7.318-7.292v-42.726c0-4.021 3.283-7.291 7.318-7.291h35.437c4.036 0 7.318 3.27 7.318 7.291v42.726c0 4.021-3.282 7.292-7.318 7.292z" clip-rule="evenodd"></path> <path fill="#fff" fill-rule="evenodd" d="M222.027 122.417a2.421 2.421 0 01-2.425-2.417c.21-2.034-1.021-7.17 2.425-7.089a2.421 2.421 0 012.425 2.417c-.21 2.034 1.02 7.169-2.425 7.089z" clip-rule="evenodd"></path> <path fill="#263238" fill-rule="evenodd" d="M220.232 120.028a1.795 1.795 0 001.796 1.761l.015.001c.515.012.889-.115 1.158-.388.78-.793.698-2.726.631-4.28-.028-.679-.056-1.321-.008-1.823a1.776 1.776 0 00-.526-1.237 1.787 1.787 0 00-1.27-.524c-.525-.013-.904.115-1.173.387-.781.793-.698 2.726-.632 4.28.029.679.057 1.321.009 1.823zm1.875 3.016l-.086-.001a3.052 3.052 0 01-3.048-3.043l.004-.065c.043-.416.017-1.029-.011-1.677-.077-1.795-.172-4.03.991-5.211.519-.526 1.216-.781 2.086-.763h.001c.801 0 1.567.317 2.144.891.577.575.894 1.339.894 2.153l-.003.064c-.043.416-.017 1.029.011 1.677.077 1.796.172 4.03-.991 5.211-.5.507-1.17.764-1.992.764z" clip-rule="evenodd"></path> <path fill="#fff" fill-rule="evenodd" d="M230.891 122.417a2.422 2.422 0 01-2.425-2.417c.21-2.034-1.02-7.17 2.425-7.089a2.42 2.42 0 012.425 2.417c-.21 2.034 1.021 7.169-2.425 7.089z" clip-rule="evenodd"></path> <path fill="#263238" fill-rule="evenodd" d="M229.094 120.028a1.795 1.795 0 001.796 1.761l.015.001c.512.012.889-.115 1.158-.388.781-.793.698-2.726.632-4.28-.029-.679-.057-1.321-.009-1.823a1.771 1.771 0 00-.526-1.237 1.786 1.786 0 00-1.269-.524h-.001c-.526-.013-.904.115-1.173.387-.78.793-.698 2.726-.631 4.28.028.679.056 1.321.008 1.823zm1.876 3.016l-.087-.001a3.052 3.052 0 01-3.047-3.043l.003-.065c.043-.416.017-1.029-.011-1.677-.076-1.795-.172-4.03.991-5.211.519-.526 1.217-.781 2.086-.763h.001a3.03 3.03 0 012.144.891c.577.575.895 1.339.895 2.153l-.003.064c-.044.416-.017 1.029.01 1.677.077 1.796.172 4.03-.991 5.211-.499.507-1.169.764-1.991.764z" clip-rule="evenodd"></path> <path fill="#fff" fill-rule="evenodd" d="M239.753 122.417a2.422 2.422 0 01-2.425-2.417c.21-2.034-1.02-7.17 2.425-7.089a2.421 2.421 0 012.426 2.417c-.211 2.034 1.02 7.169-2.426 7.089z" clip-rule="evenodd"></path> <path fill="#263238" fill-rule="evenodd" d="M237.957 120.028a1.795 1.795 0 001.796 1.761l.015.001c.516.012.89-.115 1.159-.388.78-.793.697-2.726.631-4.28-.029-.679-.056-1.321-.009-1.823a1.79 1.79 0 00-1.795-1.761c-.525-.013-.904.115-1.173.387-.781.793-.699 2.726-.632 4.28.028.679.056 1.321.008 1.823zm1.876 3.016l-.087-.001a3.052 3.052 0 01-3.047-3.043l.003-.065c.043-.416.017-1.029-.011-1.677-.076-1.795-.171-4.03.991-5.211.519-.526 1.218-.781 2.087-.763a3.03 3.03 0 012.144.891c.577.575.895 1.339.895 2.153l-.003.064c-.043.416-.017 1.029.01 1.677.077 1.796.172 4.03-.991 5.211-.499.507-1.169.764-1.991.764z" clip-rule="evenodd"></path> <path fill="#fff" fill-rule="evenodd" d="M248.617 122.417a2.422 2.422 0 01-2.426-2.417c.211-2.034-1.02-7.17 2.426-7.089a2.421 2.421 0 012.425 2.417c-.21 2.034 1.02 7.169-2.425 7.089z" clip-rule="evenodd"></path> <path fill="#263238" fill-rule="evenodd" d="M246.821 120.028a1.795 1.795 0 001.796 1.761l.014.001c.514.012.89-.115 1.159-.388.78-.793.698-2.726.631-4.28-.028-.679-.056-1.321-.008-1.823a1.78 1.78 0 00-.526-1.237 1.787 1.787 0 00-1.27-.524c-.526-.013-.904.115-1.173.387-.781.793-.698 2.726-.632 4.28.029.679.056 1.321.009 1.823zm1.875 3.016l-.087-.001a3.052 3.052 0 01-3.047-3.043l.003-.065c.043-.416.017-1.029-.01-1.677-.077-1.795-.172-4.03.991-5.211.518-.526 1.217-.781 2.085-.763h.002c.8 0 1.567.317 2.144.891.577.575.894 1.339.894 2.153l-.003.064c-.043.416-.017 1.029.011 1.677.076 1.796.171 4.03-.991 5.211-.5.507-1.17.764-1.992.764z" clip-rule="evenodd"></path> <g> <path fill="#fff" fill-rule="evenodd" d="M227.38 165.828c-.97-34.684 8.523-28.291-27.156-30.852l-2.629 29.484c10.076.89 19.969 1.258 29.785 1.368z" clip-rule="evenodd"></path> <path fill="#263238" fill-rule="evenodd" d="M198.277 163.889c8.753.756 17.832 1.173 28.456 1.304-.176-7.159.093-12.581.29-16.571.277-5.595.43-8.677-.932-10.165-1.519-1.66-5.318-1.822-12.886-2.146-3.321-.142-7.423-.317-12.409-.666l-2.519 28.244zm29.102 2.566h-.007c-11.195-.126-20.675-.562-29.833-1.371a.631.631 0 01-.572-.68l2.63-29.484a.63.63 0 01.672-.57c5.248.377 9.541.561 12.99.708 8.164.349 11.89.509 13.762 2.554 1.714 1.874 1.562 4.948 1.259 11.071-.202 4.091-.48 9.693-.272 17.128a.63.63 0 01-.629.644z" clip-rule="evenodd"></path> <path fill="#fff" fill-rule="evenodd" d="M225.832 143.605c4.607.065 9.218.075 13.833.018 5.791-.098 5.668-7.441-.084-7.399-5.586.062-11.16.046-16.711-.074" clip-rule="evenodd"></path> <path fill="#263238" fill-rule="evenodd" d="M233.558 144.287c-2.54 0-5.125-.018-7.733-.055a.626.626 0 11.017-1.254c4.728.067 9.376.073 13.816.018 2.543-.043 3.684-1.642 3.666-3.111-.018-1.465-1.182-3.034-3.693-3.034h-.044c-5.805.065-11.435.04-16.729-.074a.628.628 0 01-.616-.64c.008-.346.3-.62.643-.613 5.281.113 10.896.137 16.69.073 3.251-.032 4.981 2.132 5.007 4.273.034 2.821-2.442 4.338-4.906 4.38-2.001.025-4.044.037-6.118.037z" clip-rule="evenodd"></path> <path fill="#fff" fill-rule="evenodd" d="M225.833 143.605c4.607.065 9.218.076 13.832.019 2.448-.029 4.465 1.588 4.505 3.634.04 2.04-1.939 3.736-4.422 3.765-4.67.058-9.346.048-14.024-.019" clip-rule="evenodd"></path> <path fill="#263238" fill-rule="evenodd" d="M233.554 151.687c-2.576 0-5.196-.018-7.84-.056a.628.628 0 01-.62-.636.622.622 0 01.638-.618c4.789.068 9.502.075 14.008.019 1.174-.014 2.263-.45 2.99-1.197.544-.559.825-1.226.811-1.929-.033-1.69-1.758-3.035-3.869-3.02-4.451.055-9.11.049-13.848-.018a.628.628 0 11.018-1.254c4.727.067 9.375.073 13.815.019 2.795-.031 5.096 1.873 5.142 4.248.02 1.03-.394 2.034-1.166 2.827-.958.985-2.371 1.56-3.878 1.578-2.028.025-4.1.037-6.201.037z" clip-rule="evenodd"></path> <path fill="#fff" fill-rule="evenodd" d="M225.723 151.004c4.679.067 9.354.077 14.025.019 2.478-.029 4.518 1.588 4.558 3.633.04 2.041-1.962 3.737-4.475 3.767a534.96 534.96 0 01-14.218-.02" clip-rule="evenodd"></path> <path fill="#263238" fill-rule="evenodd" d="M233.557 159.087c-2.612 0-5.27-.019-7.952-.057a.63.63 0 01-.621-.636.623.623 0 01.639-.618c4.857.069 9.635.076 14.2.02 1.2-.015 2.311-.457 3.047-1.214.542-.557.821-1.218.807-1.914-.033-1.689-1.801-3.032-3.921-3.018-4.517.056-9.242.049-14.041-.019a.629.629 0 01-.621-.636.622.622 0 01.638-.618c4.79.068 9.502.075 14.008.019 2.818-.042 5.149 1.873 5.195 4.248.02 1.022-.392 2.021-1.161 2.811-.969.995-2.403 1.577-3.935 1.594-2.055.026-4.154.038-6.282.038z" clip-rule="evenodd"></path> <path fill="#fff" fill-rule="evenodd" d="M200.548 138.23c-.079-4.967 2.031-11.019 7.929-10.635 6.811.53 17.335-1.155 17.465 8.687a397.35 397.35 0 01-6.712 2.988" clip-rule="evenodd"></path> <path fill="#fff" fill-rule="evenodd" d="M200.224 134.976c.291-3.261.711-7.439.711-7.439 5.856.612 11.571.895 17.374 1.089 4.246.143 7.682 3.492 7.633 7.58a364.142 364.142 0 01-6.617-.146" clip-rule="evenodd"></path> <path fill="#263238" fill-rule="evenodd" d="M225.942 136.833h-.008c-2.227-.03-4.456-.079-6.628-.146a.629.629 0 01-.61-.646.628.628 0 01.649-.607c1.949.06 3.946.106 5.945.136-.296-3.416-3.308-6.193-7.002-6.318-4.903-.163-10.706-.414-16.789-1.027a764.991 764.991 0 00-.648 6.806.63.63 0 01-1.254-.11c.288-3.227.708-7.405.712-7.447a.629.629 0 01.692-.561c6.272.656 12.28.918 17.329 1.086 4.597.155 8.294 3.84 8.241 8.215a.63.63 0 01-.629.619z" clip-rule="evenodd"></path> <path fill="#fff" fill-rule="evenodd" d="M218.446 136.033c2.474.081 4.955.138 7.44.172 5.692.055 5.751-7.287.111-7.399-5.47-.081-10.91-.251-16.28-.564" clip-rule="evenodd"></path> <path fill="#263238" fill-rule="evenodd" d="M225.937 136.832h-.057c-2.493-.034-5-.092-7.455-.172a.628.628 0 11.04-1.253c2.448.079 4.948.137 7.43.171h.058c2.461 0 3.586-1.505 3.608-3.007.022-1.477-1.088-3.089-3.577-3.138-5.972-.089-11.306-.274-16.305-.565a.628.628 0 01-.591-.663.63.63 0 01.665-.589c4.98.29 10.297.474 16.252.563 3.204.064 4.846 2.267 4.814 4.41-.041 2.794-2.478 4.243-4.882 4.243z" clip-rule="evenodd"></path> <path fill="#fff" fill-rule="evenodd" d="M225.614 158.403c4.282.757 15.055-2.239 15.608 3.703-.392 6.017-11.451 3.129-15.717 3.696" clip-rule="evenodd"></path> <path fill="#263238" fill-rule="evenodd" d="M233.876 166.631c-1.301 0-2.616-.079-3.821-.151-1.737-.103-3.377-.201-4.467-.056a.627.627 0 11-.166-1.243c1.21-.161 2.909-.06 4.708.048 5.762.344 10.195.331 10.461-3.114-.349-3.311-4.555-3.353-10.013-3.063-1.937.103-3.766.2-5.073-.031a.628.628 0 11.219-1.235c1.166.206 2.924.112 4.787.014 4.851-.258 10.889-.578 11.338 4.248a.535.535 0 01.001.098c-.245 3.77-4.046 4.485-7.974 4.485z" clip-rule="evenodd"></path> </g> <path fill="#263238" fill-rule="evenodd" d="M201.801 123.798c-11.379-1.146-23.012-2.311-33.459-6.944l.006-.011-.006.011.006.003s4.643-6.141 12.201-15.494c7.558-9.353 17.729-18.163 11.894-34.727-2.485-7.053-7.636-9.973-13.925-10.403-3.703-.253-15.018-2.098-33.861 21.279-18.843 23.376-32.447 50.659-7.244 71.757 16.941 13.504 39.71 16.458 60.568 18.549l3.82-44.02z" clip-rule="evenodd"></path> </g> </g> <g> <path fill="#263238" fill-rule="evenodd" d="M236.958 20.08c0 10.213-8.169 18.494-18.247 18.494-10.077 0-18.246-8.281-18.246-18.495s8.169-18.494 18.246-18.494c10.078 0 18.247 8.28 18.247 18.494z" clip-rule="evenodd"></path> <path fill="#263238" fill-rule="evenodd" d="M200.466.958h25.468c6.089 0 11.025 5.75 11.025 12.845v6.276h-36.493V.958z" clip-rule="evenodd"></path> <path fill="#fff" fill-rule="evenodd" d="M237.826 26.74c0 2.638-2.146 4.776-4.792 4.776-2.647 0-4.793-2.138-4.793-4.775 0-2.638 2.146-4.776 4.793-4.776 2.646 0 4.792 2.138 4.792 4.776z" clip-rule="evenodd"></path> <path fill="#263238" fill-rule="evenodd" d="M233.034 22.592c-2.296 0-4.163 1.861-4.163 4.149 0 2.287 1.867 4.148 4.163 4.148 2.295 0 4.163-1.861 4.163-4.148 0-2.288-1.868-4.149-4.163-4.149zm0 9.55c-2.99 0-5.422-2.423-5.422-5.402 0-2.978 2.432-5.401 5.422-5.401 2.989 0 5.421 2.423 5.421 5.402 0 2.978-2.432 5.401-5.421 5.401z" clip-rule="evenodd"></path> <path fill="#fff" fill-rule="evenodd" d="M216.956 57.929c-5.964 0-11.462-4.558-11.462-9.998l5.068-18.702c0-5.441-1.457-9.852 4.507-9.852h6.292c5.964 0 4.506 4.41 4.506 9.852v18.848c0 5.44-2.947 9.852-8.911 9.852z" clip-rule="evenodd"></path> <path fill="#263238" fill-rule="evenodd" d="M206.124 48.012c.054 4.958 5.093 9.29 10.833 9.29 6.106 0 8.281-4.765 8.281-9.225V29.23c0-.956.043-1.864.086-2.742.115-2.416.215-4.502-.785-5.547-.603-.63-1.642-.936-3.178-.936h-6.292c-1.536 0-2.575.306-3.178.936-1 1.045-.901 3.131-.785 5.547.042.878.086 1.786.086 2.742v.083l-5.068 18.7zm10.833 10.544c-6.442 0-12.092-4.965-12.092-10.625v-.083l5.068-18.702c-.002-.896-.044-1.762-.084-2.6-.129-2.703-.241-5.037 1.131-6.471.853-.892 2.191-1.325 4.089-1.325h6.292c1.898 0 3.236.433 4.088 1.325 1.373 1.434 1.261 3.768 1.131 6.472-.041.863-.084 1.756-.084 2.681v18.85c0 6.365-3.744 10.478-9.539 10.478z" clip-rule="evenodd"></path> <path fill="#fff" fill-rule="evenodd" d="M220.605 41.607a13.754 13.754 0 01-12.634-8.273l-.204-.472c-3.009-6.937.209-15.02 7.171-18.017a13.709 13.709 0 015.449-1.127 13.754 13.754 0 0112.633 8.273l.205.472a13.568 13.568 0 01.159 10.488 13.637 13.637 0 01-7.331 7.529 13.704 13.704 0 01-5.448 1.127z" clip-rule="evenodd"></path> <path fill="#263238" fill-rule="evenodd" d="M220.388 13.091c-1.965 0-3.882.397-5.699 1.18a14.26 14.26 0 00-7.666 7.872 14.192 14.192 0 00.166 10.968l.205.472a14.382 14.382 0 0013.211 8.651c1.964 0 3.881-.396 5.698-1.179a14.26 14.26 0 007.666-7.873 14.188 14.188 0 00-.166-10.968l-.205-.471a14.382 14.382 0 00-13.21-8.652zm0 1.254c5.078 0 9.913 2.954 12.055 7.895l.204.472c2.876 6.63-.188 14.328-6.843 17.192a13.125 13.125 0 01-5.199 1.076c-5.079 0-9.913-2.954-12.056-7.894l-.204-.472c-2.875-6.63.188-14.328 6.843-17.193a13.12 13.12 0 015.2-1.076z" clip-rule="evenodd"></path> <path fill="#fff" fill-rule="evenodd" d="M207.721 31.515c-2.647 0-4.792-2.137-4.792-4.774 0-2.638 2.145-4.776 4.792-4.776.331 0 .654.034.966.098" clip-rule="evenodd"></path> <path fill="#263238" fill-rule="evenodd" d="M207.721 32.142c-2.989 0-5.421-2.423-5.421-5.402 0-2.978 2.432-5.401 5.421-5.401.367 0 .735.037 1.092.11a.626.626 0 11-.252 1.228 4.221 4.221 0 00-.84-.085c-2.295 0-4.163 1.861-4.163 4.149 0 2.287 1.868 4.148 4.163 4.148a.628.628 0 110 1.253z" clip-rule="evenodd"></path> <path fill="#263238" d="M209.589 22.9a4.396 4.396 0 004.404-4.388 4.396 4.396 0 00-4.404-4.389 4.396 4.396 0 00-4.404 4.389 4.396 4.396 0 004.404 4.388z"></path> <path fill="#263238" d="M230.352 10.989h-17.303v5.642h17.303v-5.643z"></path> <path fill="#2979FF" fill-rule="evenodd" d="M222.533 31.988h2.379c.656 0 1.142-.95.995-1.946l-1.002-6.815c-.232-1.581-1.656-1.67-1.968-.122l-1.377 6.814c-.207 1.025.284 2.07.973 2.07z" clip-rule="evenodd"></path> </g> <g> <path fill="#263238" fill-rule="evenodd" d="M233.518 21.02c.965 0 1.75.76 1.786 1.712l.002.068v7.875c0 .138-.015.273-.044.402l-.033.245c-.407 2.925-2.736 14.79-13.726 14.79-11.532 0-13.527-12.58-13.772-14.593a1.2 1.2 0 01-.03-.27V22.8c0-.983.8-1.78 1.787-1.78.987 0 1.788.797 1.788 1.78v7.067c0 1.618 1.116 3.892 2.868 5.918-.248-1.907-.215-3.97.701-5.242.598-.831 1.504-1.27 2.62-1.27 1.939 0 3.102.454 4.011.884l.652.315c.955.452 1.648.626 3.555-.245l.116-.053c2.187-1.022 3.515-1.176 4.44-.515 1.197.854 1.072 2.587.807 4.98.666-1.51.737-2.84.718-3.508a1.853 1.853 0 01-.031-.25l-.002-.085V22.8c0-.983.801-1.78 1.787-1.78zm-6.813 10.808l-.105.049c-2.801 1.307-4.035.905-5.599.141l-.154-.075c-.826-.4-1.722-.79-3.382-.79-.653 0-.923.26-1.086.486-.833 1.156-.463 4.064.121 6.385.89.688 1.855 1.276 2.86 1.701l2.095-2.087a1.644 1.644 0 012.319 0l2.087 2.08c1.239-.617 2.22-1.313 2.997-2.038.05-.812.128-1.588.208-2.309l.134-1.223c.126-1.201.238-2.668-.038-2.942l-.027-.021c-.048-.026-.529-.23-2.43.643z" clip-rule="evenodd"></path> </g> <g> <path fill="#263238" fill-rule="evenodd" d="M223.122 35.559a6.412 6.412 0 01-4.54-1.871.625.625 0 010-.887.63.63 0 01.889 0 5.183 5.183 0 007.302 0 .63.63 0 01.889 0 .625.625 0 010 .887 6.411 6.411 0 01-4.54 1.871zM219.382 24.576a1.472 1.472 0 01-1.608-1.32 1.47 1.47 0 011.325-1.602 1.468 1.468 0 11.283 2.922zM227.38 24.575a1.468 1.468 0 11-.283-2.921 1.468 1.468 0 11.283 2.921z" clip-rule="evenodd"></path> </g> </svg> 